<svg width="52" height="52" viewBox="0 0 52 52" fill="none" xmlns="http://www.w3.org/2000/svg">
<circle cx="25.6914" cy="25.6914" r="25.6914" fill="white"/>
<g clip-path="url(#clip0_2503_587)">
<path fill-rule="evenodd" clip-rule="evenodd" d="M30.8286 13.4375H19.7615C18.0843 13.4375 16.4758 14.1038 15.2898 15.2898C14.1038 16.4758 13.4375 18.0843 13.4375 19.7615V30.8286C13.4375 32.5058 14.1038 34.1144 15.2898 35.3004C16.4758 36.4864 18.0843 37.1526 19.7615 37.1526H30.8286C32.5058 37.1526 34.1144 36.4864 35.3004 35.3004C36.4864 34.1144 37.1526 32.5058 37.1526 30.8286V19.7615C37.1526 18.0843 36.4864 16.4758 35.3004 15.2898C34.1144 14.1038 32.5058 13.4375 30.8286 13.4375ZM35.5716 30.8286C35.5716 32.0865 35.0719 33.2929 34.1824 34.1824C33.2929 35.0719 32.0865 35.5716 30.8286 35.5716H19.7615C18.5036 35.5716 17.2972 35.0719 16.4077 34.1824C15.5182 33.2929 15.0185 32.0865 15.0185 30.8286V19.7615C15.0185 18.5036 15.5182 17.2972 16.4077 16.4077C17.2972 15.5182 18.5036 15.0185 19.7615 15.0185H30.8286C32.0865 15.0185 33.2929 15.5182 34.1824 16.4077C35.0719 17.2972 35.5716 18.5036 35.5716 19.7615V30.8286Z" fill="#20B038"/>
<path fill-rule="evenodd" clip-rule="evenodd" d="M17.9482 28.2254L20.5513 25.6222L23.1545 28.2254C23.2431 28.3137 23.3513 28.3797 23.4704 28.4181C23.5895 28.4564 23.7159 28.4659 23.8394 28.4458C23.9629 28.4258 24.0798 28.3767 24.1806 28.3026C24.2814 28.2286 24.3632 28.1317 24.4193 28.0198L26.8754 23.11L29.3307 28.0198C29.3989 28.1559 29.505 28.2694 29.6362 28.3467C29.7674 28.4239 29.9181 28.4616 30.0703 28.4553C30.2224 28.4489 30.3694 28.3988 30.4937 28.3109C30.618 28.223 30.7143 28.1011 30.771 27.9598L33.933 20.0547C34.0025 19.8619 33.9944 19.6496 33.9105 19.4627C33.8265 19.2757 33.6731 19.1287 33.4828 19.0526C33.2925 18.9765 33.0801 18.9773 32.8903 19.0548C32.7006 19.1324 32.5484 19.2806 32.4658 19.4682L29.9584 25.7384L27.5868 20.9891C27.5211 20.858 27.4202 20.7477 27.2954 20.6706C27.1706 20.5936 27.0268 20.5528 26.8801 20.5528C26.7335 20.5528 26.5897 20.5936 26.4649 20.6706C26.3401 20.7477 26.2391 20.858 26.1734 20.9891L23.5015 26.3321L21.115 23.9456C20.9667 23.7974 20.7657 23.7141 20.5561 23.7141C20.3465 23.7141 20.1454 23.7974 19.9972 23.9456L16.8352 27.1076C16.6912 27.2567 16.6115 27.4564 16.6133 27.6636C16.6151 27.8709 16.6982 28.0692 16.8448 28.2157C16.9914 28.3623 17.1896 28.4454 17.3969 28.4472C17.6042 28.449 17.8039 28.3694 17.953 28.2254H17.9482Z" fill="#20B038"/>
<path fill-rule="evenodd" clip-rule="evenodd" d="M33.1983 30.0391H17.3882C17.1785 30.0391 16.9774 30.1223 16.8292 30.2706C16.6809 30.4188 16.5977 30.6199 16.5977 30.8296C16.5977 31.0392 16.6809 31.2403 16.8292 31.3885C16.9774 31.5368 17.1785 31.6201 17.3882 31.6201H33.1983C33.4079 31.6201 33.609 31.5368 33.7572 31.3885C33.9055 31.2403 33.9888 31.0392 33.9888 30.8296C33.9888 30.6199 33.9055 30.4188 33.7572 30.2706C33.609 30.1223 33.4079 30.0391 33.1983 30.0391Z" fill="#20B038"/>
</g>
<defs>
<clipPath id="clip0_2503_587">
<rect width="25.2962" height="25.2962" fill="white" transform="translate(12.6484 12.6484)"/>
</clipPath>
</defs>
</svg>
