<?xml version="1.0" encoding="UTF-8"?>
<svg id="Layer_1" xmlns="http://www.w3.org/2000/svg" viewBox="0 0 100 100">
  <defs>
    <style>
      .cls-1 {
        fill: #0c9ffa;
      }
    </style>
  </defs>
  <path class="cls-1" d="M22.49,38.95L46.36,3.14c.61-.92,1.84-1.16,2.76-.55s1.16,1.84.55,2.76l-23.87,35.81c-.38.58-1.01.89-1.66.89-.38,0-.76-.11-1.1-.33-.92-.61-1.16-1.84-.55-2.76h0ZM48.02,26.12c4.39,0,7.96,3.57,7.96,7.96s-3.57,7.96-7.96,7.96-7.96-3.57-7.96-7.96,3.57-7.96,7.96-7.96ZM48.02,30.1c-2.19,0-3.98,1.79-3.98,3.98s1.79,3.98,3.98,3.98,3.98-1.79,3.98-3.98-1.79-3.98-3.98-3.98ZM16.19,10.21c0-4.39,3.57-7.96,7.96-7.96s7.96,3.57,7.96,7.96-3.57,7.96-7.96,7.96-7.96-3.57-7.96-7.96ZM20.17,10.21c0,2.19,1.79,3.98,3.98,3.98s3.98-1.79,3.98-3.98-1.79-3.98-3.98-3.98-3.98,1.79-3.98,3.98ZM95.23,54.7l-27.08,30.4c-7.17,8.04-17.46,12.66-28.22,12.66h-23.73c-7.68,0-13.93-6.25-13.93-13.93v-19.9c0-7.68,6.25-13.93,13.93-13.93h39.22c4.81,0,8.87,3.24,10.11,7.65l14.85-16.32c1.79-1.97,4.25-3.13,6.92-3.25,2.65-.1,5.22.8,7.2,2.59,4.02,3.67,4.35,9.96.73,14.03ZM91.82,43.61c-1.19-1.08-2.74-1.62-4.33-1.56-1.6.08-3.08.77-4.17,1.96l-17.89,19.66c-1.2,3.76-4.47,6.68-8.54,7.26l-24.56,2.94c-1.13.14-2.08-.65-2.21-1.74-.13-1.09.65-2.08,1.74-2.21l24.51-2.93c3.15-.45,5.57-3.23,5.57-6.46,0-3.6-2.93-6.53-6.53-6.53H16.19c-5.48,0-9.95,4.46-9.95,9.95v19.9c0,5.48,4.46,9.95,9.95,9.95h23.73c9.64,0,18.84-4.13,25.25-11.32l27.08-30.4c2.18-2.45,1.98-6.24-.44-8.44h0Z"/>
</svg>