<?xml version="1.0" encoding="UTF-8"?>
<svg id="Layer_2" xmlns="http://www.w3.org/2000/svg" viewBox="0 0 23.49 22.18">
  <g id="Layer_1-2" data-name="Layer_1">
    <path class="cls-1" d="M20.05,9.2c.61.67.94,1.53.94,2.43v6.89c0,2.01-1.64,3.65-3.65,3.65H5.87c-2.01,0-3.65-1.64-3.65-3.65v-6.89c0-2.01,1.64-3.65,3.65-3.65h3.08c.4.72,1.16,1.22,2.05,1.22h1.31v.95h-5.4c-1.64,0-2.97,1.33-2.97,2.97v3.93c0,1.64,1.33,2.97,2.97,2.97h9.41c1.64,0,2.97-1.33,2.97-2.97v-3.93c0-1.64-1.33-2.97-2.97-2.97h-1.51l.95-.95h4.31,0ZM22.12,12.14v5.9c.78-.13,1.37-.81,1.37-1.62v-2.65c0-.81-.59-1.49-1.37-1.63h0ZM6.9,11.29h5.4c0,.22.14.43.35.51.07.03.14.04.22.04.15,0,.29-.06.4-.17l.39-.39h2.65c1.01,0,1.84.82,1.84,1.84v3.93c0,1.01-.82,1.84-1.84,1.84H6.9c-1.01,0-1.84-.82-1.84-1.84v-3.93c0-1.01.82-1.84,1.84-1.84h0ZM14.28,15.97c0,.31.25.57.57.57s.57-.25.57-.57v-1.78c0-.31-.25-.57-.57-.57s-.57.25-.57.57v1.78ZM7.78,15.97c0,.31.25.57.57.57s.57-.25.57-.57v-1.78c0-.31-.25-.57-.57-.57s-.57.25-.57.57v1.78ZM23.49,1.19v5.69c0,.66-.53,1.19-1.19,1.19h-6.8c-.15,0-.3.06-.4.17l-1.67,1.67v-1.27c0-.31-.25-.57-.57-.57h-1.88c-.66,0-1.19-.53-1.19-1.19V1.19c0-.66.53-1.19,1.19-1.19h11.31c.66,0,1.19.53,1.19,1.19h0ZM11.55,1.89c0,.31.25.57.57.57h6.29c.31,0,.57-.25.57-.57s-.25-.57-.57-.57h-6.29c-.31,0-.57.25-.57.57ZM21.74,6.18c0-.31-.25-.57-.57-.57h-9.06c-.31,0-.57.25-.57.57s.25.57.57.57h9.06c.31,0,.57-.25.57-.57ZM21.74,4.03c0-.31-.25-.57-.57-.57h-9.06c-.31,0-.57.25-.57.57s.25.57.57.57h9.06c.31,0,.57-.25.57-.57ZM0,13.76v2.65c0,.71.45,1.31,1.08,1.55v-5.74c-.63.23-1.08.84-1.08,1.55h0ZM5.64,5.14v1.71h1.14v-1.71c.63-.23,1.07-.83,1.07-1.54,0-.9-.74-1.64-1.64-1.64s-1.64.74-1.64,1.64c0,.71.45,1.31,1.07,1.54h0Z"/>
  </g>
</svg>