<?xml version="1.0" encoding="UTF-8"?>
<svg id="Layer_2" xmlns="http://www.w3.org/2000/svg" viewBox="0 0 335.1 75.25">
  <defs>
    <style>
      .cls-1 {
        fill: #fff;
      }

      .cls-2 {
        fill: #e12529;
      }
    </style>
  </defs>
  <g id="Layer_1-2" data-name="Layer_1">
    <g>
      <path class="cls-2" d="M21.96,62.25c0-1.42.05-2.6-.03-3.78-.02-.32-.39-.7-.69-.9-6.27-4.15-12.51-8.34-18.87-12.35C.62,44.12-.07,43,0,40.9c.18-5.12.06-10.25.06-15.57,10.84,5.88,21.58,11.71,32.49,17.63,0-1.26.05-2.34-.04-3.4-.02-.27-.44-.58-.75-.75-6.72-3.76-13.45-7.51-20.19-11.26-3.52-1.96-6.82-4.19-9.34-7.4C.77,18.29-.05,16.26.03,13.79.16,9.6.06,5.4.06,1.2c0-.35,0-.7,0-1.19.39,0,.73,0,1.07,0,12.93,0,25.86-.05,38.79.02,4.85.03,9.64.64,14.06,2.88,5.31,2.69,8.34,6.98,9.04,12.93.32,2.72.46,5.42-.12,8.12-.93,4.3-3.46,7.41-7.22,9.58-.3.17-.6.34-1.06.6.44.21.74.36,1.05.5,3.56,1.58,6.63,3.73,8.48,7.3,1.28,2.46,1.84,5.11,1.99,7.85.19,3.35.44,6.73-.57,10.01-1.77,5.76-5.74,9.48-11.1,11.87-4.35,1.94-8.95,2.53-13.66,2.53-13.22.01-26.44,0-39.66,0-.32,0-.64,0-1.03,0v-24.35c7.25,4.12,14.44,8.19,21.82,12.39Z"/>
      <path class="cls-1" d="M224.27,74.48h-14.59c-.59-19.09-1.18-38.14-1.77-57.13-.56,2.27-13.55,49.62-15.05,55.02-.19.69-.46.97-1.23.96-3.26-.05-6.53-.04-9.79,0-.7,0-.98-.2-1.15-.91-3.25-13.43-11.67-49.88-12.6-54.69-.03-.14-.07-.27-.2-.39-.79,19.03-1.58,38.07-2.37,57.14h-13.85c1.4-24.17,2.79-48.3,4.19-72.49h19.84c4.37,16.59,9.22,33.08,11.97,50.09.09,0,.19.01.28.02.09-.24.21-.47.26-.72,2.99-14.91,12.39-47.22,12.82-48.79.13-.47.34-.67.86-.67,6.15.02,12.29.01,18.44.02.09,0,.18.03.45.08,1.17,24.09,2.33,48.21,3.51,72.46Z"/>
      <path class="cls-1" d="M77.07,74.17V2.95c2.03-.28,4.04-.69,6.07-.81,5.11-.31,10.22-.62,15.33-.68,4.8-.06,9.61.26,14.17,2,4.06,1.54,7.64,3.78,9.91,7.65,4.11,7,3.45,18.25-7.4,23.52-.42.21-.85.41-1.4.68.36.15.57.26.8.33,8.18,2.73,12.85,9.37,12.67,17.98-.2,9.43-5.71,16.47-15.17,19.39-4.62,1.42-9.38,2-14.18,2.15-6.53.21-13.05.06-19.54-.79-.41-.05-.81-.14-1.25-.21ZM92.26,62.93c1.19.08,2.36.2,3.53.24,3.02.11,6.01,0,8.88-1.09,4.22-1.6,6.49-4.91,6.48-9.45-.01-4.37-2.27-7.47-6.53-9.06-4.02-1.5-8.18-1.04-12.36-1.12v20.47ZM92.21,30.68c2.06,0,3.99.14,5.89-.04,1.92-.18,3.89-.45,5.71-1.06,4.03-1.35,5.99-4.53,5.68-8.73-.26-3.62-2.69-6.19-6.77-7.03-3.23-.67-6.48-.48-9.73-.06-.68.09-.8.39-.8,1,.02,4.32.01,8.64.01,12.97,0,.96,0,1.91,0,2.96Z"/>
      <path class="cls-1" d="M245.59,74.49h-15.44c.67-2.43,13.87-49.98,19.79-71.4.25-.89.6-1.19,1.54-1.18,5.79.05,11.58.04,17.38,0,.7,0,1,.2,1.19.88,6.66,23.6,13.34,47.2,20.01,70.8.08.27.13.54.22.94-.4,0-.71,0-1.02,0-4.67,0-9.35-.03-14.02.02-.82,0-1.09-.28-1.28-1.01-1.51-5.62-3.07-11.23-4.57-16.85-.17-.62-.42-.79-1.04-.79-5.66.02-11.33.04-16.99-.01-.93,0-1.24.28-1.45,1.15-1.33,5.57-2.71,11.12-4.08,16.68-.06.25-.15.49-.24.77ZM259.49,15.33c-2.29,9.58-4.6,19.3-6.92,29.03h14.21c-2.45-9.75-4.88-19.47-7.28-29.03Z"/>
      <path class="cls-1" d="M293.8,74.47V2.01h14.97v58.7h26.34v13.76h-41.31Z"/>
      <path class="cls-1" d="M130.73,1.99h15.08v72.48h-15.08V1.99Z"/>
    </g>
  </g>
</svg>