<?xml version="1.0" encoding="UTF-8"?>
<svg id="Layer_2" xmlns="http://www.w3.org/2000/svg" viewBox="0 0 19.55 22">
  <defs>
  <g id="Layer_1-2" data-name="Layer_1">
    <g id="g2192" class="cls-1">
      <g>
        <path id="path2179" class="cls-2" d="M6.87,15.24h-1.74s-1.74,0-1.74,0c-.26,0-.47.21-.47.47v4.66c0,.9.74,1.63,1.63,1.63h1.17c.9,0,1.63-.74,1.63-1.63v-4.66c0-.26-.21-.47-.47-.47h0Z"/>
        <path id="path2173" class="cls-2" d="M17.77,0c-.31,0-.62.08-.91.26l-6.35,3.97c-.57.36-1.23.54-1.9.54H2.8c-1.54,0-2.8,1.26-2.8,2.8v3.49c0,1.54,1.26,2.8,2.8,2.8h5.82c.67,0,1.33.19,1.9.54l6.35,3.97c1.15.72,2.7-.13,2.7-1.49V1.76C19.55.74,18.69,0,17.77,0h0ZM9.78,7.1c.26,0,.47.21.47.47h0v3.49c0,.26-.21.47-.47.47h0c-.26,0-.47-.21-.47-.47h0v-3.49c0-.26.21-.47.47-.47h0Z"/>
      </g>
    </g>
  </g>
</svg>