<?xml version="1.0" encoding="UTF-8"?>
<svg id="Layer_2" data-name="Layer 2" xmlns="http://www.w3.org/2000/svg" viewBox="0 0 110.46 110.45">
  <defs>
    <style>
      .cls-1 {
        fill: #0c9ffa;
      }

      .cls-2 {
        fill: #606060;
      }
    </style>
  </defs>
  <g id="Layer_1-2" data-name="Layer 1">
    <path class="cls-1" d="M52.45,0H6.22C2.79,0,0,2.79,0,6.22v32c0,3.44,2.79,6.22,6.22,6.22h4.44v11.56c0,1.48,1.21,2.67,2.68,2.66.7,0,1.37-.28,1.87-.77l13.44-13.44h23.79c3.44,0,6.22-2.79,6.22-6.22V6.22c0-3.44-2.79-6.22-6.22-6.22ZM20.51,26.49c-.79,1.24-2.43,1.62-3.68.83-1.24-.79-1.62-2.43-.83-3.68.56-.86.56-1.97,0-2.83-.79-1.24-.42-2.89.83-3.68s2.89-.42,3.68.83h0c1.66,2.6,1.66,5.93,0,8.54ZM29.52,32.19c-.79,1.24-2.44,1.61-3.68.82-1.24-.79-1.61-2.43-.82-3.67,2.77-4.33,2.77-9.88,0-14.21-.79-1.25-.42-2.89.83-3.68,1.24-.79,2.89-.42,3.67.82,3.87,6.08,3.87,13.85,0,19.93ZM38.53,37.88c-.8,1.24-2.45,1.6-3.69.8-1.23-.79-1.59-2.42-.82-3.65,4.98-7.8,4.98-17.79,0-25.59-.78-1.25-.4-2.89.85-3.67,1.24-.77,2.87-.41,3.65.82,6.08,9.55,6.08,21.76,0,31.3Z"/>
    <g>
      <path class="cls-2" d="M99.79,28.74c0,.61-.5,1.11-1.11,1.11h-32c-.61,0-1.11-.5-1.11-1.11s.5-1.11,1.11-1.11h32c.61,0,1.11.5,1.11,1.11Z"/>
      <path class="cls-2" d="M99.79,41.78c0,.61-.5,1.11-1.11,1.11h-32c-.61,0-1.11-.5-1.11-1.11s.5-1.11,1.11-1.11h32c.61,0,1.11.5,1.11,1.11Z"/>
      <path class="cls-2" d="M99.79,54.82c0,.61-.5,1.11-1.11,1.11H29.61c-.61,0-1.11-.5-1.11-1.11s.5-1.11,1.11-1.11h69.07c.61,0,1.11.5,1.11,1.11Z"/>
      <path class="cls-2" d="M99.79,67.86c0,.61-.5,1.11-1.11,1.11H24c-.61,0-1.11-.5-1.11-1.11s.5-1.11,1.11-1.11h74.68c.61,0,1.11.5,1.11,1.11Z"/>
      <path class="cls-2" d="M110.46,19.26v60.92c0,2.57-2.1,4.67-4.67,4.67h-14.54v24.49c0,.3-.12.58-.33.79-.21.21-.49.32-.79.32s-.58-.12-.78-.32l-25.28-25.28H16.89c-2.57,0-4.67-2.1-4.67-4.67v-13.51c0-.61.5-1.11,1.11-1.11s1.11.5,1.11,1.11v13.51c0,1.34,1.1,2.44,2.44,2.44h47.65c.3,0,.58.12.78.33l23.71,23.71v-22.92c0-.61.5-1.11,1.11-1.11h15.65c1.34,0,2.44-1.1,2.44-2.44V19.26c0-1.34-1.1-2.44-2.44-2.44h-39.12c-.61,0-1.11-.5-1.11-1.11s.5-1.11,1.11-1.11h39.11c2.57,0,4.67,2.1,4.67,4.67Z"/>
    </g>
  </g>
</svg>