<?xml version="1.0" encoding="UTF-8"?>
<svg id="Layer_2" data-name="Layer 2" xmlns="http://www.w3.org/2000/svg" viewBox="0 0 18.28 23.4">
  <defs>
    <style>
      .cls-1 {
        fill: #0c9ffa;
        stroke-width: 0px;
      }
    </style>
  </defs>
  <g id="Layer_1-2" data-name="Layer 1">
    <g>
      <path class="cls-1" d="M15.45,8.89c0-.88-.51-1.79-1.22-2.25.11-.64-.08-1.27-.53-1.73-.44-.44-1.05-.66-1.65-.61-.06-.25-.19-.48-.37-.67-.48-.53-1.34-.8-2.54-.8-.92,0-1.81.19-2.64.58-.23.11-.33.38-.22.61s.38.33.61.22c.57-.26,1.18-.42,1.8-.48v13.69h-1.31c-.19-1.67-1.35-3.34-2.39-4.84-.1-.14-.2-.29-.3-.43-.62-.9-.95-1.96-.95-3.05,0-.79.17-1.55.49-2.26.11-.23,0-.5-.22-.61-.23-.11-.5,0-.61.22-.38.83-.58,1.72-.58,2.64,0,1.28.38,2.52,1.11,3.57.1.14.2.29.3.43.97,1.4,2.06,2.97,2.23,4.4-.31.15-.53.46-.53.83v1.37c0,.34.18.63.46.79v1.49c0,.76.61,1.37,1.37,1.37h2.74c.76,0,1.37-.61,1.37-1.37v-1.49c.27-.16.46-.45.46-.79v-1.37c0-.37-.22-.68-.53-.83.06-.54.25-1.11.58-1.77.04-.02.07-.03.11-.05.61-.31,1.12-1.02,1.01-1.98.01,0,.02,0,.03-.01.63-.25,1.09-.79,1.24-1.43.12-.52.03-1.05-.25-1.52.58-.45.92-1.12.92-1.88ZM11.42,18.37v1.37h-4.57v-1.37h4.57ZM10.51,22.48h-2.74c-.25,0-.46-.2-.46-.46v-1.37h3.66v1.37c0,.25-.2.46-.46.46ZM13.67,10.23c-.13.06-.23.18-.25.33-.03.14.02.29.12.4.31.33.44.75.36,1.14-.08.36-.33.64-.68.78-.28.11-.71.18-1,.1-.46-.12-.52-.29-.64-.62-.1-.28-.25-.67-.68-.96-.21-.14-.49-.09-.64.12-.14.21-.09.49.12.64.18.13.24.27.34.53.15.4.35.94,1.26,1.19.17.05.35.07.52.07.04,0,.08,0,.11,0,.03.51-.23.84-.52.98-.27.14-.7.16-.99-.22-.16-.2-.44-.23-.64-.08-.2.16-.23.44-.08.64.26.33.59.54.96.62-.24.56-.38,1.08-.43,1.58h-1.3v-7.48c1.44-.02,1.84-.74,2.12-1.27.14-.27.24-.43.41-.53.22-.12.3-.4.17-.62-.12-.22-.4-.3-.62-.17-.41.23-.6.58-.76.89-.25.45-.43.78-1.32.8V3.76c.67.05,1.16.22,1.41.48.09.1.14.21.17.34-.45.29-.64.67-.78,1.04-.09.24.03.5.27.59.05.02.11.03.16.03.19,0,.36-.11.43-.3.1-.27.21-.49.56-.66.43-.15.92-.03,1.24.29.18.18.44.56.22,1.16-.09.23.03.49.27.58.53.2,1,.94,1,1.58,0,.58-.32,1.08-.86,1.34h0Z"/>
      <path class="cls-1" d="M9.14,1.92c.25,0,.46-.2.46-.46V.46c0-.25-.2-.46-.46-.46s-.46.2-.46.46v1.01c0,.25.2.46.46.46Z"/>
      <path class="cls-1" d="M4.91,2.72c.08.15.24.23.4.23.08,0,.16-.02.23-.06.22-.13.29-.41.17-.62l-.5-.87c-.13-.22-.41-.29-.62-.17-.22.13-.29.41-.17.62l.5.87Z"/>
      <path class="cls-1" d="M1.39,5.19l.87.5c.07.04.15.06.23.06.16,0,.31-.08.4-.23.13-.22.05-.5-.17-.62l-.87-.5c-.22-.13-.5-.05-.62.17s-.05.5.17.62Z"/>
      <path class="cls-1" d="M1.92,9.14c0-.25-.2-.46-.46-.46H.46c-.25,0-.46.2-.46.46s.2.46.46.46h1.01c.25,0,.46-.2.46-.46Z"/>
      <path class="cls-1" d="M2.26,12.58l-.87.5c-.22.13-.29.41-.17.62.08.15.24.23.4.23.08,0,.16-.02.23-.06l.87-.5c.22-.13.29-.41.17-.62-.13-.22-.41-.29-.62-.17Z"/>
      <path class="cls-1" d="M12.75,2.89c.07.04.15.06.23.06.16,0,.31-.08.4-.23l.5-.87c.13-.22.05-.5-.17-.62-.22-.13-.5-.05-.62.17l-.5.87c-.13.22-.05.5.17.62Z"/>
      <path class="cls-1" d="M15.79,5.76c.08,0,.16-.02.23-.06l.87-.5c.22-.13.29-.41.17-.62-.13-.22-.41-.29-.62-.17l-.87.5c-.22.13-.29.41-.17.62.08.15.24.23.4.23Z"/>
      <path class="cls-1" d="M17.82,8.68h-1.01c-.25,0-.46.2-.46.46s.2.46.46.46h1.01c.25,0,.46-.2.46-.46s-.2-.46-.46-.46Z"/>
      <path class="cls-1" d="M16.89,13.09l-.87-.5c-.22-.13-.5-.05-.62.17-.13.22-.05.5.17.62l.87.5c.07.04.15.06.23.06.16,0,.31-.08.4-.23.13-.22.05-.5-.17-.62Z"/>
      <path class="cls-1" d="M5,4.55c-.25,0-.46.2-.46.46s.2.46.46.46.46-.2.46-.46-.2-.46-.46-.46h0Z"/>
    </g>
  </g>
</svg>