<?xml version="1.0" encoding="UTF-8"?>
<svg id="Layer_2" xmlns="http://www.w3.org/2000/svg" viewBox="0 0 27.99 27">
  <g id="Layer_1-2" data-name="Layer_1">
    <g>
      <path class="cls-1" d="M27.75,24.53l-3.24-3.12,1.38-1.33c.43-.42.26-1.12-.32-1.31l-7.62-2.45c-.64-.21-1.25.38-1.04,1l2.54,7.35c.19.56.93.72,1.36.31l1.38-1.33,3.24,3.12c.32.31.84.31,1.16,0l1.16-1.12c.32-.31.32-.81,0-1.12Z"/>
      <path class="cls-1" d="M2.46,0C1.1,0,0,1.06,0,2.37v2.37h18.15V0H2.46Z"/>
      <path class="cls-1" d="M23.89,0h-4.1v4.75h6.56v-2.37c0-1.31-1.1-2.37-2.46-2.37Z"/>
      <path class="cls-1" d="M0,6.33v13.55c0,1.31,1.1,2.37,2.46,2.37h14.43l-1.53-4.44c-.25-.73-.13-1.51.34-2.14.62-.84,1.74-1.2,2.78-.87.46.15,7.44,2.37,7.88,2.57V6.33H0ZM10.12,15.81c0-.44.37-.79.82-.79h1.64c.45,0,.82.35.82.79s-.37.8-.82.8h-1.64c-.45,0-.82-.36-.82-.8ZM13.83,19.4l-1.16,1.12c-.32.31-.84.31-1.16,0s-.32-.81,0-1.12l1.16-1.12c.32-.31.84-.31,1.16,0,.32.31.32.81,0,1.12ZM14.65,14.14c-.32.31-.84.31-1.16,0l-1.16-1.12c-.32-.31-.32-.81,0-1.12s.84-.31,1.16,0l1.16,1.12c.32.31.32.81,0,1.12ZM17.33,12.13c0,.44-.37.79-.82.79s-.82-.35-.82-.79v-1.58c0-.44.37-.79.82-.79s.82.35.82.79v1.58ZM21.27,12.23l-1.16,1.12c-.32.31-.84.31-1.16,0s-.32-.81,0-1.12l1.16-1.12c.32-.31.84-.31,1.16,0s.32.81,0,1.12Z"/>
    </g>
  </g>
</svg>