<?xml version="1.0" encoding="UTF-8"?>
<svg id="Layer_2" data-name="Layer 2" xmlns="http://www.w3.org/2000/svg" viewBox="0 0 41.41 54.57">
  <defs>
    <style>
      .cls-1 {
        fill: #0c9ffa;
      }
    </style>
  </defs>
  <g id="Layer_1-2" data-name="Layer 1">
    <g>
      <path class="cls-1" d="M36.24,21.15v-5.42c0-.13,0-.27,0-.4C36.12,6.75,29.08-.11,20.51,0,11.93.11,5.07,7.15,5.18,15.73v5.42C2.2,21.93,0,24.64,0,27.86v19.76c0,3.83,3.11,6.94,6.94,6.94h27.54c3.83,0,6.93-3.11,6.94-6.94v-19.76c0-3.22-2.2-5.93-5.18-6.71ZM10.34,15.73c0-.11,0-.22,0-.33.09-5.73,4.81-10.3,10.53-10.21,5.73.09,10.3,4.81,10.21,10.53v5.19H10.34v-5.19ZM36.26,47.62c0,.98-.8,1.78-1.78,1.78H6.94c-.98,0-1.78-.8-1.78-1.78v-19.76c0-.99.8-1.78,1.78-1.78h27.54c.98,0,1.78.8,1.78,1.78v19.76Z"/>
      <path class="cls-1" d="M20.71,44.2c-1.42,0-2.58-1.15-2.58-2.58v-7.77c0-1.42,1.15-2.58,2.58-2.58s2.58,1.15,2.58,2.58v7.77c0,1.42-1.15,2.58-2.57,2.58h0,0Z"/>
    </g>
  </g>
</svg>