<?xml version="1.0" encoding="UTF-8"?>
<svg id="Layer_2" xmlns="http://www.w3.org/2000/svg" viewBox="0 0 28.24 28.25">
  <defs>
    <style>
      .cls-1 {
        fill: #fff;
      }
    </style>
  </defs>
  <g id="Layer_1-2" data-name="Layer_1">
    <g>
      <path class="cls-1" d="M0,11.56h21.18c-5.32,0-9.63,4.31-9.63,9.63,0,2.08.68,4.11,1.93,5.78H3.85c-2.13,0-3.85-1.72-3.85-3.85v-11.55Z"/>
      <path class="cls-1" d="M25.67,11.56v1.11c-1.38-.73-2.93-1.11-4.49-1.11h4.49Z"/>
      <path class="cls-1" d="M21.82,1.93v.64c0,2.13-1.72,3.85-3.85,3.85s-3.85-1.72-3.85-3.85v-.64h-2.57v.64c0,2.13-1.72,3.85-3.85,3.85s-3.85-1.72-3.85-3.85v-.64C1.72,1.94,0,3.66,0,5.79v3.21h25.67v-3.21c0-2.13-1.72-3.85-3.85-3.85Z"/>
      <path class="cls-1" d="M19.25,1.29v1.28c0,.71-.58,1.28-1.29,1.27-.7,0-1.27-.57-1.27-1.27v-1.28C16.68.58,17.25,0,17.96,0c.71,0,1.29.57,1.29,1.27,0,0,0,.01,0,.02Z"/>
      <path class="cls-1" d="M8.99,1.29v1.28c0,.71-.58,1.28-1.29,1.27-.7,0-1.27-.57-1.27-1.27v-1.28C6.41.58,6.98,0,7.69,0c.71,0,1.29.57,1.29,1.27,0,0,0,.01,0,.02Z"/>
      <path class="cls-1" d="M21.18,14.13c-3.9,0-7.06,3.16-7.06,7.06s3.16,7.06,7.06,7.06,7.06-3.16,7.06-7.06h0c0-3.9-3.16-7.06-7.06-7.06ZM23.75,22.47h-2.57c-.71,0-1.28-.57-1.28-1.28v-3.85c0-.71.58-1.28,1.29-1.27.7,0,1.27.57,1.27,1.27v2.57h1.28c.71,0,1.29.57,1.29,1.27,0,.71-.57,1.29-1.27,1.29,0,0-.01,0-.02,0Z"/>
    </g>
  </g>
</svg>