<?xml version="1.0" encoding="UTF-8"?>
<svg id="Layer_2" xmlns="http://www.w3.org/2000/svg" viewBox="0 0 54.11 66">
  <defs>
    <style>
      .cls-1 {
        fill: #fff;
      }
    </style>
  </defs>
  <g id="Layer_1-2" data-name="Layer_1">
    <g>
      <path class="cls-1" d="M41.79,8.41s0,.09,0,.14c-.02.78-.42,1.55-1.19,1.99L3.54,31.68C1.96,32.58,0,31.44,0,29.62v-11.33C0,17.45.44,16.68,1.16,16.25L28.1.33c.34-.2.71-.31,1.09-.33.07,0,.13,0,.2,0h.01c.39.02.77.13,1.12.34l10.12,6.12c.74.45,1.12,1.19,1.14,1.95h0Z"/>
      <path class="cls-1" d="M54.11,25.09v.14c-.02.77-.41,1.53-1.17,1.98L15.54,49.12c-.72.42-1.17,1.2-1.17,2.04v3.61c0,1.81-1.96,2.95-3.53,2.06l-9.64-5.47c-.74-.42-1.2-1.21-1.2-2.06v-6.73c0-.84.45-1.62,1.17-2.04l39.66-23.17c.47-.27,1-.37,1.52-.3h0c.3.04.6.15.87.31l9.72,5.77c.75.44,1.13,1.2,1.16,1.96h0Z"/>
      <path class="cls-1" d="M54.05,49.53s0,.09,0,.14c-.02.77-.41,1.54-1.17,1.98l-24.02,14.03c-.7.41-1.57.43-2.29.05l-4.58-2.41c-.78-.41-1.27-1.21-1.27-2.09v-6.51c0-.85.46-1.64,1.2-2.06l18.86-10.71c.41-.23.88-.34,1.34-.3.02,0,.04,0,.06,0,.33.03.65.13.95.3l9.73,5.6c.77.44,1.16,1.2,1.19,1.97h0Z"/>
    </g>
  </g>
</svg>