<?xml version="1.0" encoding="UTF-8"?>
<svg id="Layer_2" xmlns="http://www.w3.org/2000/svg" viewBox="0 0 20.87 22">
  <g id="Layer_1-2" data-name="Layer_1">
    <g class="cls-1">
      <path class="cls-2" d="M12.27,5.45c-.23,0-.42.19-.42.42v3.9c0,.23.19.42.42.42s.42-.19.42-.42v-3.94c-.04-.23-.19-.38-.42-.38ZM16.4,5.45c-.23,0-.42.19-.42.42v3.9c0,.23.19.42.42.42s.42-.19.42-.42v-3.94c-.04-.23-.19-.38-.42-.38ZM16.4,5.45c-.23,0-.42.19-.42.42v3.9c0,.23.19.42.42.42s.42-.19.42-.42v-3.94c-.04-.23-.19-.38-.42-.38ZM12.27,5.45c-.23,0-.42.19-.42.42v3.9c0,.23.19.42.42.42s.42-.19.42-.42v-3.94c-.04-.23-.19-.38-.42-.38ZM20.6,2.57c-.19-.23-.49-.34-.76-.34H4.32l-.11-1.17c-.04-.61-.57-1.06-1.17-1.06H.38c-.19,0-.38.19-.38.38s.19.38.38.38h2.65c.19,0,.38.15.42.38l.95,11.47h-.68c-1.48,0-2.65,1.17-2.65,2.65s1.17,2.65,2.65,2.65h1.86c-.42.42-.64,1.02-.64,1.67,0,1.33,1.1,2.42,2.42,2.42s2.42-1.1,2.42-2.42c0-.64-.27-1.21-.64-1.67h6.32c-.42.42-.64,1.02-.64,1.67,0,1.33,1.06,2.42,2.42,2.42s2.42-1.1,2.42-2.42-1.06-2.42-2.42-2.42H3.75c-1.06,0-1.89-.87-1.89-1.89s.83-1.89,1.89-1.89h15.18c.53,0,.98-.42,1.02-.95l.91-9.05c.04-.3-.08-.61-.27-.8ZM9.28,9.73c0,.64-.53,1.17-1.17,1.17s-1.17-.53-1.17-1.17v-3.9c0-.64.53-1.17,1.17-1.17s1.17.53,1.17,1.17v3.9ZM13.4,9.73c0,.64-.53,1.17-1.17,1.17s-1.17-.53-1.17-1.17v-3.9c0-.64.53-1.17,1.17-1.17s1.17.53,1.17,1.17v3.9ZM17.53,9.73c0,.64-.53,1.17-1.17,1.17s-1.17-.53-1.17-1.17v-3.9c0-.64.53-1.17,1.17-1.17s1.17.53,1.17,1.17v3.9ZM16.4,5.45c-.23,0-.42.19-.42.42v3.9c0,.23.19.42.42.42s.42-.19.42-.42v-3.94c-.04-.23-.19-.38-.42-.38ZM12.27,5.45c-.23,0-.42.19-.42.42v3.9c0,.23.19.42.42.42s.42-.19.42-.42v-3.94c-.04-.23-.19-.38-.42-.38ZM8.14,5.45c-.23,0-.42.19-.42.42v3.9c0,.23.19.42.42.42s.42-.19.42-.42v-3.94c-.04-.23-.19-.38-.42-.38ZM16.4,5.45c-.23,0-.42.19-.42.42v3.9c0,.23.19.42.42.42s.42-.19.42-.42v-3.94c-.04-.23-.19-.38-.42-.38ZM16.4,5.45c-.23,0-.42.19-.42.42v3.9c0,.23.19.42.42.42s.42-.19.42-.42v-3.94c-.04-.23-.19-.38-.42-.38Z"/>
    </g>
  </g>
</svg>