<?xml version="1.0" encoding="UTF-8"?>
<svg id="Layer_2" xmlns="http://www.w3.org/2000/svg" xmlns:xlink="http://www.w3.org/1999/xlink" viewBox="0 0 214.67 55.56">
  <defs>
    <style>
      .cls-1 {
        fill: #606060;
        font-family: Gilroy-Medium, Gilroy-Medium;
        font-size: 13.88px;
        font-weight: 500;
      }

      .cls-2 {
        letter-spacing: 0em;
      }

      .cls-3 {
        fill: url(#linear-gradient-2);
      }

      .cls-4 {
        letter-spacing: .01em;
      }

      .cls-5 {
        letter-spacing: 0em;
      }

      .cls-6 {
        letter-spacing: -.03em;
      }

      .cls-7 {
        fill: #07090a;
      }

      .cls-8 {
        letter-spacing: -.02em;
      }

      .cls-9 {
        fill: url(#linear-gradient-3);
      }

      .cls-10 {
        letter-spacing: -.03em;
      }

      .cls-11 {
        letter-spacing: 0em;
      }

      .cls-12 {
        fill: url(#linear-gradient);
      }
    </style>
    <linearGradient id="linear-gradient" x1="0" y1="-442" x2="35.19" y2="-442" gradientTransform="translate(0 -428.53) scale(1 -1)" gradientUnits="userSpaceOnUse">
      <stop offset="0" stop-color="#4878bc"/>
      <stop offset="1" stop-color="#41c7f2"/>
    </linearGradient>
    <linearGradient id="linear-gradient-2" x1="0" y1="-459.75" x2="45.55" y2="-459.75" xlink:href="#linear-gradient"/>
    <linearGradient id="linear-gradient-3" x1="17.45" y1="-473.84" x2="45.5" y2="-473.84" xlink:href="#linear-gradient"/>
  </defs>
  <g id="Layer_1-2" data-name="Layer_1">
    <g>
      <g>
        <path class="cls-12" d="M35.18,7.08s0,.08,0,.11c-.02.66-.35,1.31-1,1.68L2.98,26.67C1.65,27.43,0,26.47,0,24.94v-9.54C0,14.69.37,14.04.98,13.68L23.66.28c.29-.17.6-.26.92-.28.06,0,.11,0,.17,0h.01c.33.01.65.11.94.29l8.52,5.15c.62.38.94,1.01.96,1.64h0Z"/>
        <path class="cls-3" d="M45.55,21.12v.11c-.02.65-.34,1.29-.98,1.67l-31.48,18.45c-.61.36-.98,1.01-.98,1.72v3.04c0,1.53-1.65,2.49-2.97,1.73l-8.12-4.61c-.62-.35-1.01-1.02-1.01-1.73v-5.66c0-.71.38-1.36.99-1.72L34.37,14.61c.39-.23.84-.31,1.28-.25h0c.26.04.51.12.74.26l8.19,4.85c.63.37.95,1.01.97,1.65h0Z"/>
        <path class="cls-9" d="M45.5,41.69s0,.08,0,.12c-.02.65-.34,1.29-.99,1.67l-20.22,11.81c-.59.35-1.32.36-1.93.04l-3.86-2.03c-.65-.34-1.06-1.02-1.06-1.76v-5.48c0-.72.38-1.38,1.01-1.73l15.88-9.02c.35-.2.74-.28,1.12-.25.02,0,.03,0,.05,0,.28.03.55.11.8.26l8.2,4.71c.64.37.98,1.01,1,1.66h0Z"/>
      </g>
      <g>
        <g>
          <path class="cls-7" d="M71.03,33.31c-3.55,0-6.49-1.18-8.84-3.55-2.35-2.36-3.52-5.3-3.52-8.82s1.17-6.45,3.52-8.82c2.35-2.36,5.26-3.55,8.75-3.55s6.06,1.1,8.12,3.31,3.17,5.22,3.33,9.06v1.44h-18.26c.26,1.69,1.02,3.07,2.3,4.12,1.28,1.05,2.81,1.58,4.6,1.58,2.52,0,4.6-.91,6.23-2.73l3.55,3.79c-1.09,1.25-2.48,2.25-4.17,3.02-1.69.77-3.56,1.15-5.61,1.15h0ZM70.55,13.42c-1.44,0-2.74.44-3.91,1.32-1.17.88-1.96,2.07-2.37,3.57h12.32c-.64-3.26-2.65-4.89-6.04-4.89h0Z"/>
          <path class="cls-7" d="M115.56,32.93v-13.95c0-1.44-.42-2.69-1.27-3.76-.85-1.07-2.07-1.61-3.67-1.61-2.49,0-4.23,1.39-5.22,4.17.03.26.05.62.05,1.1v14.04h-5.27v-13.95c0-1.44-.43-2.69-1.29-3.76s-2.09-1.61-3.69-1.61c-2.49,0-4.22,1.36-5.18,4.07v15.24h-5.27V8.97h5.27v2.25c1.56-1.76,3.63-2.64,6.18-2.64,3.29,0,5.78,1.23,7.48,3.69,1.85-2.46,4.49-3.69,7.91-3.69,2.91,0,5.18.93,6.81,2.8,1.63,1.87,2.44,4.37,2.44,7.5v14.04h-5.27,0Z"/>
          <path class="cls-7" d="M144.98,29.77c-2.36,2.36-5.32,3.55-8.87,3.55s-6.5-1.18-8.87-3.55c-2.36-2.36-3.55-5.3-3.55-8.82s1.18-6.45,3.55-8.82c2.36-2.36,5.32-3.55,8.87-3.55s6.5,1.18,8.87,3.55c2.36,2.36,3.55,5.3,3.55,8.82s-1.18,6.45-3.55,8.82ZM136.12,28.28c2.01,0,3.68-.7,5.01-2.09,1.33-1.39,1.99-3.14,1.99-5.25s-.66-3.86-1.99-5.25c-1.33-1.39-3-2.09-5.01-2.09s-3.72.7-5.03,2.09-1.97,3.14-1.97,5.25.65,3.86,1.97,5.25c1.31,1.39,2.99,2.09,5.03,2.09Z"/>
          <path class="cls-7" d="M161.04,33.31l-13.13-24.35h5.94l7.19,14.09,7.09-14.09h6.04l-13.13,24.35h0Z"/>
          <path class="cls-7" d="M192.38,32.93v-2.2c-1.6,1.73-3.83,2.59-6.71,2.59s-5.34-.94-7.09-2.83c-1.76-1.88-2.64-4.38-2.64-7.48v-14.04h5.27v13.95c0,1.41.49,2.65,1.49,3.74.99,1.09,2.32,1.63,3.98,1.63,2.81,0,4.71-1.36,5.7-4.07v-15.24h5.27v23.96h-5.27,0Z"/>
          <path class="cls-7" d="M201.49,32.93V8.97h5.27v2.35c1.5-1.79,3.56-2.68,6.18-2.68.61,0,1.18.05,1.73.14v5.51c-.67-.22-1.55-.34-2.64-.34-2.52,0-4.28.96-5.27,2.88v16.1h-5.27Z"/>
        </g>
        <text class="cls-1" transform="translate(59.06 50.56)"><tspan class="cls-8" x="0" y="0">W</tspan><tspan x="13.6" y="0">ha</tspan><tspan class="cls-10" x="30.21" y="0">t</tspan><tspan class="cls-5" x="35.08" y="0">sApp </tspan><tspan class="cls-4" x="71.4" y="0">B</tspan><tspan class="cls-11" x="80.09" y="0">u</tspan><tspan class="cls-6" x="87.9" y="0">s</tspan><tspan class="cls-2" x="93.83" y="0">s</tspan><tspan x="100.11" y="0">in</tspan><tspan class="cls-8" x="110.99" y="0">e</tspan><tspan class="cls-6" x="118.8" y="0">s</tspan><tspan x="124.73" y="0">s API</tspan></text>
      </g>
    </g>
  </g>
</svg>