<?xml version="1.0" encoding="UTF-8"?>
<svg xmlns="http://www.w3.org/2000/svg" version="1.1" xmlns:xlink="http://www.w3.org/1999/xlink" viewBox="0 0 214.7 55.6">
  <defs>
    <style>
      .cls-1 {
        fill: url(#linear-gradient-2);
      }

      .cls-2 {
        fill: #07090a;
      }

      .cls-3 {
        fill: #606060;
      }

      .cls-4 {
        fill: url(#linear-gradient-3);
      }

      .cls-5 {
        isolation: isolate;
      }

      .cls-6 {
        fill: url(#linear-gradient);
      }
    </style>
    <linearGradient id="linear-gradient" x1="0" y1="1522" x2="35.2" y2="1522" gradientTransform="translate(0 -1508.5)" gradientUnits="userSpaceOnUse">
      <stop offset="0" stop-color="#4878bc"/>
      <stop offset="1" stop-color="#41c7f2"/>
    </linearGradient>
    <linearGradient id="linear-gradient-2" x1="0" y1="1539.8" x2="45.5" y2="1539.8" gradientTransform="translate(0 -1508.5)" gradientUnits="userSpaceOnUse">
      <stop offset="0" stop-color="#4878bc"/>
      <stop offset="1" stop-color="#41c7f2"/>
    </linearGradient>
    <linearGradient id="linear-gradient-3" x1="17.4" y1="1553.8" x2="45.5" y2="1553.8" gradientTransform="translate(0 -1508.5)" gradientUnits="userSpaceOnUse">
      <stop offset="0" stop-color="#4878bc"/>
      <stop offset="1" stop-color="#41c7f2"/>
    </linearGradient>
  </defs>
  <!-- Generator: Adobe Illustrator 28.6.0, SVG Export Plug-In . SVG Version: 1.2.0 Build 709)  -->
  <g>
    <g id="Layer_2">
      <g>
        <g>
          <path class="cls-6" d="M35.2,7.1h0c0,.8-.3,1.4-1,1.8L3,26.7c-1.3.8-3-.2-3-1.7v-9.5c0-.7.4-1.4,1-1.7L23.7.3c.3-.2.6-.3.9-.3h.2c.3,0,.6.1.9.3l8.5,5.2c.6.4.9,1,1,1.6h0Z"/>
          <path class="cls-1" d="M45.5,21.1h0c0,.8-.3,1.4-1,1.8l-31.5,18.5c-.6.4-1,1-1,1.7v3c0,1.5-1.6,2.5-3,1.7l-8.1-4.6c-.6-.3-1-1-1-1.7v-5.7c0-.7.4-1.4,1-1.7L34.4,14.6c.4-.2.8-.3,1.3-.2h0c.3,0,.5.1.7.3l8.2,4.8c.6.4,1,1,1,1.6h0Z"/>
          <path class="cls-4" d="M45.5,41.7h0c0,.8-.3,1.4-1,1.8l-20.2,11.8c-.6.3-1.3.4-1.9,0l-3.9-2c-.6-.3-1.1-1-1.1-1.8v-5.5c0-.7.4-1.4,1-1.7l15.9-9c.3-.2.7-.3,1.1-.2h0c.3,0,.5.1.8.3l8.2,4.7c.6.4,1,1,1,1.7h0Z"/>
        </g>
        <g>
          <path class="cls-2" d="M71,33.3c-3.6,0-6.5-1.2-8.8-3.5-2.3-2.4-3.5-5.3-3.5-8.8s1.2-6.4,3.5-8.8c2.4-2.4,5.3-3.6,8.8-3.6s6.1,1.1,8.1,3.3,3.2,5.2,3.3,9.1v1.4h-18.3c.3,1.7,1,3.1,2.3,4.1,1.3,1,2.8,1.6,4.6,1.6s4.6-.9,6.2-2.7l3.6,3.8c-1.1,1.2-2.5,2.2-4.2,3-1.7.8-3.6,1.2-5.6,1.2h0ZM70.6,13.4c-1.4,0-2.7.4-3.9,1.3-1.2.9-2,2.1-2.4,3.6h12.3c-.6-3.3-2.7-4.9-6-4.9h0Z"/>
          <path class="cls-2" d="M115.6,32.9v-14c0-1.4-.4-2.7-1.3-3.8s-2.1-1.6-3.7-1.6c-2.5,0-4.2,1.4-5.2,4.2,0,.3,0,.6,0,1.1v14h-5.3v-14c0-1.4-.4-2.7-1.3-3.8s-2.1-1.6-3.7-1.6c-2.5,0-4.2,1.4-5.2,4.1v15.2h-5.3V9h5.3v2.2c1.6-1.8,3.6-2.6,6.2-2.6s5.8,1.2,7.5,3.7c1.8-2.5,4.5-3.7,7.9-3.7s5.2.9,6.8,2.8,2.4,4.4,2.4,7.5v14h-5.3Z"/>
          <path class="cls-2" d="M145,29.8c-2.4,2.4-5.3,3.5-8.9,3.5s-6.5-1.2-8.9-3.5c-2.4-2.4-3.6-5.3-3.6-8.8s1.2-6.4,3.6-8.8c2.4-2.4,5.3-3.6,8.9-3.6s6.5,1.2,8.9,3.6c2.4,2.4,3.6,5.3,3.6,8.8s-1.2,6.5-3.6,8.8ZM136.1,28.3c2,0,3.7-.7,5-2.1s2-3.1,2-5.2-.7-3.9-2-5.2c-1.3-1.4-3-2.1-5-2.1s-3.7.7-5,2.1c-1.3,1.4-2,3.1-2,5.2s.6,3.9,2,5.2c1.3,1.4,3,2.1,5,2.1Z"/>
          <path class="cls-2" d="M161,33.3l-13.1-24.4h5.9l7.2,14.1,7.1-14.1h6l-13.1,24.4h0Z"/>
          <path class="cls-2" d="M192.4,32.9v-2.2c-1.6,1.7-3.8,2.6-6.7,2.6s-5.3-.9-7.1-2.8c-1.8-1.9-2.6-4.4-2.6-7.5v-14h5.3v13.9c0,1.4.5,2.6,1.5,3.7,1,1.1,2.3,1.6,4,1.6,2.8,0,4.7-1.4,5.7-4.1v-15.2h5.3v24h-5.3Z"/>
          <path class="cls-2" d="M201.5,32.9V9h5.3v2.3c1.5-1.8,3.6-2.7,6.2-2.7s1.2,0,1.7.1v5.5c-.7-.2-1.6-.3-2.6-.3-2.5,0-4.3,1-5.3,2.9v16.1h-5.3,0Z"/>
        </g>
        <g class="cls-5">
          <g class="cls-5">
            <path class="cls-3" d="M62,50.6l-2.6-9.7h1.7l2,7.6,2.2-7.6h1.5l2.2,7.6,2-7.6h1.6l-2.6,9.7h-1.8l-2.1-7.1-2.1,7.1h-1.9Z"/>
          </g>
          <g class="cls-5">
            <path class="cls-3" d="M77.2,43.4c.8,0,1.4.3,1.9.8s.7,1.2.7,2.1v4.3h-1.5v-4.1c0-.5-.1-.9-.4-1.2-.3-.3-.7-.4-1.1-.4s-1,.2-1.3.5c-.3.3-.5.8-.5,1.5v3.7h-1.5v-9.7h1.5v3.7c.5-.7,1.2-1.1,2.2-1.1Z"/>
            <path class="cls-3" d="M87,43.6h1.5v6.9h-1.5v-1c-.6.8-1.4,1.2-2.4,1.2s-1.8-.4-2.4-1.1c-.7-.7-1-1.6-1-2.6s.3-1.9,1-2.6c.7-.7,1.5-1.1,2.4-1.1s1.9.4,2.4,1.2v-1ZM83.2,48.7c.4.4.9.6,1.6.6s1.2-.2,1.6-.6c.4-.4.6-1,.6-1.6s-.2-1.2-.6-1.6c-.4-.4-.9-.6-1.6-.6s-1.2.2-1.6.6c-.4.4-.6,1-.6,1.6s.2,1.2.6,1.6Z"/>
          </g>
          <g class="cls-5">
            <path class="cls-3" d="M94,45.1h-1.7v3.3c0,.3,0,.5.2.6.1.1.3.2.6.2.3,0,.6,0,1,0v1.3c-1.1.1-2,0-2.5-.3s-.7-1-.7-1.9v-3.3h-1.3v-1.4h1.3v-1.5l1.5-.4v1.9h1.7v1.4Z"/>
          </g>
          <g class="cls-5">
            <path class="cls-3" d="M96.4,45.5c0,.2.1.4.4.5.3.1.6.3.9.4.4.1.7.2,1.1.3.4.1.7.3.9.6.3.3.4.7.4,1.2s-.3,1.2-.8,1.6-1.2.6-1.9.6-1.3-.1-1.8-.4c-.5-.3-.8-.7-1.1-1.2l1.3-.8c.2.7.8,1,1.5,1s1.2-.3,1.2-.8-.1-.4-.4-.5-.6-.3-.9-.4c-.4-.1-.7-.2-1.1-.3-.4-.1-.7-.3-.9-.6s-.4-.7-.4-1.1.2-1.2.7-1.5,1.1-.6,1.8-.6,1.1.1,1.5.4c.4.3.8.6,1,1.1l-1.3.7c-.2-.5-.7-.8-1.3-.8s-.5,0-.7.2-.3.3-.3.5Z"/>
            <path class="cls-3" d="M107.8,50.6l-.7-2h-4.1l-.7,2h-1.7l3.5-9.7h1.9l3.5,9.7h-1.7ZM103.6,47.1h3.1l-1.5-4.4-1.5,4.4Z"/>
            <path class="cls-3" d="M114.4,43.4c1,0,1.8.4,2.4,1.1.7.7,1,1.6,1,2.6s-.3,1.9-1,2.6c-.7.7-1.5,1.1-2.4,1.1s-1.9-.4-2.4-1.2v3.8h-1.5v-9.7h1.5v1c.6-.8,1.4-1.2,2.4-1.2ZM112.6,48.7c.4.4.9.6,1.6.6s1.2-.2,1.6-.6c.4-.4.6-1,.6-1.6s-.2-1.2-.6-1.6c-.4-.4-.9-.6-1.6-.6s-1.2.2-1.6.6c-.4.4-.6,1-.6,1.6s.2,1.2.6,1.6Z"/>
            <path class="cls-3" d="M123.2,43.4c1,0,1.8.4,2.4,1.1.7.7,1,1.6,1,2.6s-.3,1.9-1,2.6c-.7.7-1.5,1.1-2.4,1.1s-1.9-.4-2.4-1.2v3.8h-1.5v-9.7h1.5v1c.6-.8,1.4-1.2,2.4-1.2ZM121.4,48.7c.4.4.9.6,1.6.6s1.2-.2,1.6-.6c.4-.4.6-1,.6-1.6s-.2-1.2-.6-1.6c-.4-.4-.9-.6-1.6-.6s-1.2.2-1.6.6c-.4.4-.6,1-.6,1.6s.2,1.2.6,1.6Z"/>
          </g>
          <g class="cls-5">
            <path class="cls-3" d="M137.2,45.5c.4.2.8.5,1,.9.2.4.4.8.4,1.3,0,.8-.3,1.5-.8,2s-1.3.8-2.1.8h-4.2v-9.7h3.9c.8,0,1.5.3,2,.8.6.5.8,1.2.8,1.9s-.3,1.5-1,2ZM135.3,42.3h-2.3v2.6h2.3c.4,0,.6-.1.9-.4s.4-.5.4-.9-.1-.7-.4-.9c-.2-.2-.5-.4-.9-.4ZM135.6,49.1c.4,0,.7-.1.9-.4.3-.3.4-.6.4-1s-.1-.7-.4-1c-.3-.3-.6-.4-.9-.4h-2.6v2.7h2.6Z"/>
          </g>
          <g class="cls-5">
            <path class="cls-3" d="M144.7,43.6h1.5v6.9h-1.5v-.9c-.5.7-1.2,1.1-2.2,1.1s-1.4-.3-1.9-.8c-.5-.5-.7-1.2-.7-2.1v-4.3h1.5v4.1c0,.5.1.9.4,1.2.3.3.7.4,1.1.4s1-.2,1.3-.5c.3-.3.5-.8.5-1.5v-3.7Z"/>
          </g>
          <g class="cls-5">
            <path class="cls-3" d="M149.2,45.5c0,.2.1.4.4.5.3.1.6.3.9.4.4.1.7.2,1.1.3.4.1.7.3.9.6.3.3.4.7.4,1.2s-.3,1.2-.8,1.6-1.2.6-1.9.6-1.3-.1-1.8-.4-.8-.7-1.1-1.2l1.3-.8c.2.7.8,1,1.5,1s1.2-.3,1.2-.8-.1-.4-.4-.5c-.3-.1-.6-.3-.9-.4-.4-.1-.7-.2-1.1-.3-.4-.1-.7-.3-.9-.6-.3-.3-.4-.7-.4-1.1s.2-1.2.7-1.5c.5-.4,1.1-.6,1.8-.6s1.1.1,1.5.4c.4.3.8.6,1,1.1l-1.3.7c-.2-.5-.7-.8-1.3-.8s-.5,0-.7.2-.3.3-.3.5Z"/>
          </g>
          <g class="cls-5">
            <path class="cls-3" d="M155.1,45.5c0,.2.1.4.4.5.3.1.6.3.9.4.4.1.7.2,1.1.3.4.1.7.3.9.6.3.3.4.7.4,1.2s-.3,1.2-.8,1.6-1.2.6-1.9.6-1.3-.1-1.8-.4-.8-.7-1.1-1.2l1.3-.8c.2.7.8,1,1.5,1s1.2-.3,1.2-.8-.1-.4-.4-.5c-.3-.1-.6-.3-.9-.4-.4-.1-.7-.2-1.1-.3-.4-.1-.7-.3-.9-.6-.3-.3-.4-.7-.4-1.1s.2-1.2.7-1.5c.5-.4,1.1-.6,1.8-.6s1.1.1,1.5.4c.4.3.8.6,1,1.1l-1.3.7c-.2-.5-.7-.8-1.3-.8s-.5,0-.7.2-.3.3-.3.5Z"/>
          </g>
          <g class="cls-5">
            <path class="cls-3" d="M161.5,42.3c-.2.2-.4.3-.7.3s-.5,0-.7-.3-.3-.4-.3-.7,0-.5.3-.7c.2-.2.4-.3.7-.3s.5,0,.7.3c.2.2.3.4.3.7s0,.5-.3.7ZM160,50.6v-6.9h1.5v6.9h-1.5Z"/>
            <path class="cls-3" d="M166.9,43.4c.8,0,1.4.3,1.9.8s.7,1.2.7,2.1v4.3h-1.5v-4.1c0-.5-.1-.9-.4-1.2-.3-.3-.7-.4-1.1-.4s-1,.2-1.3.5c-.3.3-.5.8-.5,1.5v3.7h-1.5v-6.9h1.5v.9c.5-.7,1.2-1.1,2.2-1.1Z"/>
          </g>
          <g class="cls-5">
            <path class="cls-3" d="M172.1,47.7c.1.5.4.9.8,1.2.4.3.9.4,1.5.4s1.4-.3,1.8-.9l1.2.7c-.7,1-1.7,1.5-3,1.5s-2-.3-2.7-1c-.7-.7-1-1.6-1-2.6s.3-1.9,1-2.6c.7-.7,1.6-1,2.6-1s1.9.4,2.5,1.1c.7.7,1,1.6,1,2.6s0,.4,0,.6h-5.5ZM172.1,46.5h4.1c-.1-.6-.3-1-.7-1.3-.4-.3-.8-.4-1.3-.4s-1,.2-1.4.5-.6.7-.7,1.2Z"/>
          </g>
          <g class="cls-5">
            <path class="cls-3" d="M180.1,45.5c0,.2.1.4.4.5.3.1.6.3.9.4.4.1.7.2,1.1.3.4.1.7.3.9.6.3.3.4.7.4,1.2s-.3,1.2-.8,1.6-1.2.6-1.9.6-1.3-.1-1.8-.4c-.5-.3-.8-.7-1.1-1.2l1.3-.8c.2.7.8,1,1.5,1s1.2-.3,1.2-.8-.1-.4-.4-.5c-.3-.1-.6-.3-.9-.4-.4-.1-.7-.2-1.1-.3-.4-.1-.7-.3-.9-.6-.3-.3-.4-.7-.4-1.1s.2-1.2.7-1.5c.5-.4,1.1-.6,1.8-.6s1.1.1,1.5.4c.4.3.8.6,1,1.1l-1.3.7c-.2-.5-.7-.8-1.3-.8s-.5,0-.7.2-.3.3-.3.5Z"/>
          </g>
          <g class="cls-5">
            <path class="cls-3" d="M186,45.5c0,.2.1.4.4.5.3.1.6.3.9.4.4.1.7.2,1.1.3.4.1.7.3.9.6.3.3.4.7.4,1.2s-.3,1.2-.8,1.6-1.2.6-1.9.6-1.3-.1-1.8-.4-.8-.7-1.1-1.2l1.3-.8c.2.7.8,1,1.5,1s1.2-.3,1.2-.8-.1-.4-.4-.5-.6-.3-.9-.4c-.4-.1-.7-.2-1.1-.3-.4-.1-.7-.3-.9-.6-.3-.3-.4-.7-.4-1.1s.2-1.2.7-1.5,1.1-.6,1.8-.6,1.1.1,1.5.4c.4.3.8.6,1,1.1l-1.3.7c-.2-.5-.7-.8-1.3-.8s-.5,0-.7.2c-.2.1-.3.3-.3.5Z"/>
            <path class="cls-3" d="M201,50.6l-.7-2h-4.1l-.7,2h-1.7l3.5-9.7h1.9l3.5,9.7h-1.7ZM196.7,47.1h3.1l-1.5-4.4-1.5,4.4Z"/>
            <path class="cls-3" d="M207.3,40.8c.9,0,1.7.3,2.3.9.6.6.9,1.4.9,2.3s-.3,1.7-.9,2.3-1.4.9-2.3.9h-2v3.3h-1.6v-9.7h3.6ZM207.3,45.7c.5,0,.9-.2,1.2-.5.3-.3.5-.7.5-1.2s-.2-.9-.5-1.2c-.3-.3-.7-.5-1.2-.5h-2v3.4h2Z"/>
            <path class="cls-3" d="M211.9,40.8h1.6v9.7h-1.6v-9.7Z"/>
          </g>
        </g>
      </g>
    </g>
  </g>
</svg>