<svg width="33" height="30" viewBox="0 0 33 30" fill="none" xmlns="http://www.w3.org/2000/svg">
<g clip-path="url(#clip0_2495_334)">
<path d="M30.3826 2.93684C29.5442 2.00305 28.5235 1.25925 27.3863 0.753437C26.2492 0.247626 25.0209 -0.00895932 23.7807 0.000238831C21.8999 -0.00822098 20.0721 0.636561 18.5969 1.82887C17.7966 2.46805 17.0904 3.22147 16.5 4.06601C15.9096 3.22147 15.2034 2.46805 14.4031 1.82887C12.9279 0.636561 11.1001 -0.00822098 9.21926 0.000238831C7.97941 -0.00868943 6.75149 0.248026 5.6147 0.753829C4.47792 1.25963 3.4575 2.00329 2.61926 2.93684C0.929657 4.8175 0 7.36295 0 10.1338C0 12.9857 1.04091 15.5966 3.2736 18.3502C5.28 20.8108 8.14063 23.3158 11.467 26.2062C12.5985 27.1947 13.8883 28.3258 15.2234 29.5089C15.5766 29.8244 16.0299 29.9982 16.4991 29.9982C16.9682 29.9982 17.4215 29.8244 17.7747 29.5089C19.1117 28.3161 20.3997 27.1966 21.5349 26.2062C24.8594 23.3158 27.7294 20.8108 29.7264 18.3482C31.961 15.5966 33 12.9857 33 10.1338C33 7.36295 32.0703 4.8175 30.3826 2.93684Z" fill="#FC4C59"/>
</g>
<defs>
<clipPath id="clip0_2495_334">
<rect width="33" height="30" fill="white"/>
</clipPath>
</defs>
</svg>
