<?xml version="1.0" encoding="UTF-8"?>
<svg id="Layer_2" data-name="Layer 2" xmlns="http://www.w3.org/2000/svg" viewBox="0 0 21.4 21.21">
  <defs>
    <style>
      .cls-1 {
        fill: none;
        stroke: #0c9ffa;
        stroke-miterlimit: 10;
      }

      .cls-2 {
        fill: #0c9ffa;
        stroke-width: 0px;
      }
    </style>
  </defs>
  <g id="Layer_1-2" data-name="Layer 1">
    <g>
      <path class="cls-1" d="M11.34.69c.5-.31,1.15-.22,1.54.22.31.35.78.49,1.23.36.57-.16,1.17.11,1.42.65.2.42.61.69,1.08.69.59,0,1.09.44,1.18,1.02.07.46.4.83.84.97.56.17.92.73.84,1.31-.06.46.14.91.53,1.16.49.32.68.96.44,1.49-.19.42-.12.92.18,1.27.38.45.38,1.11,0,1.56-.3.35-.37.85-.18,1.27.24.54.05,1.17-.44,1.49-.39.25-.59.71-.53,1.16.08.58-.28,1.14-.84,1.31-.44.13-.77.51-.84.97-.09.58-.59,1.01-1.18,1.02-.46,0-.88.27-1.08.69-.25.53-.85.81-1.42.65-.44-.13-.92.01-1.23.36-.39.44-1.04.54-1.54.22-.39-.25-.89-.25-1.28,0-.5.31-1.15.22-1.54-.22-.31-.35-.78-.49-1.23-.36-.57.16-1.17-.11-1.42-.65-.2-.42-.61-.69-1.08-.69-.59,0-1.09-.44-1.18-1.02-.07-.46-.4-.83-.84-.97-.56-.17-.92-.73-.84-1.31.06-.46-.14-.91-.53-1.16-.49-.32-.68-.96-.44-1.49.19-.42.12-.92-.18-1.27-.38-.45-.38-1.11,0-1.56.3-.35.37-.85.18-1.27-.24-.54-.05-1.17.44-1.49.39-.25.59-.71.53-1.16-.08-.58.28-1.14.84-1.31.44-.13.77-.51.84-.97.09-.58.59-1.01,1.18-1.02.46,0,.88-.27,1.08-.69.25-.53.85-.81,1.42-.65.44.13.92-.01,1.23-.36.39-.44,1.04-.54,1.54-.22.39.25.89.25,1.28,0h0Z"/>
      <g>
        <path class="cls-2" d="M4.29,9.06v1.4h1.69v.84h-1.69v1.68h-.96v-4.75h3.03v.84h-2.07Z"/>
        <path class="cls-2" d="M7.04,8.22h1.84c1.12,0,1.68.52,1.68,1.56,0,.62-.23,1.08-.7,1.37l.68,1.82h-1.05l-.55-1.59h-.93v1.59h-.96v-4.75h0ZM8.89,10.56c.22,0,.39-.07.5-.21.12-.14.17-.32.17-.56s-.06-.42-.18-.55c-.12-.13-.29-.2-.51-.2h-.88v1.51h.89Z"/>
        <path class="cls-2" d="M12.33,9.06v1.11h1.69v.82h-1.69v1.14h2.11v.84h-3.07v-4.75h3.07v.84h-2.11Z"/>
        <path class="cls-2" d="M16.2,9.06v1.11h1.69v.82h-1.69v1.14h2.11v.84h-3.07v-4.75h3.07v.84h-2.11Z"/>
      </g>
    </g>
  </g>
</svg>