<?xml version="1.0" encoding="UTF-8"?>
<svg id="Layer_1" xmlns="http://www.w3.org/2000/svg" viewBox="0 0 100 100">
  <defs>
    <style>
      .cls-1 {
        fill: #0c9ffa;
      }
    </style>
  </defs>
  <path class="cls-1" d="M72.37,24.25c-.97-2.5-2.81-4.56-5.19-5.78L37.58,3.21c-5.29-2.74-11.81-.67-14.55,4.62-.21.4-.39.81-.54,1.23l-11.58,31.21c-.93,2.51-.91,5.28.06,7.77l16.66,42.98c2.17,5.59,8.45,8.38,14.06,6.26l41.18-15.96c2.69-1.04,4.85-3.11,6-5.76,1.16-2.65,1.22-5.65.17-8.34l-16.66-42.98ZM84.98,73.88c-.7,1.61-2.01,2.88-3.65,3.51l-41.18,15.96c-3.43,1.29-7.26-.43-8.58-3.85L14.91,46.52c-.6-1.53-.61-3.23-.04-4.77l11.58-31.21c1.27-3.41,5.07-5.14,8.48-3.87.24.09.47.19.7.31l29.59,15.25c1.46.75,2.59,2.02,3.19,3.55l16.66,42.98c.65,1.65.61,3.49-.1,5.12Z"/>
  <path class="cls-1" d="M36.06,24.75c1.47-.6,2.18-2.27,1.59-3.75-.58-1.44-2.21-2.16-3.67-1.62-1.47.6-2.18,2.27-1.59,3.75.58,1.44,2.21,2.16,3.67,1.62Z"/>
  <path class="cls-1" d="M64.09,39.82c-.42-1.09-1.65-1.63-2.73-1.21h0s-34.63,13.42-34.63,13.42c-1.09.42-1.64,1.64-1.22,2.73s1.64,1.64,2.73,1.22c0,0,0,0,.01,0l34.63-13.42c1.09-.42,1.63-1.65,1.21-2.74Z"/>
  <path class="cls-1" d="M69.29,53.23c-.42-1.09-1.65-1.63-2.74-1.21l-34.63,13.42c-1.09.42-1.64,1.64-1.22,2.73s1.64,1.64,2.73,1.22c0,0,0,0,.01,0l34.63-13.42c1.09-.42,1.63-1.65,1.21-2.74Z"/>
  <path class="cls-1" d="M71.75,65.43l-34.63,13.42c-1.08.44-1.6,1.68-1.15,2.76.43,1.05,1.62,1.57,2.68,1.18l34.63-13.42c1.08-.44,1.6-1.68,1.16-2.76-.43-1.05-1.62-1.57-2.68-1.19Z"/>
</svg>