<?xml version="1.0" encoding="UTF-8"?>
<svg id="Layer_2" xmlns="http://www.w3.org/2000/svg" viewBox="0 0 270.27 270.27">
  <defs>
    <style>
      .cls-1 {
        fill: #0c9ffa;
      }

      .cls-2 {
        fill: #fff;
      }
    </style>
  </defs>
  <g id="Emovur_Brand">
    <rect class="cls-1" width="270.27" height="270.27"/>
    <g>
      <path class="cls-2" d="M182.27,56.51c0,.15,0,.29,0,.43-.06,2.5-1.34,4.96-3.81,6.37l-118.53,67.6c-5.04,2.87-11.31-.76-11.31-6.57v-36.24c0-2.68,1.41-5.15,3.72-6.51l86.15-50.92c1.08-.64,2.28-.99,3.49-1.05.22,0,.43-.01.65,0h.04c1.24.05,2.48.41,3.58,1.08l32.37,19.58c2.36,1.43,3.57,3.82,3.65,6.24h0Z"/>
      <path class="cls-2" d="M221.65,109.84v.43c-.06,2.47-1.31,4.91-3.74,6.33l-119.59,70.07c-2.32,1.36-3.74,3.84-3.74,6.53v11.54c0,5.8-6.25,9.44-11.3,6.58l-30.83-17.51c-2.37-1.35-3.83-3.86-3.83-6.58v-21.51c0-2.69,1.43-5.18,3.75-6.53l126.81-74.09c1.49-.87,3.2-1.19,4.86-.96h.03c.97.14,1.92.47,2.79.98l31.09,18.44c2.4,1.42,3.63,3.83,3.7,6.27h0Z"/>
      <path class="cls-2" d="M221.46,187.98c0,.15,0,.29,0,.44-.06,2.47-1.31,4.91-3.74,6.33l-76.8,44.88c-2.25,1.31-5.03,1.38-7.34.16l-14.65-7.7c-2.49-1.31-4.05-3.89-4.05-6.7v-20.82c0-2.72,1.46-5.23,3.83-6.58l60.31-34.26c1.32-.75,2.81-1.07,4.27-.97.07,0,.13,0,.19.01,1.05.1,2.09.43,3.04.97l31.13,17.9c2.45,1.41,3.71,3.85,3.79,6.32h0Z"/>
    </g>
  </g>
</svg>