<?xml version="1.0" encoding="UTF-8"?>
<svg id="Layer_1" xmlns="http://www.w3.org/2000/svg" viewBox="0 0 100 100">
  <defs>
    <style>
      .cls-1 {
        fill: #0c9ffa;
      }
    </style>
  </defs>
  <path class="cls-1" d="M68.89,26.25c-1.84-2.99-4.33-5.35-7.4-7-3.05-1.61-6.84-2.43-11.27-2.43s-8.36.93-11.45,2.75c-3.08,1.81-5.6,4.28-7.51,7.33-1.86,2.99-3.19,6.51-3.95,10.46-.22,1.17-.42,2.38-.57,3.59-.13,1.03.55,1.97,1.53,2.11.98.14,1.87-.58,2.01-1.61.15-1.13.32-2.26.53-3.36.67-3.48,1.82-6.56,3.43-9.15,1.59-2.55,3.7-4.6,6.27-6.12,2.55-1.51,5.81-2.27,9.7-2.27s7.12.68,9.65,2.03c2.5,1.35,4.53,3.26,6.02,5.7,1.54,2.51,2.65,5.6,3.3,9.18.68,3.74,1.02,7.92,1.02,12.42,0,4.14-.35,8.09-1.04,11.74-.67,3.54-1.82,6.66-3.44,9.29-1.58,2.57-3.68,4.63-6.26,6.13-2.52,1.49-5.78,2.25-9.7,2.25s-7.2-.66-9.74-1.97c-2.52-1.31-4.46-3.15-5.94-5.62-1.54-2.58-2.65-5.72-3.29-9.32-.26-1.44-.47-2.97-.63-4.54-.1-1.03-.98-1.78-1.96-1.67-.98.11-1.69,1.03-1.58,2.06.17,1.67.4,3.3.67,4.84.73,4.06,2,7.64,3.78,10.62,1.82,3.03,4.3,5.37,7.39,6.98,3.04,1.56,6.85,2.35,11.31,2.35s8.39-.92,11.44-2.72c3.09-1.79,5.62-4.27,7.52-7.37,1.86-3.03,3.18-6.59,3.94-10.59.74-3.89,1.11-8.08,1.11-12.47,0-4.73-.36-9.15-1.08-13.12-.74-4.06-2.02-7.6-3.81-10.52h0Z"/>
  <path class="cls-1" d="M89.29,28.33c-1.75-5.91-4.4-10.89-7.86-14.77-3.46-3.93-7.84-6.88-13.02-8.77-5.08-1.85-11-2.78-17.57-2.78-6.92,0-13.11,1.14-18.39,3.38-5.31,2.24-9.84,5.53-13.45,9.77-3.61,4.22-6.36,9.39-8.18,15.38-1.79,5.92-2.7,12.65-2.7,20.01,0,7.97.85,15.01,2.53,20.92,1.7,5.97,4.31,10.99,7.75,14.91,3.45,3.93,7.83,6.89,13.01,8.79,5.09,1.88,11.08,2.83,17.83,2.83s13.06-1.12,18.33-3.33c5.32-2.24,9.85-5.54,13.45-9.79,3.6-4.2,6.36-9.43,8.18-15.53,1.79-5.99,2.7-12.84,2.7-20.38,0-7.82-.88-14.76-2.61-20.63h0ZM85.79,68.22c-1.67,5.58-4.17,10.34-7.43,14.15-3.24,3.82-7.32,6.79-12.12,8.81-4.84,2.03-10.56,3.06-17,3.06s-11.94-.88-16.65-2.62c-4.69-1.73-8.48-4.28-11.58-7.8-3.07-3.5-5.41-8.02-6.96-13.44-1.58-5.56-2.38-12.24-2.38-19.85,0-6.98.85-13.32,2.53-18.87,1.66-5.48,4.16-10.19,7.43-14.01,3.25-3.82,7.33-6.77,12.13-8.8,4.86-2.06,10.6-3.11,17.06-3.11s11.7.87,16.41,2.58c4.63,1.69,8.52,4.3,11.58,7.79,3.1,3.48,5.48,7.97,7.07,13.33,1.62,5.51,2.45,12.08,2.45,19.52s-.85,13.63-2.53,19.26h0Z"/>
  <path class="cls-1" d="M28,51.5c.98,0,1.78-.84,1.78-1.88s-.8-1.88-1.78-1.88h0c-.98,0-1.78.84-1.78,1.88s.8,1.88,1.78,1.88Z"/>
</svg>