<?xml version="1.0" encoding="UTF-8"?>
<svg id="Layer_2" data-name="Layer 2" xmlns="http://www.w3.org/2000/svg" xmlns:xlink="http://www.w3.org/1999/xlink" viewBox="0 0 627 542">
  <defs>
    <style>
      .cls-1 {
        filter: url(#outer-glow-4);
      }

      .cls-1, .cls-2, .cls-3, .cls-4 {
        fill: #03cf65;
      }

      .cls-2 {
        filter: url(#outer-glow-3);
      }

      .cls-5 {
        fill: url(#linear-gradient-2);
      }

      .cls-3 {
        filter: url(#outer-glow-5);
      }

      .cls-6 {
        stroke: #25d366;
      }

      .cls-6, .cls-7, .cls-8 {
        fill: none;
      }

      .cls-6, .cls-8 {
        stroke-dasharray: 4.23 4.23 4.23 4.23 4.23 4.23;
        stroke-linecap: round;
        stroke-linejoin: round;
      }

      .cls-9, .cls-10 {
        fill: #fff;
      }

      .cls-10 {
        fill-rule: evenodd;
      }

      .cls-11 {
        fill: #c8ebce;
      }

      .cls-12 {
        filter: url(#drop-shadow-1);
        isolation: isolate;
        opacity: .1;
      }

      .cls-13 {
        fill: url(#linear-gradient-3);
      }

      .cls-8 {
        stroke: #adadad;
      }

      .cls-4 {
        filter: url(#outer-glow-2);
      }

      .cls-14 {
        fill: url(#linear-gradient);
      }

      .cls-15 {
        clip-path: url(#clippath);
      }
    </style>
    <clipPath id="clippath">
      <rect class="cls-7" width="627" height="542"/>
    </clipPath>
    <filter id="drop-shadow-1" x="238.24" y="306.46" width="95.55" height="116.54" filterUnits="userSpaceOnUse">
      <feOffset dx="4.61" dy="4.61"/>
      <feGaussianBlur result="blur" stdDeviation="6.15"/>
      <feFlood flood-color="#8e8e8e" flood-opacity=".25"/>
      <feComposite in2="blur" operator="in"/>
      <feComposite in="SourceGraphic"/>
    </filter>
    <linearGradient id="linear-gradient" x1="238.24" y1="334.7" x2="312.05" y2="334.7" gradientUnits="userSpaceOnUse">
      <stop offset="0" stop-color="#4778bb"/>
      <stop offset="1" stop-color="#3fc6f1"/>
    </linearGradient>
    <linearGradient id="linear-gradient-2" y1="371.94" x2="333.79" y2="371.94" xlink:href="#linear-gradient"/>
    <linearGradient id="linear-gradient-3" x1="274.84" y1="401.49" x2="333.69" y2="401.49" xlink:href="#linear-gradient"/>
    <filter id="outer-glow-2" x="185" y="97" width="90" height="90" filterUnits="userSpaceOnUse">
      <feOffset dx="0" dy="0"/>
      <feGaussianBlur result="blur-2" stdDeviation="5"/>
      <feFlood flood-color="#03cf65" flood-opacity=".5"/>
      <feComposite in2="blur-2" operator="in"/>
      <feComposite in="SourceGraphic"/>
    </filter>
    <filter id="outer-glow-3" x="290" y="158" width="80" height="81" filterUnits="userSpaceOnUse">
      <feOffset dx="0" dy="0"/>
      <feGaussianBlur result="blur-3" stdDeviation="5"/>
      <feFlood flood-color="#03cf65" flood-opacity=".5"/>
      <feComposite in2="blur-3" operator="in"/>
      <feComposite in="SourceGraphic"/>
    </filter>
    <filter id="outer-glow-4" x="200" y="211" width="80" height="80" filterUnits="userSpaceOnUse">
      <feOffset dx="0" dy="0"/>
      <feGaussianBlur result="blur-4" stdDeviation="5"/>
      <feFlood flood-color="#03cf65" flood-opacity=".5"/>
      <feComposite in2="blur-4" operator="in"/>
      <feComposite in="SourceGraphic"/>
    </filter>
    <filter id="outer-glow-5" x="254" y="280" width="59" height="59" filterUnits="userSpaceOnUse">
      <feOffset dx="0" dy="0"/>
      <feGaussianBlur result="blur-5" stdDeviation="5"/>
      <feFlood flood-color="#03cf65" flood-opacity=".5"/>
      <feComposite in2="blur-5" operator="in"/>
      <feComposite in="SourceGraphic"/>
    </filter>
  </defs>
  <g id="Layer_1-2" data-name="Layer 1">
    <g class="cls-15">
      <g>
        <g class="cls-12">
          <path class="cls-14" d="M312.05,321.31c0,.08,0,.16,0,.24-.03,1.38-.74,2.74-2.1,3.52l-65.45,37.33c-2.78,1.59-6.25-.42-6.25-3.63v-20.01c0-1.48.78-2.84,2.05-3.6l47.57-28.12c.6-.35,1.26-.55,1.93-.58.12,0,.24,0,.36,0,0,0,.02,0,.02,0,.69.03,1.37.23,1.98.6l17.88,10.81c1.3.79,1.97,2.11,2.01,3.44Z"/>
          <path class="cls-5" d="M333.79,350.76c0,.08,0,.16,0,.24-.03,1.36-.72,2.71-2.06,3.5l-66.04,38.69c-1.28.75-2.06,2.12-2.06,3.6v6.37c0,3.2-3.45,5.21-6.24,3.63l-17.02-9.67c-1.31-.74-2.11-2.13-2.11-3.63v-11.88c0-1.48.79-2.86,2.07-3.61l70.03-40.91c.82-.48,1.77-.66,2.68-.53,0,0,0,0,.01,0,.54.08,1.06.26,1.54.54l17.17,10.18c1.32.78,2,2.11,2.04,3.46Z"/>
          <path class="cls-13" d="M333.69,393.91c0,.08,0,.16,0,.24-.03,1.36-.72,2.71-2.07,3.5l-42.41,24.78c-1.24.73-2.77.76-4.05.09l-8.09-4.25c-1.37-.72-2.23-2.15-2.23-3.7v-11.5c0-1.5.81-2.89,2.11-3.63l33.3-18.92c.73-.41,1.55-.59,2.36-.53.04,0,.07,0,.11,0,.58.06,1.15.24,1.68.54l17.19,9.88c1.35.78,2.05,2.12,2.09,3.49Z"/>
        </g>
        <circle class="cls-6" cx="286.6" cy="364.96" r="163.96"/>
        <circle class="cls-8" cx="286.6" cy="364.96" r="80.77"/>
        <image width="2000" height="1333" transform="translate(-95.6 -.28) scale(.4)" xlink:href="C:\Users\USER\Downloads\portrait-two-satisfied-business-men-shaking-hands.png"/>
      </g>
    </g>
    <rect class="cls-11" x="18" y="532" width="561" height="10"/>
    <g>
      <circle class="cls-4" cx="230" cy="142" r="30"/>
      <g>
        <path class="cls-9" d="M222.56,135.03l-2.63.2c-.73.06-1.38.44-1.79,1.05l-3.03,4.58c-.31.46-.36,1.04-.13,1.55.22.51.69.86,1.24.95l2.4.37c.56-2.98,1.91-5.96,3.93-8.71h0Z"/>
        <path class="cls-9" d="M228.26,153.37l.37,2.4c.09.55.44,1.01.95,1.24.21.09.44.14.66.14.31,0,.62-.09.89-.27l4.58-3.03c.61-.4.99-1.05,1.05-1.79l.2-2.63c-2.74,2.02-5.72,3.37-8.71,3.93h0Z"/>
        <path class="cls-9" d="M227.36,151.71c.08,0,.17,0,.25-.02,1.25-.21,2.46-.56,3.61-1.02l-9.88-9.88c-.46,1.15-.81,2.35-1.02,3.61-.08.49.08,1,.44,1.35l5.51,5.51c.29.29.69.46,1.1.46Z"/>
        <path class="cls-9" d="M242.74,140.28c2.42-4.67,2.51-9.62,2.38-11.93-.04-.79-.68-1.43-1.47-1.47-.38-.02-.82-.04-1.33-.04-2.59,0-6.69.39-10.6,2.42-3.11,1.61-7.19,5.15-9.59,9.81.03.02.06.05.08.07l10.66,10.66s.05.05.07.08c4.66-2.41,8.2-6.48,9.81-9.6h0ZM232.47,133.25c1.73-1.73,4.55-1.73,6.28,0,.84.84,1.3,1.95,1.3,3.14s-.46,2.3-1.3,3.14c-.87.87-2,1.3-3.14,1.3-1.14,0-2.27-.43-3.14-1.3-.84-.84-1.3-1.95-1.3-3.14s.46-2.3,1.3-3.14h0Z"/>
        <path class="cls-9" d="M233.72,138.28c1.04,1.04,2.73,1.04,3.77,0,.5-.5.78-1.17.78-1.88s-.28-1.38-.78-1.88c-.52-.52-1.2-.78-1.88-.78s-1.36.26-1.88.78c-.5.5-.78,1.17-.78,1.88s.28,1.38.78,1.88h0Z"/>
        <path class="cls-9" d="M215.75,151.82c.23,0,.45-.09.63-.26l2.9-2.9c.35-.35.35-.91,0-1.26-.35-.35-.91-.35-1.26,0l-2.9,2.9c-.35.35-.35.91,0,1.26.17.17.4.26.63.26Z"/>
        <path class="cls-9" d="M221.94,150.06c-.35-.35-.91-.35-1.26,0l-5.57,5.57c-.35.35-.35.91,0,1.26.17.17.4.26.63.26s.45-.09.63-.26l5.57-5.57c.35-.35.35-.91,0-1.26h0Z"/>
        <path class="cls-9" d="M223.34,152.72l-2.9,2.9c-.35.35-.35.91,0,1.26.17.17.4.26.63.26s.45-.09.63-.26l2.9-2.9c.35-.35.35-.91,0-1.26-.35-.35-.91-.35-1.26,0h0Z"/>
      </g>
    </g>
    <g>
      <circle class="cls-2" cx="330" cy="198.39" r="25"/>
      <g id="_493055296" data-name=" 493055296">
        <path id="_493072624" data-name=" 493072624" class="cls-10" d="M316.63,210.44v-6.27c0-.67.56-1.22,1.22-1.22h2.2c.66,0,1.22.56,1.22,1.22v6.27c0,.66-.55,1.22-1.22,1.22h-2.2c-.67,0-1.22-.55-1.22-1.22Z"/>
        <path id="_493054816" data-name=" 493054816" class="cls-10" d="M323.77,210.44v-11.15c0-.67.56-1.22,1.22-1.22h2.2c.66,0,1.22.56,1.22,1.22v11.15c0,.66-.55,1.22-1.22,1.22h-2.2c-.67,0-1.22-.55-1.22-1.22Z"/>
        <path id="_493054216" data-name=" 493054216" class="cls-10" d="M330.9,210.44v-16.02c0-.67.56-1.22,1.22-1.22h2.2c.66,0,1.22.56,1.22,1.22v16.02c0,.66-.55,1.22-1.22,1.22h-2.2c-.67,0-1.22-.55-1.22-1.22Z"/>
        <path id="_493054096" data-name=" 493054096" class="cls-10" d="M338.04,210.44v-23.34c0-.67.57-1.22,1.22-1.22h2.2c.65,0,1.22.57,1.22,1.22v23.34c0,.65-.55,1.22-1.22,1.22h-2.2c-.67,0-1.22-.55-1.22-1.22Z"/>
        <path id="_493067152" data-name=" 493067152" class="cls-10" d="M332.03,185.13c-4.82,6.8-11.48,11.45-18.65,15.65l.06-.07c8.77-2.54,16.67-7.47,22.53-14.91l-3.94-.67Z"/>
        <path id="_493067848" data-name=" 493067848" class="cls-10" d="M336.69,183.18l-.11,2.73-.08,2.11c-.01.27-.16.49-.41.59-.25.1-.51.06-.71-.12l-2.3-2.07-2.3-2.07c-.2-.18-.27-.44-.19-.69.08-.26.28-.43.55-.47l2.09-.31,2.7-.4c.2-.03.39.03.55.17.15.14.23.32.22.53Z"/>
      </g>
    </g>
    <g>
      <circle class="cls-1" cx="240" cy="251" r="25"/>
      <g>
        <path class="cls-10" d="M229.77,257.3l1.41-2.02c.14-.21.2-.46.15-.71-.04-.25-.18-.47-.39-.61-.43-.3-1.03-.19-1.33.24l-1.41,2.02c-.14.21-.2.46-.15.71.04.25.18.47.39.61.43.3,1.03.19,1.33-.24Z"/>
        <path class="cls-10" d="M231.2,260.38c-.3.43-.9.54-1.33.24-.21-.14-.35-.36-.39-.61-.04-.25.01-.5.15-.71l2.4-3.43.98-1.41c.19-.27.48-.41.79-.41.19,0,.38.06.54.17.21.14.35.36.39.61s-.01.5-.15.71l-.76,1.09-2.62,3.75Z"/>
        <path class="cls-10" d="M234.36,260.96l1.86-2.66c.14-.21.2-.46.15-.71-.04-.25-.18-.47-.39-.61-.43-.3-1.03-.19-1.33.24l-1.86,2.66c-.14.21-.2.46-.15.71.04.25.18.47.39.61.43.3,1.03.19,1.33-.24h0Z"/>
        <path class="cls-10" d="M238.4,259.81c.05.25,0,.5-.15.71l-1.09,1.57c-.3.43-.9.54-1.33.24-.21-.14-.35-.36-.39-.61-.05-.25,0-.5.15-.71l1.09-1.57c.3-.43.9-.54,1.33-.24.21.14.35.36.39.61Z"/>
        <polygon class="cls-10" points="248.61 243.23 255.16 252.71 258.13 250.67 251.59 241.19 248.61 243.23"/>
        <path class="cls-10" d="M234.92,247.23c.34-.5.81-.83,1.56-1.11,1.71-.63,3.39-1.12,5.46-1.58.76-.17,1.35-.12,1.91.16,1.4.7,3.04.87,4.89.52l4.79,6.94c-.73.77-1.66,1.3-2.64,1.46l-9.1-5.71c-.07-.05-.15-.07-.24-.08l-2.33-.16c-.33-.02-.64.1-.86.34-1.7,1.84-3.34,2.32-5,1.46l1.55-2.25Z"/>
        <path class="cls-10" d="M231.43,244.85c.99.65,2.26.93,3.34,1.04-.27.22-.5.47-.7.75l-1.74,2.52c-.11.17-.15.37-.11.56.04.2.16.36.33.47,2.21,1.34,4.42.84,6.56-1.48.01-.02.02-.02.04-.02l2.2.15,9.15,5.74c.25.16.43.41.49.7.07.29.02.59-.14.84-.33.52-1.02.68-1.55.35l-5.58-3.5c-.24-.15-.56-.08-.71.16-.15.24-.08.56.16.71l5.18,3.25c.25.16.43.41.49.7.07.29.02.59-.14.84-.33.52-1.02.68-1.55.35l-.96-.6s0,0,0,0l-4.17-2.62c-.24-.15-.56-.08-.71.16-.15.24-.08.56.16.71l4.17,2.62c.25.16.43.41.49.7.07.29.02.59-.14.84-.16.25-.41.43-.71.49-.29.06-.59.01-.84-.14l-3.51-2.23c-.24-.15-.56-.08-.71.16-.15.24-.08.56.16.71l2.25,1.43h0c.25.17.43.41.49.71.07.29.02.59-.14.84-.33.52-1.02.68-1.55.35l-2.63-1.65.24-.34c.3-.43.42-.95.32-1.47-.09-.52-.38-.97-.82-1.27-.36-.25-.78-.36-1.19-.35.02-.19.02-.39-.02-.59-.09-.52-.38-.97-.82-1.27-.3-.2-.63-.32-.96-.35.16-.36.21-.75.13-1.14-.09-.52-.38-.97-.82-1.27-.89-.62-2.12-.4-2.75.48-.15-.3-.36-.55-.64-.75-.9-.62-2.13-.4-2.75.49l-.57.81c-.8-.75-1.4-1.51-1.81-2.28l5.03-7.28Z"/>
        <polygon class="cls-10" points="228.41 241.08 221.87 250.56 224.84 252.59 231.39 243.12 228.41 241.08"/>
      </g>
    </g>
    <g>
      <circle class="cls-3" cx="283.63" cy="309.5" r="14.37"/>
      <path class="cls-9" d="M278.15,312.11l5.79,6.54h4.02l-6.36-6.69c1.65-.66,2.9-1.61,3.72-2.84.07-.1.12-.2.18-.3h3.59v-2.43h-2.76c.07-.53.08-1.02.05-1.45h2.71v-2.43h-10.78v2.43h5.2c.04.41.05.91-.06,1.45h-5.14v2.43h3.67c-.7.58-1.68,1.08-3.08,1.4l-.77,1.9Z"/>
    </g>
  </g>
</svg>