<?xml version="1.0" encoding="UTF-8"?>
<svg id="Layer_2" data-name="Layer 2" xmlns="http://www.w3.org/2000/svg" xmlns:xlink="http://www.w3.org/1999/xlink" viewBox="0 0 171.5 45.24">
  <defs>
    <style>
      .cls-1 {
        fill: url(#linear-gradient-2);
      }

      .cls-2 {
        fill: #0d0f0f;
      }

      .cls-3 {
        fill: url(#linear-gradient-3);
      }

      .cls-4 {
        fill: url(#linear-gradient);
      }
    </style>
    <linearGradient id="linear-gradient" x1="0" y1="1381.07" x2="28.65" y2="1381.07" gradientTransform="translate(0 1392.04) scale(1 -1)" gradientUnits="userSpaceOnUse">
      <stop offset="0" stop-color="#4978b9"/>
      <stop offset="1" stop-color="#4ac3ed"/>
    </linearGradient>
    <linearGradient id="linear-gradient-2" x1="0" y1="1366.62" x2="37.09" y2="1366.62" xlink:href="#linear-gradient"/>
    <linearGradient id="linear-gradient-3" x1="14.2" y1="1355.15" x2="37.05" y2="1355.15" xlink:href="#linear-gradient"/>
  </defs>
  <g id="Layer_1-2" data-name="Layer 1">
    <path class="cls-4" d="M28.65,5.77s0,.06,0,.09c-.01.54-.29,1.06-.82,1.37L2.42,21.71C1.34,22.33,0,21.55,0,20.31v-7.77C0,11.96.3,11.43.8,11.14L19.26.23c.23-.14.49-.21.75-.22.05,0,.09,0,.14,0h0c.27.01.53.09.77.23l6.94,4.2c.51.31.77.82.78,1.34h0Z"/>
    <path class="cls-1" d="M37.09,17.2v.09c-.01.53-.28,1.05-.8,1.36l-25.63,15.02c-.5.29-.8.82-.8,1.4v2.47c0,1.24-1.34,2.02-2.42,1.41l-6.61-3.75c-.51-.29-.82-.83-.82-1.41v-4.61c0-.58.31-1.11.8-1.4l27.18-15.88c.32-.19.69-.26,1.04-.21h0c.21.03.41.1.6.21l6.66,3.95c.51.3.78.82.79,1.34h0Z"/>
    <path class="cls-3" d="M37.05,33.95s0,.06,0,.09c-.01.53-.28,1.05-.8,1.36l-16.46,9.62c-.48.28-1.08.3-1.57.04l-3.14-1.65c-.53-.28-.87-.83-.87-1.44v-4.46c0-.58.31-1.12.82-1.41l12.93-7.34c.28-.16.6-.23.92-.21.01,0,.03,0,.04,0,.23.02.45.09.65.21l6.67,3.84c.52.3.8.82.81,1.35h0Z"/>
    <path class="cls-2" d="M54.55,32.69c-2.89,0-5.29-.96-7.2-2.89-1.91-1.93-2.87-4.32-2.87-7.18s.96-5.25,2.87-7.18c1.91-1.93,4.29-2.89,7.12-2.89s4.94.9,6.61,2.69c1.68,1.79,2.58,4.25,2.71,7.38v1.17h-14.87c.21,1.38.83,2.5,1.87,3.36,1.04.86,2.29,1.29,3.75,1.29,2.05,0,3.75-.74,5.07-2.22l2.89,3.08c-.88,1.01-2.02,1.83-3.39,2.46-1.38.62-2.9.94-4.57.94h0ZM54.16,16.49c-1.17,0-2.23.36-3.18,1.07-.95.72-1.59,1.68-1.93,2.91h10.03c-.52-2.65-2.16-3.98-4.92-3.98h0Z"/>
    <path class="cls-2" d="M90.8,32.38v-11.36c0-1.17-.35-2.19-1.03-3.06-.69-.87-1.68-1.31-2.99-1.31-2.03,0-3.45,1.13-4.25,3.39.03.21.04.51.04.9v11.43h-4.29v-11.36c0-1.17-.35-2.19-1.05-3.06-.7-.87-1.7-1.31-3.01-1.31-2.03,0-3.43,1.11-4.21,3.32v12.41h-4.29V12.86h4.29v1.83c1.27-1.43,2.95-2.15,5.03-2.15,2.68,0,4.71,1,6.09,3.01,1.51-2,3.65-3.01,6.44-3.01,2.37,0,4.21.76,5.54,2.28,1.33,1.52,1.99,3.56,1.99,6.11v11.43h-4.29,0Z"/>
    <path class="cls-2" d="M114.76,29.8c-1.93,1.93-4.33,2.89-7.22,2.89s-5.29-.96-7.22-2.89c-1.93-1.93-2.89-4.32-2.89-7.18s.96-5.25,2.89-7.18c1.93-1.93,4.33-2.89,7.22-2.89s5.29.96,7.22,2.89c1.93,1.93,2.89,4.32,2.89,7.18s-.96,5.26-2.89,7.18ZM107.55,28.59c1.64,0,3-.57,4.08-1.7,1.08-1.13,1.62-2.56,1.62-4.27s-.54-3.14-1.62-4.27c-1.08-1.13-2.44-1.7-4.08-1.7s-3.03.57-4.1,1.7c-1.07,1.13-1.6,2.56-1.6,4.27s.53,3.14,1.6,4.27c1.07,1.13,2.43,1.7,4.1,1.7Z"/>
    <path class="cls-2" d="M127.84,32.69l-10.69-19.82h4.84l5.85,11.47,5.78-11.47h4.92l-10.69,19.82h0Z"/>
    <path class="cls-2" d="M153.36,32.38v-1.79c-1.3,1.41-3.12,2.11-5.46,2.11s-4.34-.77-5.78-2.3c-1.43-1.53-2.15-3.56-2.15-6.09v-11.43h4.29v11.36c0,1.14.4,2.16,1.21,3.04.81.88,1.89,1.33,3.24,1.33,2.29,0,3.84-1.11,4.64-3.32v-12.41h4.29v19.51h-4.29,0Z"/>
    <path class="cls-2" d="M160.77,32.38V12.86h4.29v1.91c1.22-1.46,2.9-2.19,5.03-2.19.49,0,.96.04,1.41.12v4.49c-.55-.18-1.26-.27-2.15-.27-2.06,0-3.49.78-4.29,2.34v13.11h-4.29Z"/>
  </g>
</svg>