<?xml version="1.0" encoding="UTF-8"?>
<svg id="Layer_2" data-name="Layer 2" xmlns="http://www.w3.org/2000/svg" viewBox="0 0 15.46 23.86">
  <defs>
    <style>
      .cls-1 {
        fill: none;
        stroke: #0c9ffa;
        stroke-miterlimit: 10;
        stroke-width: .75px;
      }
    </style>
  </defs>
  <g id="Layer_1-2" data-name="Layer 1">
    <path class="cls-1" d="M9.57,10.35h-.26v-4.73h3.15c.87.02,1.59-.66,1.62-1.53.02-.87-.66-1.59-1.53-1.62-.03,0-.06,0-.09,0h-3.15v-.52c0-.87-.71-1.58-1.58-1.58-.87,0-1.57.71-1.58,1.58v.52h-.26C2.84,2.47.38,4.94.38,7.99s2.47,5.51,5.51,5.51h.26v4.73h-3.15c-.87-.02-1.59.66-1.62,1.53-.02.87.66,1.59,1.53,1.62.03,0,.06,0,.09,0h3.15v.52c0,.87.71,1.58,1.58,1.58.87,0,1.57-.71,1.58-1.58v-.52h.26c3.05,0,5.51-2.47,5.51-5.51s-2.47-5.51-5.51-5.51ZM5.89,10.35c-1.31-.03-2.34-1.11-2.31-2.42.03-1.26,1.05-2.28,2.31-2.31h.26v4.73h-.26ZM9.57,18.23h-.26v-4.73h.26c1.31.03,2.34,1.11,2.31,2.42-.03,1.26-1.05,2.28-2.31,2.31Z"/>
  </g>
</svg>