<svg width="1852" height="396" viewBox="0 0 1852 396" fill="none" xmlns="http://www.w3.org/2000/svg">
<g clip-path="url(#clip0_3389_9944)">
<path d="M1846.5 171.8C1834.5 168.8 1795.5 219.8 1795.5 219.8C1780.5 222.8 1764.5 210.8 1764.5 210.8C1764.09 210.74 1763.68 210.71 1763.26 210.71C1750.33 210.71 1732.5 239.8 1732.5 239.8C1714.5 267.8 1694.5 265.8 1694.5 265.8C1669.5 265.8 1666.5 283.8 1666.5 283.8C1660.5 304.8 1649.5 303.8 1649.5 303.8C1604.5 301.8 1621.5 311.8 1605.5 314.8C1589.5 317.8 1572.13 326.72 1572.13 326.72C1535.76 351.64 1527.5 335.8 1527.5 335.8C1504.5 314.8 1492.5 336.8 1492.5 336.8C1474.5 351.8 1450.5 355.8 1450.5 355.8C1418.5 365.8 1408.5 346.8 1408.5 346.8C1382.5 332.8 1366.5 345.8 1366.5 345.8C1345.5 372.8 1330.5 353.8 1330.5 353.8C1316.5 343.8 1309.5 352.8 1309.5 352.8C1303.5 358.8 1287.5 364.8 1287.5 364.8L1232.5 363.8C1210.5 388.8 1198.5 378.8 1198.5 378.8C1176.5 367.8 1167.5 371.8 1167.5 371.8C1124.5 387.8 1120.04 384.3 1120.04 384.3C1087.58 380.8 1080 384.3 1080 384.3C1037 396.3 961 391.3 961 391.3C936 391.3 903 394.3 903 394.3L742 394.68H4V0H1846.5V171.8Z" fill="url(#paint0_linear_3389_9944)"/>
<path d="M0 394.679H742L903 394.299C903 394.299 936 391.299 961 391.299C961 391.299 1037 396.299 1080 384.299C1080 384.299 1087.59 380.799 1120.04 384.299C1120.04 384.299 1124.5 387.799 1167.5 371.799C1167.5 371.799 1176.5 367.799 1198.5 378.799C1198.5 378.799 1210.5 388.799 1232.5 363.799L1287.5 364.799C1287.5 364.799 1303.5 358.799 1309.5 352.799C1309.5 352.799 1316.5 343.799 1330.5 353.799C1330.5 353.799 1345.5 372.799 1366.5 345.799C1366.5 345.799 1382.5 332.799 1408.5 346.799C1408.5 346.799 1418.5 365.799 1450.5 355.799C1450.5 355.799 1474.5 351.799 1492.5 336.799C1492.5 336.799 1504.5 314.799 1527.5 335.799C1527.5 335.799 1535.76 351.639 1572.13 326.719C1572.13 326.719 1589.5 317.799 1605.5 314.799C1621.5 311.799 1604.5 301.799 1649.5 303.799C1649.5 303.799 1660.5 304.799 1666.5 283.799C1666.5 283.799 1669.5 265.799 1694.5 265.799C1694.5 265.799 1714.5 267.799 1732.5 239.799C1732.5 239.799 1750.33 210.709 1763.26 210.709C1763.68 210.709 1764.09 210.739 1764.5 210.799C1764.5 210.799 1780.5 222.799 1795.5 219.799C1795.5 219.799 1834.5 168.799 1846.5 171.799" stroke="url(#paint1_linear_3389_9944)" stroke-miterlimit="10"/>
<path d="M1847 175.301C1849.76 175.301 1852 173.062 1852 170.301C1852 167.539 1849.76 165.301 1847 165.301C1844.24 165.301 1842 167.539 1842 170.301C1842 173.062 1844.24 175.301 1847 175.301Z" fill="#0C9FFA"/>
</g>
<defs>
<linearGradient id="paint0_linear_3389_9944" x1="915.71" y1="130.38" x2="1146.78" y2="1752.67" gradientUnits="userSpaceOnUse">
<stop stop-color="white"/>
<stop offset="0.09" stop-color="#F7FBFE"/>
<stop offset="0.22" stop-color="#E2F3FE"/>
<stop offset="0.39" stop-color="#BFE6FD"/>
<stop offset="0.58" stop-color="#90D3FC"/>
<stop offset="0.79" stop-color="#52BBFB"/>
<stop offset="1" stop-color="#0C9FFA"/>
</linearGradient>
<linearGradient id="paint1_linear_3389_9944" x1="0" y1="283.179" x2="1846.62" y2="283.179" gradientUnits="userSpaceOnUse">
<stop stop-color="white"/>
<stop offset="0.09" stop-color="#F7FBFE"/>
<stop offset="0.22" stop-color="#E2F3FE"/>
<stop offset="0.39" stop-color="#BFE6FD"/>
<stop offset="0.58" stop-color="#90D3FC"/>
<stop offset="0.79" stop-color="#52BBFB"/>
<stop offset="1" stop-color="#0C9FFA"/>
</linearGradient>
<clipPath id="clip0_3389_9944">
<rect width="1852" height="395.18" fill="white"/>
</clipPath>
</defs>
</svg>
