<?xml version="1.0" encoding="UTF-8"?>
<svg id="Layer_2" data-name="Layer 2" xmlns="http://www.w3.org/2000/svg" viewBox="0 0 58.63 58.63">
  <defs>
    <style>
      .cls-1 {
        fill: #0c9ffa;
      }
    </style>
  </defs>
  <g id="Layer_1-2" data-name="Layer 1">
    <g>
      <path class="cls-1" d="M50.33,0h-25.87C19.89,0,16.17,3.72,16.17,8.3v22.48h-3.9c-1.01,0-1.83.82-1.83,1.83s.82,1.83,1.83,1.83h7c1.01,0,1.83-.82,1.83-1.83,0-.81-.53-1.5-1.27-1.74V8.3c0-2.56,2.08-4.63,4.63-4.63h25.87c2.56,0,4.63,2.08,4.63,4.63v25.87c0,2.56-2.08,4.63-4.63,4.63h-22.48v-2.16c0-1.6-.63-3.09-1.77-4.2-.73-.71-1.88-.69-2.59.03-.71.72-.69,1.89.03,2.59.43.42.66.98.66,1.58v3.78c0,1,.8,1.81,1.8,1.83.25.13.54.21.84.21h23.51c4.58,0,8.3-3.72,8.3-8.3V8.3c0-4.58-3.72-8.3-8.3-8.3h0Z"/>
      <path class="cls-1" d="M9.16,54.97h-3.29c-.69,0-1.33-.32-1.75-.87-.61-.8-1.76-.96-2.57-.34-.8.61-.96,1.76-.34,2.57,1.12,1.46,2.82,2.3,4.66,2.3h3.29c1.01,0,1.83-.82,1.83-1.83s-.82-1.83-1.83-1.83Z"/>
      <path class="cls-1" d="M22,54.97h-7.02c-1.01,0-1.83.82-1.83,1.83s.82,1.83,1.83,1.83h7.03c1.01,0,1.82-.82,1.82-1.83s-.82-1.83-1.83-1.83h0Z"/>
      <path class="cls-1" d="M3.66,49.57v-7c0-1.01-.82-1.83-1.83-1.83s-1.83.82-1.83,1.83v7c0,1.01.82,1.83,1.83,1.83s1.83-.82,1.83-1.83Z"/>
      <path class="cls-1" d="M26.02,44.42c-1.01,0-1.83.82-1.83,1.83v6.51c0,.09,0,.18-.02.27-.12,1,.6,1.92,1.6,2.04.07,0,.15.01.22.01.92,0,1.71-.68,1.82-1.61.03-.23.04-.47.04-.7v-6.51c0-1.01-.82-1.83-1.83-1.83h0Z"/>
      <path class="cls-1" d="M1.83,38.57c1.01,0,1.83-.82,1.83-1.83v-.09c0-1.21.99-2.2,2.2-2.2h.57c1.01,0,1.83-.82,1.83-1.83s-.82-1.83-1.83-1.83h-.57c-3.23,0-5.86,2.63-5.86,5.86v.09c0,1.01.82,1.83,1.83,1.83Z"/>
      <path class="cls-1" d="M28.74,29.97c.36.36.83.54,1.3.54s.94-.18,1.3-.54l13.37-13.37v8.08c0,1.01.82,1.83,1.83,1.83s1.83-.82,1.83-1.83v-12.58c0-1.01-.82-1.83-1.83-1.83h-12.42c-1.01,0-1.83.82-1.83,1.83s.82,1.83,1.83,1.83h8.08l-13.46,13.46c-.72.72-.72,1.88,0,2.59h0Z"/>
    </g>
  </g>
</svg>