<?xml version="1.0" encoding="UTF-8"?>
<svg id="Layer_2" data-name="Layer 2" xmlns="http://www.w3.org/2000/svg" viewBox="0 0 56.16 56.18">
  <defs>
    <style>
      .cls-1 {
        fill: #0c9ffa;
      }
    </style>
  </defs>
  <g id="Layer_1-2" data-name="Layer 1">
    <g>
      <path class="cls-1" d="M33.3,25.14v-.7c-.08-7.24-10.74-7.24-10.82,0v.7c-1.23.54-2.03,1.75-2.03,3.1v7.21c0,1.87,1.51,3.38,3.38,3.38h8.12c1.87,0,3.38-1.51,3.38-3.38v-7.21c0-1.34-.8-2.56-2.03-3.1ZM28.73,35.23h-1.68c-.06,0-.12,0-.17-.02-.49-.1-.81-.57-.71-1.06.21-1.05.51-2.56.62-3.08.02-.12-.01-.25-.09-.34-.34-.5-.34-1.16,0-1.66.46-.66,1.36-.83,2.02-.37.66.46.83,1.37.37,2.03-.08.1-.11.22-.09.34l.62,3.08c.01.06.02.12.02.18,0,.5-.4.9-.9.9ZM31.94,24.86h-8.12v-.4c.06-5.48,8.05-5.48,8.12,0v.4Z"/>
      <path class="cls-1" d="M28.08,56.18c-.33,0-.66-.07-.96-.2C11.95,48.99,2.84,34.1.02,11.71c-.09-.73.17-1.46.7-1.98.53-.51,1.27-.75,2-.63,11.84,1.91,16.49-.53,23.64-8.38.89-.97,2.57-.97,3.46,0,7.15,7.84,11.8,10.29,23.64,8.38.72-.12,1.47.12,2,.63.53.51.79,1.25.7,1.98-1.81,14.39-6.51,32.41-26.88,44.16-.01,0-.02.01-.03.02-.35.2-.75.29-1.15.29ZM28.09,53.84h.02-.02ZM5.09,14.15c2.92,18.46,10.6,30.9,22.88,37.05,16.33-9.87,21.11-23.98,23.11-37.05-10.86,1.15-16.62-1.88-23-8.42-6.38,6.54-12.13,9.56-22.99,8.42Z"/>
    </g>
  </g>
</svg>