<?xml version="1.0" encoding="UTF-8"?>
<svg id="Layer_2" data-name="Layer 2" xmlns="http://www.w3.org/2000/svg" viewBox="0 0 56.74 56.71">
  <defs>
    <style>
      .cls-1 {
        fill: #0c9ffa;
      }
    </style>
  </defs>
  <g id="Layer_1-2" data-name="Layer 1">
    <g>
      <path class="cls-1" d="M14.56,54.71c2.59-2.59,5.18-5.18,7.77-7.77,1.34-1.34,2.68-2.68,4.02-4.02.75-.75,1.35-1.56,1.74-2.56.8-2.09.18-4.59-1.39-6.15-1.36-1.36-2.72-2.72-4.08-4.08-.49-.49-1.04-.93-1.67-1.23-1.2-.57-2.4-.69-3.71-.52-1.28.17-2.42.91-3.32,1.8-3.04,3.04-6.07,6.07-9.11,9.11-1.03,1.03-2.06,2.06-3.09,3.09-1.46,1.46-1.98,3.49-1.61,5.5.26,1.42,1.18,2.51,2.16,3.5,1.17,1.17,2.35,2.35,3.52,3.52.9.9,2.06,1.58,3.34,1.75,1.92.25,3.76-.27,5.17-1.63.1-.1.17-.21.26-.3ZM17.73,32.29c-.1.05-.17.08-.22.1.07-.04.15-.07.22-.1ZM4.36,47.89s0-.01-.02-.02c-.1-.1-.3-.41.02.02ZM10.35,52.78s-.05,0-.09,0c-.1,0-.38-.02-.47-.02-.12-.03-.24-.06-.35-.09-.02,0-.06-.02-.09-.03-.04-.02-.07-.04-.11-.06-.09-.05-.18-.1-.27-.16-.07-.05-.1-.08-.13-.09-.6-.52-1.14-1.14-1.7-1.7-.8-.8-1.59-1.59-2.39-2.39-.07-.07-.14-.14-.21-.21-.05-.05-.09-.09-.13-.14-.07-.1-.14-.21-.2-.32-.04-.07-.07-.13-.11-.2-.06-.17-.1-.34-.13-.51,0-.1,0-.2,0-.3,0-.04,0-.08,0-.12,0-.07.02-.15.03-.19.02-.1.11-.35.14-.45.06-.11.12-.22.19-.33.08-.12.32-.43-.07.07.07-.09.13-.17.21-.25.03-.03.05-.07.08-.1.1-.1.19-.19.29-.29.51-.51,1.03-1.03,1.54-1.54,1.72-1.72,3.45-3.45,5.17-5.17,1.53-1.53,3.06-3.06,4.58-4.58.27-.27.54-.54.81-.81.1-.1.22-.19.33-.29-.54.44.04,0,.21-.08,0,0,.01,0,.02-.01.05-.02.13-.05.19-.07.1-.03.2-.06.3-.08.03,0,.09-.02.14-.03.16,0,.32,0,.48,0,.07.01.14.03.22.05.1.02.19.05.29.08.2.1.38.21.56.34-.55-.38-.03,0,.12.15.1.1.2.2.3.3.37.37.75.75,1.12,1.12.81.81,1.63,1.63,2.44,2.44.08.08.17.17.25.25.01.01.02.02.03.03.08.08.15.16.22.24,0,0,0,0,0,0,0,0,0,0,0,0,.06.1.12.2.17.3,0,.05.13.36.15.47,0,.03.01.06.02.09,0,.04,0,.09.01.12,0,.1,0,.21,0,.31,0,.03,0,.06,0,.08-.03.18-.08.35-.13.52-.03.07-.07.14-.11.21-.02.04-.05.09-.07.13-.01.01-.02.04-.04.06-.07.09-.16.16-.23.24-.09.09-.17.17-.26.26-3.09,3.09-6.18,6.18-9.27,9.27-.96.96-1.92,1.92-2.88,2.88-.07.07-.14.14-.2.22-.14.09-.28.16-.43.24-.09.03-.19.05-.28.08-.07.02-.15.03-.22.05h0Z"/>
      <path class="cls-1" d="M42.88,26.39c2.59-2.59,5.18-5.18,7.77-7.77,1.34-1.34,2.68-2.68,4.02-4.02.75-.75,1.34-1.54,1.72-2.54.8-2.09.16-4.57-1.4-6.14-1.36-1.36-2.72-2.72-4.08-4.08-.49-.49-1.03-.95-1.65-1.24-1.2-.57-2.4-.7-3.7-.53-1.28.17-2.42.9-3.31,1.8-3.04,3.04-6.07,6.07-9.11,9.11-1.03,1.03-2.06,2.06-3.09,3.09-1.46,1.46-2,3.51-1.63,5.52.26,1.42,1.16,2.53,2.15,3.51,1.17,1.17,2.34,2.35,3.52,3.52.9.9,2.08,1.57,3.36,1.73,1.92.25,3.77-.28,5.17-1.64.1-.1.18-.22.27-.31h0ZM46.05,3.97c-.1.05-.17.08-.22.1.07-.04.15-.07.22-.1ZM32.68,19.57s0-.01-.02-.02c-.09-.1-.3-.41.02.02ZM38.67,24.46s-.05,0-.09,0c-.1,0-.38-.02-.47-.02-.12-.03-.24-.06-.35-.09-.02,0-.06-.02-.09-.03-.04-.02-.07-.04-.11-.06-.09-.05-.18-.1-.27-.16-.07-.04-.12-.06-.14-.08-.61-.52-1.16-1.12-1.72-1.68-.8-.8-1.59-1.59-2.39-2.39-.07-.07-.14-.14-.21-.21-.05-.05-.08-.11-.12-.16-.07-.1-.13-.22-.19-.33-.04-.07-.07-.13-.1-.2-.06-.17-.1-.34-.13-.51,0-.1,0-.2,0-.3,0-.04,0-.08,0-.12,0-.07.02-.15.03-.19.02-.1.11-.35.14-.45.06-.11.12-.22.19-.33.08-.12.32-.43-.07.07.07-.09.13-.17.21-.25.03-.03.05-.07.08-.1.1-.1.19-.19.29-.29.51-.51,1.03-1.03,1.54-1.54,1.72-1.72,3.45-3.45,5.17-5.17,1.53-1.53,3.06-3.06,4.58-4.58.27-.27.54-.54.81-.81.1-.1.22-.19.33-.29-.54.44.04,0,.21-.08,0,0,.01,0,.02-.01.05-.02.13-.05.19-.07.1-.03.2-.06.3-.08.03,0,.09-.02.14-.03.16,0,.32,0,.48,0,.07.01.15.03.22.05.1.02.19.05.29.08.2.1.37.23.55.35-.55-.38-.05.01.1.16.1.1.2.2.3.3.37.37.75.75,1.12,1.12.81.81,1.63,1.63,2.44,2.44.08.08.17.17.25.25.01.01.02.02.03.03.08.08.17.14.24.22,0,0,0,0,0,0,0,0,0,0,0,0,.06.1.12.2.18.3,0,.05.13.35.15.47,0,.03.01.06.02.09,0,.04,0,.09.01.12,0,.1,0,.21,0,.31,0,.03,0,.06,0,.08-.03.17-.08.35-.13.52-.03.07-.07.14-.11.21-.02.04-.05.09-.07.13-.01.01-.02.04-.04.06-.07.09-.16.16-.24.24-.09.09-.17.17-.26.26-3.09,3.09-6.18,6.18-9.27,9.27-.96.96-1.92,1.92-2.88,2.88-.07.07-.14.14-.2.22-.14.09-.28.16-.43.24-.09.03-.19.05-.28.08-.07.02-.15.03-.22.05h0Z"/>
      <g>
        <path class="cls-1" d="M32.67,19.55s-.01-.02-.02-.03c-.26-.35-.07-.08.02.03Z"/>
        <path class="cls-1" d="M45.83,4.07s.12-.05.22-.1c-.07.03-.15.06-.22.1Z"/>
        <path class="cls-1" d="M17.73,32.29c-.07.03-.15.06-.22.1.05-.02.12-.05.22-.1Z"/>
      </g>
      <path class="cls-1" d="M14.35,49.32c-.96.96-1.91,1.92-2.87,2.88-.07.07-.14.14-.2.22-.14.09-.28.16-.43.24-.09.03-.19.05-.28.08-.07.02-.15.03-.22.05-.02,0-.05,0-.09,0-.1,0-.38-.02-.47-.02-.12-.03-.24-.06-.35-.09-.02,0-.06-.02-.09-.03-.04-.02-.07-.04-.11-.06-.09-.05-.18-.1-.27-.16-.07-.05-.1-.08-.13-.09-.6-.52-1.14-1.14-1.7-1.7-.8-.8-1.59-1.59-2.39-2.39-.07-.07-.14-.14-.21-.21-.05-.05-.09-.09-.13-.14-.07-.1-.14-.21-.2-.32-.04-.07-.07-.13-.11-.2-.06-.17-.1-.34-.13-.51,0-.1,0-.2,0-.3,0-.04,0-.08,0-.12,0-.07.02-.15.03-.19.02-.1.11-.35.14-.45.06-.11.12-.22.19-.33.02-.03.05-.07.08-.11-.05.06-.1.12-.15.18.3-.38.23-.3.15-.18.02-.02.04-.05.06-.07.03-.03.05-.07.08-.1.1-.1.19-.19.29-.29.51-.51,1.03-1.03,1.54-1.54,1.72-1.72,3.43-3.45,5.15-5.17.98-.98,2.17-1.96,2.93-2.94v-5.55c0,.15-.34.32-.51.48-3.04,3.04-6.06,6.07-9.1,9.11-1.03,1.03-2.06,2.06-3.09,3.09-1.46,1.46-1.98,3.49-1.61,5.5.26,1.42,1.18,2.51,2.16,3.5,1.17,1.17,2.35,2.35,3.52,3.52.9.9,2.06,1.58,3.34,1.75,1.92.25,3.74-.27,5.15-1.63.06-.06.14-.12.14-.18v-5.61s-.04.06-.08.09h0ZM4.35,47.87c-.1-.1-.3-.41.02.02,0,0,0-.01-.02-.02Z"/>
      <path class="cls-1" d="M19.41,32.56c.08.05.16.1.24.15-.22-.15-.27-.18-.24-.15Z"/>
      <path class="cls-1" d="M32.54,17.23c.05-.06.1-.12.15-.18.08-.12.15-.2-.15.18Z"/>
      <path class="cls-1" d="M30.05,14.06c-1.46,1.46-2,3.51-1.63,5.52.26,1.42,1.16,2.53,2.15,3.51,1.17,1.17,2.34,2.35,3.52,3.52.9.9,2.17,1.57,3.45,1.73,1.34.17,2.5-.03,3.89-.64v-5.26c-.5.48-1.04.95-1.52,1.43-.07.07-.19.14-.25.22-.14.09-.31.16-.45.24-.09.03-.2.05-.29.08-.07.02-.16.03-.23.05-.02,0-.06,0-.09,0-.1,0-.38-.02-.47-.02-.12-.03-.24-.06-.36-.09-.02,0-.06-.02-.09-.03-.04-.02-.07-.04-.11-.06-.09-.05-.19-.1-.28-.16-.07-.04-.12-.06-.14-.08-.61-.52-1.16-1.12-1.72-1.68-.8-.8-1.59-1.59-2.39-2.39-.07-.07-.14-.14-.21-.21-.05-.05-.08-.11-.12-.16-.01-.02-.02-.03-.03-.05-.09-.1-.28-.38-.02-.03-.05-.08-.1-.17-.15-.25-.04-.07-.07-.13-.1-.2-.06-.17-.1-.34-.13-.51,0-.1,0-.2,0-.3,0-.04,0-.08,0-.12,0-.07.02-.15.03-.19.02-.1.11-.35.14-.45.06-.11.12-.22.19-.33.02-.03.05-.07.08-.11-.05.06-.1.12-.15.18.3-.38.23-.3.15-.18.02-.02.04-.05.06-.07.03-.03.05-.07.08-.1.1-.1.19-.19.29-.29.51-.51,1.03-1.03,1.54-1.54,1.72-1.72,3.54-3.45,5.26-5.17.47-.47.99-.93,1.49-1.4V2.88c-2.78,2.7-5.49,5.39-8.18,8.09-1.03,1.03-2.15,2.06-3.18,3.09h0Z"/>
      <path class="cls-1" d="M32.68,19.57s-.03-.03-.04-.05c0,0,.01.02.02.03,0,0,0,0,0,0,0,0,.01.01.02.02h0Z"/>
      <path class="cls-1" d="M35.91,17.93c-2.23,2.23-4.47,4.47-6.7,6.7-3.3,3.3-6.59,6.59-9.89,9.89-.47.47-.94.94-1.41,1.41-.76.76-.76,2.03,0,2.8.76.76,2.03.76,2.8,0,2.23-2.23,4.47-4.47,6.7-6.7,3.3-3.3,6.59-6.59,9.89-9.89.47-.47.94-.94,1.41-1.41.76-.76.76-2.03,0-2.8-.76-.76-2.03-.76-2.8,0h0Z"/>
      <path class="cls-1" d="M25.96,33.47c-.93.93-1.86,1.86-2.8,2.79.15.15.3.3.46.46.08.08.17.17.25.25.01.01.02.02.03.03.08.08.15.16.22.24,0,0,0,0,0,0,0,0,0,0,0,0,.04.06.07.12.11.18l2.83-2.83c-.11-.14-.24-.27-.36-.4-.25-.25-.49-.49-.74-.74h0Z"/>
      <path class="cls-1" d="M19.41,32.56s.01,0,.24.15c-.08-.05-.16-.1-.24-.15.05.04.27.21.36.3.1.1.2.2.3.3.1.1.21.21.31.31.93-.93,1.86-1.86,2.8-2.8-.18-.18-.36-.36-.55-.55-.19-.19-.39-.37-.6-.54l-2.84,2.84c.08.04.15.08.23.13h0Z"/>
      <path class="cls-1" d="M37.28,24.11c-.07-.04-.12-.06-.14-.08-.31-.26-.6-.55-.89-.84-.93.93-1.86,1.86-2.79,2.79.21.21.42.42.63.63.16.16.33.32.51.46l2.86-2.86c-.06-.03-.12-.07-.18-.11h0Z"/>
      <path class="cls-1" d="M30.66,23.18c.93-.93,1.86-1.86,2.8-2.8-.14-.14-.29-.29-.43-.43-.07-.07-.14-.14-.21-.21-.05-.05-.08-.11-.12-.16-.01-.02-.02-.03-.03-.05-.09-.1-.28-.38-.02-.03-.05-.08-.1-.17-.15-.25-.02-.03-.04-.07-.06-.1l-2.85,2.85c.3.38.63.74.97,1.08.03.03.06.06.09.09h0Z"/>
    </g>
  </g>
</svg>