<?xml version="1.0" encoding="UTF-8"?>
<svg id="Layer_2" xmlns="http://www.w3.org/2000/svg" width="12" height="12" viewBox="0 0 14.89 14">
  <defs>
    <style>
      .cls-1 {
        fill: #0c9ffa;
      }
    </style>
  </defs>
  <g id="Layer_1-2" data-name="Layer_1">
    <g>
      <path class="cls-1" d="M2.49,14h7.59c1.37,0,2.49-1.12,2.49-2.49v-3.44c0-.33-.27-.59-.59-.59s-.59.27-.59.59v3.44c0,.72-.59,1.31-1.31,1.31H2.49c-.72,0-1.31-.59-1.31-1.31V3.92c0-.72.59-1.31,1.31-1.31h5.52c.33,0,.59-.27.59-.59s-.27-.59-.59-.59H2.49C1.12,1.42,0,2.54,0,3.92v7.59c0,1.37,1.12,2.49,2.49,2.49Z"/>
      <path class="cls-1" d="M5.17,5.87c-.43-.5-1.18-.55-1.67-.12-.5.43-.55,1.18-.12,1.67l2.36,2.73c.23.26.55.41.9.41s.67-.15.9-.41L14.6,1.96c.43-.5.37-1.25-.12-1.67-.5-.43-1.24-.37-1.67.12l-6.18,7.15-1.46-1.69Z"/>
    </g>
  </g>
</svg>