<?xml version="1.0" encoding="UTF-8"?>
<svg id="Layer_2" data-name="Layer 2" xmlns="http://www.w3.org/2000/svg" viewBox="0 0 16.66 15.65">
  <defs>
    <style>
      .cls-1 {
        fill: #03cf65;
      }
    </style>
  </defs>
  <g id="Layer_1-2" data-name="Layer 1">
    <g>
      <path class="cls-1" d="M8.58,10.7h0c-.31,0-.61-.12-.84-.35l-3.26-3.26c-.23-.23-.23-.61,0-.84l.84-.84c.23-.23.61-.23.84,0l2.43,2.43L14.81,1.61c.23-.23.61-.23.84,0l.84.84c.23.23.23.61,0,.84l-7.07,7.07c-.22.22-.52.35-.84.35Z"/>
      <path class="cls-1" d="M15.53,6.42l-1.3,1.3s0,.07,0,.11c0,3.53-2.87,6.4-6.4,6.4S1.43,11.36,1.43,7.83,4.3,1.43,7.83,1.43c1.4,0,2.7.45,3.75,1.22l1.02-1.02c-1.32-1.02-2.98-1.63-4.78-1.63C3.5,0,0,3.5,0,7.83s3.5,7.83,7.83,7.83,7.83-3.5,7.83-7.83c0-.48-.04-.95-.13-1.41Z"/>
    </g>
  </g>
</svg>