<?xml version="1.0" encoding="UTF-8"?>
<svg id="Layer_2" xmlns="http://www.w3.org/2000/svg" viewBox="0 0 25.37 25.52">
  <defs>
    <style>
      .cls-1 {
        fill: #0c9ffa;
      }
    </style>
  </defs>
  <g id="Layer_1-2" data-name="Layer_1">
    <path class="cls-1" d="M.53,14.46c-.58-.85-.69-1.93-.31-2.88.86-1.76,2.3-3.16,4.08-3.97,1.29-.64,2.68-1.04,4.11-1.17-.62.77-1.25,1.59-1.87,2.46-1.27,1.93-2.36,3.97-3.25,6.1l-.38.86c-.96-.08-1.83-.59-2.38-1.39ZM1.99,18.93c-.92,1.27-1.58,2.7-1.94,4.23-.23.99.39,1.97,1.38,2.2.27.06.55.06.82,0,1.52-.36,2.96-1.02,4.22-1.94h0c1.24-1.24,1.24-3.25,0-4.49-1.24-1.24-3.25-1.24-4.49,0h0ZM10.38,22.08l-.87.38v.31c0,.74.3,1.46.83,1.98.5.49,1.18.76,1.88.76,2.49-.04,4.51-2.3,5.57-4.42.65-1.31,1.05-2.72,1.17-4.18-.78.63-1.61,1.27-2.49,1.9-1.93,1.27-3.97,2.36-6.09,3.25h0ZM25.37,3.16c-.14,4.6-3.45,9.16-10.13,13.95-1.82,1.18-3.73,2.19-5.73,3.04v-.59c0-2.04-1.66-3.69-3.7-3.7h-.59c.84-1.99,1.86-3.91,3.04-5.73C13.04,3.47,17.59.15,22.19,0c2.29,0,3.18.93,3.18,3.16ZM19.03,8.98c0-1.46-1.18-2.64-2.64-2.64s-2.64,1.18-2.64,2.64,1.18,2.64,2.64,2.64,2.64-1.18,2.64-2.64Z"/>
  </g>
</svg>