<?xml version="1.0" encoding="UTF-8"?>
<svg id="Layer_2" data-name="Layer 2" xmlns="http://www.w3.org/2000/svg" viewBox="0 0 52.67 52.67">
  <defs>
    <style>
      .cls-1 {
        fill: #0c9ffa;
      }
    </style>
  </defs>
  <g id="Layer_1-2" data-name="Layer 1">
    <g>
      <path class="cls-1" d="M39.63,28.55c.01.56-.19,1.1-.58,1.51-.39.42-.91.65-1.49.67h-12.88c-1.16,0-2.12-.94-2.12-2.11v-12.74c0-1.17.96-2.12,2.13-2.12s2.11.95,2.12,2.12v10.61h10.75c1.13,0,2.03.93,2.07,2.06Z"/>
      <path class="cls-1" d="M26.34,0C11.81,0,0,11.81,0,26.33s11.81,26.34,26.34,26.34c7.03,0,13.65-2.74,18.62-7.71,4.97-4.98,7.71-11.59,7.71-18.63C52.67,11.81,40.86,0,26.34,0ZM26.34,47.55c-11.7,0-21.22-9.52-21.22-21.22S14.64,5.12,26.34,5.12c5.66,0,10.99,2.21,14.99,6.22,4.01,4,6.22,9.33,6.22,14.99,0,11.7-9.51,21.22-21.21,21.22Z"/>
    </g>
  </g>
</svg>