<?xml version="1.0" encoding="UTF-8"?>
<svg id="Layer_2" xmlns="http://www.w3.org/2000/svg" viewBox="0 0 20.11 21.31">
  <g id="Layer_1-2" data-name="Layer_1">
    <g id="_x36_15" class="cls-1">
      <path class="cls-2" d="M8.23,13.59h3.65c.87,0,1.57-.71,1.57-1.57v-.2h1.78c2.69,0,4.88-2.19,4.88-4.88s-2.19-4.89-4.88-4.89h-1.78v-.47c0-.87-.7-1.58-1.57-1.58h-3.65c-.86,0-1.57.71-1.57,1.58v.2h-3.32l.25-.25c.35-.35.35-.91,0-1.26-.35-.35-.91-.35-1.25,0l-1.78,1.78c-.38.38-.3.95,0,1.25l1.78,1.78c.33.33.9.35,1.25,0,.35-.35.35-.91,0-1.26l-.26-.26h3.33v.75c0,.87.71,1.57,1.57,1.57h3.65c.87,0,1.57-.7,1.57-1.57v-.47h1.78c1.71,0,3.11,1.39,3.11,3.12s-1.39,3.11-3.11,3.11h-1.78v-.75c0-.86-.7-1.57-1.57-1.57h-3.65c-.86,0-1.57.71-1.57,1.57v.46h-1.77c-2.7,0-4.89,2.19-4.89,4.89s2.19,4.88,4.89,4.88h1.77v.2c0,.87.71,1.57,1.57,1.57h3.65c.87,0,1.57-.7,1.57-1.57v-.47h3.33l-.26.26c-.35.35-.35.91,0,1.25.33.35.91.36,1.25,0,.09-.09,1.89-1.88,1.78-1.77.36-.36.34-.91,0-1.25-.09-.09-1.89-1.89-1.78-1.78-.35-.35-.91-.35-1.25,0-.35.35-.35.91,0,1.26l.25.25h-3.32v-.47c0-.87-.7-1.57-1.57-1.57h-3.65c-.86,0-1.57.7-1.57,1.57v.74h-1.77c-1.72,0-3.12-1.39-3.12-3.11s1.39-3.12,3.12-3.12h1.77v.49c0,.86.71,1.57,1.57,1.57Z"/>
    </g>
  </g>
</svg>