<?xml version="1.0" encoding="UTF-8"?>
<svg id="Layer_2" data-name="Layer 2" xmlns="http://www.w3.org/2000/svg" viewBox="0 0 18.58 21.29">
  <defs>
    <style>
      .cls-1 {
        fill: #0c9ffa;
        stroke-width: 0px;
      }
    </style>
  </defs>
  <g id="Layer_1-2" data-name="Layer 1">
    <g>
      <path class="cls-1" d="M13.48,5.38c-.41-.66-.96-1.19-1.64-1.55-.68-.36-1.52-.54-2.5-.54s-1.85.21-2.54.61c-.68.4-1.24.95-1.67,1.63-.41.66-.71,1.44-.88,2.32-.05.26-.09.53-.13.8-.03.23.12.44.34.47.22.03.42-.13.44-.36.03-.25.07-.5.12-.74.15-.77.4-1.46.76-2.03.35-.56.82-1.02,1.39-1.36.56-.33,1.29-.5,2.15-.5s1.58.15,2.14.45c.55.3,1,.72,1.34,1.26.34.56.59,1.24.73,2.04.15.83.23,1.76.23,2.75,0,.92-.08,1.8-.23,2.6-.15.78-.4,1.48-.76,2.06-.35.57-.82,1.03-1.39,1.36-.56.33-1.28.5-2.15.5s-1.6-.15-2.16-.44c-.56-.29-.99-.7-1.32-1.25-.34-.57-.59-1.27-.73-2.07-.06-.32-.1-.66-.14-1.01-.02-.23-.22-.39-.44-.37-.22.02-.37.23-.35.46.04.37.09.73.15,1.07.16.9.44,1.69.84,2.36.4.67.95,1.19,1.64,1.55.67.35,1.52.52,2.51.52s1.86-.2,2.54-.6c.69-.4,1.25-.95,1.67-1.64.41-.67.71-1.46.87-2.35.16-.86.25-1.79.25-2.77,0-1.05-.08-2.03-.24-2.91-.16-.9-.45-1.69-.84-2.33h0Z"/>
      <path class="cls-1" d="M18.01,5.84c-.39-1.31-.98-2.41-1.74-3.28-.77-.87-1.74-1.53-2.89-1.95-1.13-.41-2.44-.62-3.9-.62-1.54,0-2.91.25-4.08.75-1.18.5-2.18,1.23-2.98,2.17-.8.93-1.41,2.08-1.81,3.41-.4,1.31-.6,2.81-.6,4.44,0,1.77.19,3.33.56,4.64.38,1.32.96,2.44,1.72,3.31.77.87,1.74,1.53,2.89,1.95,1.13.42,2.46.63,3.95.63s2.9-.25,4.06-.74c1.18-.5,2.18-1.23,2.98-2.17.8-.93,1.41-2.09,1.81-3.44.4-1.33.6-2.85.6-4.52,0-1.74-.19-3.27-.58-4.58h0ZM17.23,14.69c-.37,1.24-.92,2.29-1.65,3.14-.72.85-1.62,1.51-2.69,1.96-1.07.45-2.34.68-3.77.68s-2.65-.2-3.69-.58c-1.04-.38-1.88-.95-2.57-1.73-.68-.78-1.2-1.78-1.54-2.98-.35-1.23-.53-2.71-.53-4.4,0-1.55.19-2.96.56-4.19.37-1.22.92-2.26,1.65-3.11.72-.85,1.63-1.5,2.69-1.95,1.08-.46,2.35-.69,3.78-.69s2.6.19,3.64.57c1.03.37,1.89.95,2.57,1.73.69.77,1.22,1.77,1.57,2.96.36,1.22.54,2.68.54,4.33s-.19,3.02-.56,4.27h0Z"/>
      <path class="cls-1" d="M4.41,10.98c.22,0,.4-.19.4-.42s-.18-.42-.4-.42h0c-.22,0-.4.19-.4.42s.18.42.4.42Z"/>
    </g>
  </g>
</svg>