<svg width="93" height="93" viewBox="0 0 93 93" fill="none" xmlns="http://www.w3.org/2000/svg">
<g clip-path="url(#clip0_3563_70)">
<g opacity="0.07">
<path d="M46.39 92.78C72.0105 92.78 92.78 72.0105 92.78 46.39C92.78 20.7695 72.0105 0 46.39 0C20.7695 0 0 20.7695 0 46.39C0 72.0105 20.7695 92.78 46.39 92.78Z" fill="#0C9FFA"/>
</g>
<path d="M51.5556 32.6717H48.1156V29.2317C48.1156 28.2817 47.3456 27.5117 46.3956 27.5117C45.4456 27.5117 44.6756 28.2817 44.6756 29.2317V32.6717H41.2356C40.2856 32.6717 39.5156 33.4417 39.5156 34.3917C39.5156 35.3417 40.2856 36.1117 41.2356 36.1117H44.6756V39.5517C44.6756 40.5017 45.4456 41.2717 46.3956 41.2717C47.3456 41.2717 48.1156 40.5017 48.1156 39.5517V36.1117H51.5556C52.5056 36.1117 53.2756 35.3417 53.2756 34.3917C53.2756 33.4417 52.5056 32.6717 51.5556 32.6717Z" fill="#0C9FFA"/>
<path d="M58.9134 25.5117H51.5634V29.6917H58.9134C61.2134 29.6917 63.0934 31.5717 63.0934 33.8717V45.5417L62.3034 44.7517C59.8634 42.3117 55.8934 42.3117 53.4734 44.7517L46.1434 52.0817C45.7234 52.5017 45.1434 52.7317 44.5334 52.6917C43.9234 52.6517 43.3834 52.3817 43.0334 51.9217L40.5034 48.7317C39.3934 47.3517 37.7234 46.5017 35.9534 46.4117C34.1834 46.3217 32.4434 46.9717 31.1734 48.2517L29.6934 49.7317V33.8817C29.6934 31.5817 31.5734 29.7017 33.8734 29.7017H41.2234V25.5217H33.8734C29.2634 25.5217 25.5234 29.2617 25.5234 33.8717V58.9217C25.5234 63.5317 29.2634 67.2717 33.8734 67.2717H58.9234C63.5334 67.2717 67.2734 63.5317 67.2734 58.9217V33.8717C67.2734 29.2617 63.5334 25.5217 58.9234 25.5217L58.9134 25.5117ZM63.0934 58.9117C63.0934 61.2117 61.2134 63.0917 58.9134 63.0917H33.8634C31.5634 63.0917 29.6834 61.2117 29.6834 58.9117V55.5917L34.1334 51.1417C34.5534 50.7217 35.1334 50.4917 35.7434 50.5317C36.3534 50.5717 36.8934 50.8417 37.2434 51.3017L39.7734 54.4917C40.8834 55.8717 42.5534 56.7217 44.3234 56.8117H44.6534C46.3034 56.8117 47.9134 56.1417 49.1034 54.9717L56.4334 47.6417C57.2234 46.8517 58.5834 46.8517 59.3734 47.6417L63.1334 51.4017V58.9017H63.0934V58.9117Z" fill="#0C9FFA"/>
</g>
<defs>
<clipPath id="clip0_3563_70">
<rect width="92.78" height="92.78" fill="white"/>
</clipPath>
</defs>
</svg>
