<?xml version="1.0" encoding="UTF-8"?>
<svg xmlns="http://www.w3.org/2000/svg" xmlns:xlink="http://www.w3.org/1999/xlink" viewBox="0 0 375.98 359.44">
  <defs>
    <style>
      .cls-1 {
        fill: #6d6d6d;
        font-family: Poppins-Regular, Poppins;
        font-size: 10.77px;
      }

      .cls-2 {
        fill: #ffde2e;
      }

      .cls-2, .cls-3, .cls-4, .cls-5, .cls-6, .cls-7, .cls-8, .cls-9, .cls-10, .cls-11, .cls-12, .cls-13, .cls-14, .cls-15, .cls-16, .cls-17, .cls-18, .cls-19, .cls-20, .cls-21, .cls-22, .cls-23, .cls-24, .cls-25, .cls-26, .cls-27, .cls-28, .cls-29, .cls-30, .cls-31, .cls-32, .cls-33, .cls-34, .cls-35, .cls-36, .cls-37, .cls-38, .cls-39 {
        stroke-width: 0px;
      }

      .cls-40 {
        clip-path: url(#clippath-11);
      }

      .cls-3 {
        fill: #f3e6dd;
      }

      .cls-4, .cls-41 {
        fill: #ebebf1;
      }

      .cls-5 {
        fill: #ff5f23;
      }

      .cls-6 {
        fill: #042f8f;
      }

      .cls-7 {
        fill: #c2cb9b;
      }

      .cls-8 {
        fill: #ff5413;
      }

      .cls-42, .cls-43, .cls-36 {
        opacity: .5;
      }

      .cls-44, .cls-22 {
        fill: #05d4f5;
      }

      .cls-45 {
        clip-path: url(#clippath-2);
      }

      .cls-46 {
        clip-path: url(#clippath-13);
      }

      .cls-47 {
        isolation: isolate;
      }

      .cls-48 {
        clip-path: url(#clippath-6);
      }

      .cls-10 {
        fill: #c4c3ec;
      }

      .cls-11, .cls-43, .cls-49 {
        fill: none;
      }

      .cls-50 {
        clip-path: url(#clippath-7);
      }

      .cls-12, .cls-34 {
        fill: #637573;
      }

      .cls-13 {
        fill: url(#Degradado_sin_nombre_33-4);
      }

      .cls-13, .cls-16 {
        opacity: .4;
      }

      .cls-13, .cls-16, .cls-17, .cls-18, .cls-30, .cls-36 {
        mix-blend-mode: multiply;
      }

      .cls-14 {
        fill: #cdcbc3;
      }

      .cls-51 {
        clip-path: url(#clippath-1);
      }

      .cls-52 {
        clip-path: url(#clippath-4);
      }

      .cls-15 {
        fill: #c8d2d9;
      }

      .cls-43 {
        stroke: #5f706d;
        stroke-width: .27px;
      }

      .cls-43, .cls-49 {
        stroke-miterlimit: 10;
      }

      .cls-16 {
        fill: url(#Degradado_sin_nombre_33-3);
      }

      .cls-17 {
        fill: url(#Degradado_sin_nombre_33-6);
      }

      .cls-17, .cls-18, .cls-30 {
        opacity: .6;
      }

      .cls-18 {
        fill: url(#Degradado_sin_nombre_33-5);
      }

      .cls-19 {
        fill: #919dd6;
      }

      .cls-20 {
        fill: #12b0f3;
      }

      .cls-21 {
        fill: #90a19f;
      }

      .cls-53 {
        clip-path: url(#clippath-12);
      }

      .cls-23 {
        fill: #1393f2;
      }

      .cls-24 {
        fill: #5f706d;
      }

      .cls-25 {
        fill: #b7b6e3;
      }

      .cls-26 {
        fill: #001c44;
      }

      .cls-27 {
        fill: #b76a31;
      }

      .cls-28 {
        fill: #170600;
      }

      .cls-54 {
        clip-path: url(#clippath-9);
      }

      .cls-55 {
        clip-path: url(#clippath);
      }

      .cls-29 {
        fill: #e6ffcf;
      }

      .cls-30 {
        fill: url(#Degradado_sin_nombre_33-2);
      }

      .cls-31 {
        fill: #f5ffec;
      }

      .cls-56 {
        clip-path: url(#clippath-3);
      }

      .cls-32 {
        fill: #7e8b89;
      }

      .cls-57 {
        clip-path: url(#clippath-8);
      }

      .cls-58, .cls-33 {
        fill: #dad9e8;
      }

      .cls-34 {
        opacity: .3;
      }

      .cls-35 {
        fill: #74ffc0;
      }

      .cls-36 {
        fill: url(#Degradado_sin_nombre_33);
      }

      .cls-59 {
        clip-path: url(#clippath-14);
      }

      .cls-37 {
        fill: #e4e3ee;
      }

      .cls-60 {
        clip-path: url(#clippath-5);
      }

      .cls-38 {
        fill: #171c29;
      }

      .cls-49 {
        stroke: #000;
        stroke-linecap: round;
        stroke-width: .91px;
      }

      .cls-61 {
        clip-path: url(#clippath-10);
      }

      .cls-39 {
        fill: #a6b5c2;
      }
    </style>
    <radialGradient id="Degradado_sin_nombre_33" data-name="Degradado sin nombre 33" cx="297.08" cy="2883.28" fx="297.08" fy="2883.28" r="73.66" gradientTransform="translate(0 -794.94) scale(1 .39)" gradientUnits="userSpaceOnUse">
      <stop offset="0" stop-color="#609a94"/>
      <stop offset="1" stop-color="#609a94" stop-opacity="0"/>
    </radialGradient>
    <radialGradient id="Degradado_sin_nombre_33-2" data-name="Degradado sin nombre 33" cx="92.74" cy="2755.78" fx="92.74" fy="2755.78" r="73.66" xlink:href="#Degradado_sin_nombre_33"/>
    <clipPath id="clippath">
      <path class="cls-11" d="m374.68,288.21l-100.2,49.27c-.65.32-1.42.32-2.07,0l-74.51-37.46c-1.72-.86-1.71-3.32.02-4.17l100.2-49.27c.65-.32,1.42-.32,2.07,0l74.51,37.46c1.72.86,1.71,3.32-.02,4.17Z"/>
    </clipPath>
    <radialGradient id="Degradado_sin_nombre_33-3" data-name="Degradado sin nombre 33" cx="321.26" cy="2692.44" fx="321.26" fy="2692.44" xlink:href="#Degradado_sin_nombre_33"/>
    <clipPath id="clippath-1">
      <path class="cls-11" d="m333.95,203.73l-100.3,49.06c-.65.32-1.42.32-2.07-.01l-34.11-17.09c-1.72-.87-1.7-3.32.03-4.17l100.3-49.06c.65-.32,1.42-.32,2.07.01l34.11,17.09c1.72.87,1.7,3.32-.03,4.17Z"/>
    </clipPath>
    <radialGradient id="Degradado_sin_nombre_33-4" data-name="Degradado sin nombre 33" cx="323.44" cy="2527.23" fx="323.44" fy="2527.23" r="73.66" xlink:href="#Degradado_sin_nombre_33"/>
    <clipPath id="clippath-2">
      <path class="cls-11" d="m178.08,234.72l-100.2,49.27c-.65.32-1.42.32-2.07,0L1.29,246.52c-1.72-.86-1.71-3.32.02-4.17l100.2-49.27c.65-.32,1.42-.32,2.07,0l74.51,37.46c1.72.86,1.71,3.32-.02,4.17Z"/>
    </clipPath>
    <radialGradient id="Degradado_sin_nombre_33-5" data-name="Degradado sin nombre 33" cx="92.74" cy="2571.64" fx="92.74" fy="2571.64" r="73.66" xlink:href="#Degradado_sin_nombre_33"/>
    <radialGradient id="Degradado_sin_nombre_33-6" data-name="Degradado sin nombre 33" cx="115.14" cy="2425.4" fx="115.14" fy="2425.4" r="33.99" xlink:href="#Degradado_sin_nombre_33"/>
    <clipPath id="clippath-3">
      <path class="cls-33" d="m129.94,115.75l3.89-2.26c.43-.25.74-.74.87-1.51l-3.89,2.26c-.12.78-.44,1.26-.87,1.51Z"/>
    </clipPath>
    <clipPath id="clippath-4">
      <path class="cls-33" d="m126.59,75.12l-3.89,2.26c1.14-.66,2.71-.58,4.48.44l3.89-2.26c-1.76-1.02-3.34-1.1-4.48-.44Z"/>
    </clipPath>
    <clipPath id="clippath-5">
      <path class="cls-4" d="m134.55,90.5l3.89-2.26c.64-4.04-2.31-9.75-6.19-11.99l-3.89,2.26c3.88,2.24,6.83,7.95,6.19,11.99Z"/>
    </clipPath>
    <clipPath id="clippath-6">
      <path class="cls-22" d="m122.86,78.03l-2.71,1.58c1.15-.67,2.75-.58,4.51.44l2.71-1.58c-1.76-1.02-3.35-1.11-4.51-.44Z"/>
    </clipPath>
    <clipPath id="clippath-7">
      <path class="cls-22" d="m129.12,95.04l2.71-1.58c1.14-.66,1.84-2.07,1.85-4.06.01-4.02-2.82-8.92-6.31-10.94l-2.71,1.58c3.5,2.02,6.33,6.92,6.31,10.94,0,2-.71,3.4-1.85,4.06Z"/>
    </clipPath>
    <clipPath id="clippath-8">
      <path class="cls-22" d="m124.03,82.69l.63-2.65c-3.5-2.02-6.34-.4-6.35,3.62-.01,4.02,2.81,8.92,6.31,10.93,3.5,2.02,6.34.4,6.36-3.62.01-4.02-2.82-8.92-6.31-10.94l-.63,2.65c2.4,1.38,4.34,4.75,4.33,7.5,0,2.75-1.96,3.87-4.36,2.48-2.4-1.38-4.34-4.74-4.33-7.5,0-2.75,1.96-3.87,4.36-2.48Z"/>
    </clipPath>
    <clipPath id="clippath-9">
      <path class="cls-22" d="m84.16,91.4l-2.71,1.58c1.15-.67,2.75-.58,4.51.44l2.71-1.58c-1.76-1.02-3.35-1.11-4.51-.44Z"/>
    </clipPath>
    <clipPath id="clippath-10">
      <path class="cls-22" d="m90.42,108.42l2.71-1.58c1.14-.66,1.84-2.07,1.85-4.06.01-4.02-2.82-8.92-6.31-10.94l-2.71,1.58c3.5,2.02,6.33,6.92,6.31,10.94,0,2-.71,3.4-1.85,4.06Z"/>
    </clipPath>
    <clipPath id="clippath-11">
      <path class="cls-22" d="m85.33,96.07l.63-2.65c-3.5-2.02-6.34-.4-6.35,3.62-.01,4.02,2.81,8.91,6.31,10.93,3.5,2.02,6.34.4,6.36-3.62.01-4.02-2.82-8.92-6.31-10.94l-.63,2.65c2.4,1.38,4.34,4.75,4.33,7.5,0,2.75-1.96,3.87-4.36,2.48-2.4-1.38-4.34-4.74-4.33-7.5,0-2.75,1.96-3.87,4.36-2.48Z"/>
    </clipPath>
    <clipPath id="clippath-12">
      <path class="cls-33" d="m84.13,133.25l3.89-2.26c.43-.25.74-.74.87-1.51l-3.89,2.26c-.12.78-.44,1.26-.87,1.51Z"/>
    </clipPath>
    <clipPath id="clippath-13">
      <path class="cls-33" d="m80.78,92.62l-3.89,2.26c1.14-.66,2.71-.58,4.48.44l3.89-2.26c-1.76-1.02-3.34-1.1-4.48-.44Z"/>
    </clipPath>
    <clipPath id="clippath-14">
      <path class="cls-4" d="m88.74,108l3.89-2.26c.64-4.04-2.31-9.75-6.19-11.99l-3.89,2.26c3.88,2.24,6.83,7.95,6.19,11.99Z"/>
    </clipPath>
  </defs>
  <g class="cls-47">
    <g id="Layer_2" data-name="Layer 2">
      <g id="Layer_1-2" data-name="Layer 1">
        <g>
          <g>
            <path class="cls-29" d="m279.82,46.45l-12.64-9.37c-.44-.33-.97-.5-1.52-.5h-66.45c-1.41,0-2.55-1.14-2.55-2.55V2.55c0-1.41,1.14-2.55,2.55-2.55h82.13c1.41,0,2.55,1.14,2.55,2.55v41.85c0,2.09-2.38,3.29-4.07,2.05Z"/>
            <path class="cls-12" d="m230.08,19.21c0,1.73-1.4,3.13-3.13,3.13s-3.13-1.4-3.13-3.13,1.4-3.13,3.13-3.13,3.13,1.4,3.13,3.13Z"/>
            <path class="cls-12" d="m244.19,19.21c0,1.73-1.4,3.13-3.13,3.13s-3.13-1.4-3.13-3.13,1.4-3.13,3.13-3.13,3.13,1.4,3.13,3.13Z"/>
            <path class="cls-12" d="m258.29,19.21c0,1.73-1.4,3.13-3.13,3.13s-3.13-1.4-3.13-3.13,1.4-3.13,3.13-3.13,3.13,1.4,3.13,3.13Z"/>
          </g>
          <ellipse class="cls-36" cx="297.08" cy="330.69" rx="73.65" ry="28.76"/>
          <g class="cls-42">
            <ellipse class="cls-30" cx="92.74" cy="280.91" rx="73.65" ry="28.76"/>
            <g>
              <g>
                <path class="cls-14" d="m178.08,238.54l-100.2,49.27c-.65.32-1.42.32-2.07,0L1.29,250.34c-1.72-.86-1.71-3.32.02-4.17l100.2-49.27c.65-.32,1.42-.32,2.07,0l74.51,37.46c1.72.86,1.71,3.32-.02,4.17Z"/>
                <rect class="cls-7" x="176.25" y="232.85" width="3.11" height="3.69"/>
                <rect class="cls-7" y="244.67" width="3.11" height="3.69"/>
                <path class="cls-31" d="m178.08,235.05l-100.2,49.27c-.65.32-1.42.32-2.07,0L1.29,246.85c-1.72-.86-1.71-3.32.02-4.17l100.2-49.27c.65-.32,1.42-.32,2.07,0l74.51,37.46c1.72.86,1.71,3.32-.02,4.17Z"/>
              </g>
              <polygon class="cls-34" points="142.85 221.88 96.88 244.2 91.98 241.92 137.95 219.59 142.85 221.88"/>
              <polygon class="cls-34" points="153.74 226.89 64.97 269.8 60.07 267.51 148.84 224.6 153.74 226.89"/>
              <polygon class="cls-34" points="164.2 231.68 75.42 274.59 70.52 272.31 159.29 229.39 164.2 231.68"/>
              <text class="cls-1" transform="translate(30.66 233.91) rotate(154.51) scale(.8) skewX(36.74)"><tspan x="0" y="0">14:03</tspan></text>
            </g>
          </g>
          <g>
            <g>
              <g>
                <path class="cls-7" d="m374.68,291.69l-100.2,49.27c-.65.32-1.42.32-2.07,0l-74.51-37.46c-1.72-.86-1.71-3.32.02-4.17l100.2-49.27c.65-.32,1.42-.32,2.07,0l74.51,37.46c1.72.86,1.71,3.32-.02,4.17Z"/>
                <rect class="cls-7" x="372.86" y="286.01" width="3.11" height="3.69"/>
                <rect class="cls-7" x="196.61" y="297.82" width="3.11" height="3.69"/>
                <path class="cls-29" d="m374.68,288.21l-100.2,49.27c-.65.32-1.42.32-2.07,0l-74.51-37.46c-1.72-.86-1.71-3.32.02-4.17l100.2-49.27c.65-.32,1.42-.32,2.07,0l74.51,37.46c1.72.86,1.71,3.32-.02,4.17Z"/>
              </g>
              <polygon class="cls-34" points="306.78 257.38 218 300.3 213.1 298.01 301.87 255.1 306.78 257.38"/>
              <polygon class="cls-34" points="317.67 262.39 228.9 305.31 223.99 303.02 312.77 260.11 317.67 262.39"/>
              <polygon class="cls-34" points="328.12 267.19 239.35 310.1 234.45 307.82 323.22 264.9 328.12 267.19"/>
              <polygon class="cls-34" points="291.96 293.98 248.94 314.68 244.04 312.39 287.06 291.69 291.96 293.98"/>
            </g>
            <text class="cls-1" transform="translate(347.4 293.71) rotate(-25.49) scale(.8) skewX(36.74)"><tspan x="0" y="0">14:01</tspan></text>
            <g class="cls-55">
              <ellipse class="cls-16" cx="321.26" cy="256.19" rx="73.65" ry="28.76"/>
            </g>
          </g>
          <g>
            <g>
              <g>
                <g>
                  <path class="cls-7" d="m334.38,207.21l-100.3,49.06c-.65.32-1.42.32-2.07-.01l-34.11-17.09c-1.72-.87-1.7-3.32.03-4.17l100.3-49.06c.65-.32,1.42-.32,2.07.01l34.11,17.09c1.72.87,1.7,3.32-.03,4.17Z"/>
                  <rect class="cls-7" x="332.56" y="201.53" width="3.11" height="3.69" transform="translate(.42 -.7) rotate(.12)"/>
                  <rect class="cls-7" x="196.61" y="233.51" width="3.11" height="3.69" transform="translate(.49 -.41) rotate(.12)"/>
                  <path class="cls-29" d="m334.38,203.73l-100.3,49.06c-.65.32-1.42.32-2.07-.01l-34.11-17.09c-1.72-.87-1.7-3.32.03-4.17l100.3-49.06c.65-.32,1.42-.32,2.07.01l34.11,17.09c1.72.87,1.7,3.32-.03,4.17Z"/>
                </g>
                <polygon class="cls-34" points="306.87 193.29 218.01 236.02 213.11 233.73 301.97 191 306.87 193.29"/>
                <polygon class="cls-34" points="270.21 219.36 227.15 239.96 222.25 237.67 265.32 217.06 270.21 219.36"/>
              </g>
              <text class="cls-1" transform="translate(308.85 210.69) rotate(-25.49) scale(.8) skewX(36.74)"><tspan x="0" y="0">14:06</tspan></text>
            </g>
            <g class="cls-51">
              <ellipse class="cls-13" cx="323.44" cy="191.68" rx="73.65" ry="28.76"/>
            </g>
          </g>
          <g>
            <g>
              <g>
                <path class="cls-7" d="m374.68,134.79l-100.2,49.27c-.65.32-1.42.32-2.07,0l-74.51-37.46c-1.72-.86-1.71-3.32.02-4.17l100.2-49.27c.65-.32,1.42-.32,2.07,0l74.51,37.46c1.72.86,1.71,3.32-.02,4.17Z"/>
                <rect class="cls-7" x="372.86" y="129.1" width="3.11" height="3.69"/>
                <rect class="cls-7" x="196.61" y="140.92" width="3.11" height="3.69"/>
                <path class="cls-29" d="m374.68,131.3l-100.2,49.27c-.65.32-1.42.32-2.07,0l-74.51-37.46c-1.72-.86-1.71-3.32.02-4.17l100.2-49.27c.65-.32,1.42-.32,2.07,0l74.51,37.46c1.72.86,1.71,3.32-.02,4.17Z"/>
              </g>
              <polygon class="cls-34" points="306.78 100.48 218 143.39 213.1 141.11 301.87 98.19 306.78 100.48"/>
              <polygon class="cls-34" points="317.67 105.49 228.9 148.4 223.99 146.12 312.77 103.2 317.67 105.49"/>
              <polygon class="cls-34" points="328.12 110.28 239.35 153.2 234.45 150.91 323.22 107.99 328.12 110.28"/>
              <polygon class="cls-34" points="291.96 137.08 248.94 157.77 244.04 155.48 287.06 134.79 291.96 137.08"/>
            </g>
            <text class="cls-1" transform="translate(346.9 138.54) rotate(-25.49) scale(.8) skewX(36.74)"><tspan x="0" y="0">14:07</tspan></text>
          </g>
          <g class="cls-45">
            <ellipse class="cls-18" cx="92.74" cy="209.02" rx="73.65" ry="28.76"/>
          </g>
          <g>
            <g>
              <g>
                <path class="cls-14" d="m168.93,152.88l-100.2,49.27c-.65.32-1.42.32-2.07,0l-44.83-23.17c-1.72-.86-1.71-3.32.02-4.17l100.2-49.27c.65-.32,1.42-.32,2.07,0l44.83,23.17c1.72.86,1.71,3.32-.02,4.17Z"/>
                <rect class="cls-7" x="167.1" y="147.2" width="3.11" height="3.69"/>
                <rect class="cls-7" x="20.53" y="173.3" width="3.11" height="3.69"/>
                <path class="cls-31" d="m168.93,149.39l-100.2,49.27c-.65.32-1.42.32-2.07,0l-44.83-23.17c-1.72-.86-1.71-3.32.02-4.17l100.2-49.27c.65-.32,1.42-.32,2.07,0l44.83,23.17c1.72.86,1.71,3.32-.02,4.17Z"/>
              </g>
              <polygon class="cls-34" points="150.68 144.09 104.72 166.42 99.82 164.13 145.78 141.8 150.68 144.09"/>
              <text class="cls-1" transform="translate(51.2 162.55) rotate(154.51) scale(.8) skewX(36.74)"><tspan x="0" y="0">14:05</tspan></text>
            </g>
            <g>
              <path class="cls-2" d="m93.59,167.83c-4.96-3.17-14.1-3.14-20.43.07-6.32,3.21-7.43,8.38-2.48,11.55,4.96,3.17,14.1,3.14,20.43-.07,6.32-3.21,7.43-8.38,2.48-11.55Z"/>
              <path class="cls-9" d="m89.26,173.17c-.86-.55-2.06-.74-2.67-.43-.61.31-.42,1.01.44,1.56.86.55,2.06.74,2.67.43.61-.31.42-1.01-.44-1.56Z"/>
              <path class="cls-9" d="m82.57,176.56c-.86-.55-2.06-.74-2.67-.43-.61.31-.42,1.01.44,1.56.86.55,2.06.74,2.67.43.61-.31.42-1.01-.44-1.56Z"/>
              <path class="cls-49" d="m87,169.89c-2.81-.42-6.11.02-8.66,1.31-2.67,1.35-3.8,3.29-3.22,4.98"/>
            </g>
          </g>
          <g>
            <g>
              <path class="cls-27" d="m285.59,52.88s1.72.49,2.41,2.04c.69,1.55,1.06,4.74,1.06,4.74l-2.74,2.08-.42-.33-1.5-4.08,1.18-4.45Z"/>
              <polygon class="cls-3" points="287.92 59.33 283.35 59.97 280.3 51.12 284.87 50.49 287.92 59.33"/>
              <polygon class="cls-35" points="287.26 58.09 283.58 58.6 281.12 51.47 284.8 50.95 287.26 58.09"/>
              <g>
                <path class="cls-27" d="m293.73,74.98c-3.51-4.29-5.16-7.04-7.83-13.56l2.85-2.56,10.6,9.83-5.62,6.29Z"/>
                <path class="cls-27" d="m292.4,72.25c.05,1.42.87,2.35,1.86,2.96,1.63,1,3.67,1.03,5.43.28l11.81-5.09-1.17-8.8-13.67,4.86s-4.42,1.33-4.26,5.8Z"/>
                <path class="cls-5" d="m312.94,58.64c4.96.25,5.09,8.27,3.31,10.56-1.78,2.29-11.96,5.6-11.96,5.6,0,0-3.44-2.04-3.95-5.47-.51-3.44,1.65-6.24,1.65-6.24l10.95-4.45Z"/>
              </g>
              <g>
                <path class="cls-39" d="m309.6,150.09c-2.42-.38-10.54-4.83-10.54-4.83l-.62-.63c-.24-.25-.4-.53-.51-.83-.31.85-.16,1.83.51,2.52l.62.63s8.11,4.45,10.54,4.83c2.42.38,7.55-1.4,7.27-4.19-.03-.29-.06-.57-.09-.84-.69,2.29-5.01,3.68-7.18,3.35Z"/>
                <path class="cls-26" d="m299.06,145.27s8.11,4.45,10.54,4.83c2.17.34,6.49-1.05,7.18-3.35-.28-2.34-.65-3.98-.65-3.98l-6.43-2-5.65.21c-1.74.07-3.45.57-4.98,1.46-.55.32-.93.81-1.13,1.36.11.3.27.59.51.83l.62.63Z"/>
                <path class="cls-15" d="m302.66,143.11h-.9c1.2-1.03,2.76-1.89,4.18-2.21h.9c-1.48.36-3.05,1.22-4.18,2.21Z"/>
                <path class="cls-15" d="m304.58,143.31h-.9c.94-1.01,2.65-1.84,4.37-2.42h.9c-1.42.54-3.23,1.28-4.37,2.42Z"/>
              </g>
              <g>
                <path class="cls-39" d="m299.72,155c-2.42-.38-10.54-4.83-10.54-4.83l-.62-.63c-.24-.25-.4-.53-.51-.83-.31.85-.16,1.83.51,2.52l.62.63s8.11,4.45,10.54,4.83c2.42.38,7.55-1.4,7.27-4.19-.03-.29-.06-.57-.09-.84-.69,2.29-5.01,3.68-7.18,3.35Z"/>
                <path class="cls-26" d="m289.18,150.17s8.11,4.45,10.54,4.83c2.17.34,6.49-1.05,7.18-3.35-.28-2.34-.65-3.98-.65-3.98l-6.43-2-5.65.21c-1.74.07-3.45.57-4.98,1.46-.55.32-.93.81-1.13,1.36.11.3.27.59.51.83l.62.63Z"/>
                <path class="cls-15" d="m292.78,148.01h-.9c1.2-1.03,2.76-1.89,4.18-2.21h.9c-1.48.36-3.05,1.22-4.18,2.21Z"/>
                <path class="cls-15" d="m294.7,148.21h-.9c.94-1.01,2.65-1.84,4.37-2.42h.9c-1.42.54-3.23,1.28-4.37,2.42Z"/>
              </g>
              <path class="cls-27" d="m274.81,79.08c.68-5.5,3.38-11.85,6.26-18.29l3.82.29-1.64,17.71-8.43.28Z"/>
              <path class="cls-27" d="m274.75,79.44c.05,1.42.87,2.35,1.86,2.96,1.63,1,3.67,1.03,5.43.28l11.81-5.09-1.17-8.8-13.67,4.86s-4.42,1.33-4.26,5.8Z"/>
              <path class="cls-32" d="m308.56,144.18l4.7.17c1.82.07,3.27-1.38,3.2-3.2l-.03-.89c0-.08,0-.17,0-.25l1.96-41.09-12.55,2.42-.57,39.38c-.02.74.22,1.47.68,2.08h0c.62.84,1.59,1.35,2.62,1.39Z"/>
              <path class="cls-43" d="m308.59,143.11s-.74-13.4-.9-19.52c-.16-6.13-.98-13.4-.98-13.4"/>
              <path class="cls-21" d="m303.33,151.37l-4.7.17c-1.82.07-3.27-1.38-3.2-3.2l.03-.89c0-.08,0-.17,0-.25l-1.82-43.79,14.05,4.41-1.06,40.08c.02.74-.22,1.47-.68,2.08h0c-.62.84-1.59,1.35-2.62,1.39Z"/>
              <path class="cls-21" d="m293.64,103.4s-.44-2.51,1.09-4.36c1.52-1.85,14.7-7.19,14.7-7.19,0,0,2.83,0,5.34,1.09,2.51,1.09,3.59,4.9,3.59,4.9,0,0,.65,6.1-1.74,7.95-2.4,1.85-10.57,6.1-10.57,6.1l-12.42-8.5Z"/>
              <path class="cls-8" d="m293.96,100.03s7.52,2.72,11.22,2.4c3.7-.33,12.53-6.43,12.53-6.43,0,0,1.31-1.85,1.31-4.47s-1.42-5.01-1.42-5.01l-.65-19.28s.22-5.12-2.61-7.19c-.86-.63-1.91-1.09-2.95-1.42-2.55-.81-5.31-.65-7.79.38-3.88,1.61-8.59,4.44-8.81,4.44-.33,0-3.02,3.65-2.7,6.37.33,2.72.03,8.63.03,8.63l.65,15.36s-.65,4.79,1.2,6.21Z"/>
              <path class="cls-5" d="m295.3,65.83c4.96.25,5.09,8.27,3.31,10.56-1.78,2.29-11.96,5.6-11.96,5.6,0,0-3.44-2.04-3.95-5.47s1.65-6.24,1.65-6.24l10.95-4.45Z"/>
              <path class="cls-27" d="m280.85,61.42c.08-1.76,1.23-2.66,1.23-2.66l1.23-1.43.12-1.55.86-.12.69,1.43.61,2.37-.86,3.02"/>
              <path class="cls-27" d="m285.39,55.53l.2,1.43s.08,1.55.94,2.16c.86.61,2.33.82,2.33.82l.2-.94-1.55-2.41-.65-.12-.74-1.14-.74.2Z"/>
              <path class="cls-27" d="m281.18,53.78s-.86,1.43-1.31,2.53c-.45,1.1.29,2.74.29,2.74l.94,2.12,1.27.37,2.29-2.7-3.47-5.06Z"/>
              <path class="cls-24" d="m297.8,103l1.06,6.86s-2.94-2.21-1.06-6.86Z"/>
              <path class="cls-43" d="m298.86,109.86s0,13.97.25,21.98c.25,8.01.16,16.83.16,17.81"/>
            </g>
            <path class="cls-27" d="m299.44,62.19s1.47,2.33,6.05,1.2c4.57-1.13,4.9-2.78,4.9-2.78,0,0-2.86-.83-5.47-.68-2.61.15-5.47,2.25-5.47,2.25Z"/>
            <path class="cls-27" d="m309.32,60.68l-2.53-5.15s1.23-2.61,1.72-5.96c.49-3.35-.9-9.39-6.62-9.39s-7.19,4.49-7.03,6.45c.16,1.96.65,2.53.65,2.53,0,0-.33,4.98,2.78,8.17.9-.08,1.63-.65,1.63-.65,0,0,.74,2.12.74,3.43s-.08,2.04-.08,2.04c0,0,2.78,2.29,8.74-1.47Z"/>
            <path class="cls-28" d="m294.89,45.43c.01.62.02,1.25.04,1.87.29.04.59.08.88.12-.18,1.31-.3,2.81.62,3.76.27.28.61.48.97.62,1.18.45,2.71.1,3.35-1,.06,1.01.34,2.01.81,2.91.38.72.96,1.43,1.76,1.57.8.15,1.74-.59,1.51-1.37.89.35.5,1.96,1.34,2.41.83.44,1.68-.73,2.61-.72.99.47,2.24.36,3.14-.27.9-.63,1.42-1.77,1.3-2.87-.07-.72-.36-1.57.14-2.1.39-.41,1.04-.35,1.6-.45,1.26-.22,2.18-1.31,2.89-2.38.49-.75.96-1.55,1.09-2.44.13-.89-.12-1.88-.84-2.42-.31-.23-.69-.37-.98-.63-.29-.26-.47-.72-.24-1.03.14-.2.4-.28.61-.41.7-.45.72-1.54.26-2.23-.46-.7-1.23-1.1-1.98-1.48,0-.72-.02-1.44-.03-2.16-1.07-1.22-2.34-2.27-3.73-3.11l-.44.53c-.75.39-1.58-.39-1.96-1.15s-.74-1.68-1.56-1.88c-.74-.18-1.56.51-1.5,1.28-.74.09-1.48-.19-2.17-.49-.69-.3-1.39-.63-2.14-.65-.75-.01-1.57.4-1.76,1.12-.07.29-.06.62-.24.84-.37.44-1.08.11-1.51-.26-.43-.37-1.06-.78-1.52-.43-.08.7-.15,1.4-.23,2.1-.9-.07-1.68.99-1.34,1.83-1.06-.43-2.39-.02-3.03.93-.64.95-.51,2.34.28,3.16-.57-.39-1.39.1-1.62.74-.29.81.07,1.58.12,2.38.04.57-.21,1.13-.17,1.67.15,1.73,2.27,1.99,3.64,2.07Z"/>
          </g>
          <ellipse class="cls-17" cx="115.14" cy="151.93" rx="33.99" ry="13.27"/>
          <g>
            <g class="cls-47">
              <g class="cls-47">
                <path class="cls-58" d="m129.94,115.75l3.89-2.26c.43-.25.74-.74.87-1.51l-3.89,2.26c-.12.78-.44,1.26-.87,1.51Z"/>
                <g class="cls-56">
                  <g class="cls-47">
                    <path class="cls-33" d="m129.94,115.75l3.89-2.26c.43-.25.74-.73.86-1.5l-3.89,2.26c-.12.77-.44,1.25-.86,1.5Z"/>
                    <path class="cls-33" d="m130.81,114.25l3.89-2.26s0,0,0-.01l-3.89,2.26s0,0,0,.01Z"/>
                  </g>
                </g>
              </g>
              <g>
                <path class="cls-58" d="m126.59,75.12l-3.89,2.26c1.14-.66,2.71-.58,4.48.44l3.89-2.26c-1.76-1.02-3.34-1.1-4.48-.44Z"/>
                <g class="cls-52">
                  <g class="cls-47">
                    <path class="cls-33" d="m127.17,77.83l3.89-2.26c-1.76-1.02-3.34-1.1-4.48-.44l-3.89,2.26c1.14-.66,2.71-.58,4.48.44Z"/>
                  </g>
                </g>
              </g>
              <polygon class="cls-33" points="130.81 114.24 134.7 111.98 138.44 88.23 134.55 90.5 130.81 114.24"/>
              <polygon class="cls-4" points="128.36 78.51 132.25 76.25 131.07 75.56 127.17 77.83 128.36 78.51"/>
              <g class="cls-47">
                <path class="cls-41" d="m134.55,90.5l3.89-2.26c.64-4.04-2.31-9.75-6.19-11.99l-3.89,2.26c3.88,2.24,6.83,7.95,6.19,11.99Z"/>
                <g class="cls-60">
                  <g class="cls-47">
                    <path class="cls-4" d="m134.55,90.5l3.89-2.26c.19-1.23.06-2.61-.34-4l-3.89,2.26c.39,1.39.53,2.77.34,4Z"/>
                    <path class="cls-4" d="m134.21,86.49l3.89-2.26c-.44-1.57-1.21-3.15-2.2-4.53l-3.89,2.26c.99,1.39,1.76,2.96,2.2,4.53Z"/>
                    <path class="cls-4" d="m132.01,81.96l3.89-2.26c-.76-1.06-1.64-2.01-2.6-2.75l-3.89,2.26c.96.74,1.85,1.69,2.6,2.75Z"/>
                    <path class="cls-4" d="m129.41,79.22l3.89-2.26c-.34-.26-.69-.5-1.05-.7l-3.89,2.26c.36.21.71.44,1.05.7Z"/>
                  </g>
                </g>
              </g>
              <path class="cls-10" d="m127.17,77.83c-3.88-2.24-6.85.05-6.24,4.81l3.59,27.98c.28,2.21,1.71,4.06,3.13,4.88,1.42.82,2.85.62,3.15-1.25l3.74-23.74c.64-4.04-2.31-9.75-6.19-11.99l-1.19-.69Z"/>
            </g>
            <g class="cls-47">
              <g class="cls-47">
                <path class="cls-44" d="m122.86,78.03l-2.71,1.58c1.15-.67,2.75-.58,4.51.44l2.71-1.58c-1.76-1.02-3.35-1.11-4.51-.44Z"/>
                <g class="cls-48">
                  <g class="cls-47">
                    <path class="cls-22" d="m124.66,80.04l2.71-1.58c-1.76-1.02-3.35-1.11-4.51-.44l-2.71,1.58c1.15-.67,2.75-.58,4.51.44Z"/>
                  </g>
                </g>
              </g>
              <path class="cls-22" d="m124.03,82.69c-2.4-1.38-4.35-.27-4.36,2.48,0,2.75,1.93,6.11,4.33,7.5,2.4,1.39,4.35.27,4.36-2.48,0-2.75-1.93-6.12-4.33-7.5Z"/>
              <g class="cls-47">
                <path class="cls-44" d="m129.12,95.04l2.71-1.58c1.14-.66,1.84-2.07,1.85-4.06.01-4.02-2.82-8.92-6.31-10.94l-2.71,1.58c3.5,2.02,6.33,6.92,6.31,10.94,0,2-.71,3.4-1.85,4.06Z"/>
                <g class="cls-50">
                  <g class="cls-47">
                    <path class="cls-22" d="m129.12,95.04l2.71-1.58c1.01-.59,1.68-1.76,1.82-3.41l-2.71,1.58c-.14,1.65-.81,2.83-1.82,3.41Z"/>
                    <path class="cls-22" d="m130.94,91.63l2.71-1.58c.02-.21.03-.42.03-.65,0-3.47-2.09-7.59-4.91-9.95l-2.71,1.58c2.82,2.36,4.92,6.48,4.91,9.95,0,.22-.01.44-.03.65Z"/>
                    <path class="cls-22" d="m126.06,81.03l2.71-1.58c-.45-.38-.92-.71-1.4-.99l-2.71,1.58c.48.28.95.61,1.4.99Z"/>
                  </g>
                </g>
              </g>
              <g class="cls-47">
                <path class="cls-44" d="m124.03,82.69l.63-2.65c-3.5-2.02-6.34-.4-6.35,3.62-.01,4.02,2.81,8.92,6.31,10.93,3.5,2.02,6.34.4,6.36-3.62.01-4.02-2.82-8.92-6.31-10.94l-.63,2.65c2.4,1.38,4.34,4.75,4.33,7.5,0,2.75-1.96,3.87-4.36,2.48-2.4-1.38-4.34-4.74-4.33-7.5,0-2.75,1.96-3.87,4.36-2.48Z"/>
                <g class="cls-57">
                  <g class="cls-47">
                    <path class="cls-20" d="m124.03,82.69l.63-2.65c-3.5-2.02-6.34-.4-6.35,3.62-.01,4.02,2.81,8.92,6.31,10.93,3.5,2.02,6.34.4,6.36-3.62.01-4.02-2.82-8.92-6.31-10.94l-.63,2.65c2.4,1.38,4.34,4.75,4.33,7.5,0,2.75-1.96,3.87-4.36,2.48-2.4-1.38-4.34-4.74-4.33-7.5,0-2.75,1.96-3.87,4.36-2.48Z"/>
                  </g>
                </g>
              </g>
            </g>
            <g>
              <path class="cls-23" d="m125.05,57.46l7.03-22.95-7.03,22.95Z"/>
              <rect class="cls-38" x="116.57" y="45.3" width="24.01" height="1.38" transform="translate(46.95 155.45) rotate(-72.97)"/>
            </g>
            <g>
              <path class="cls-19" d="m116.68,129.54c6.45-3.98,7.9-9.33,8.52-11.62-.5,2.19-2.22,4.37-5.14,6.13-7.31,4.4-19.42,4.52-27.04.27-3.27-1.82-5.19-4.16-5.73-6.58.5,1.9,1.24,4.76,4.1,8.07,1.08,1.25,3.47,3.59,7.28,5.12,5.8,2.33,12.86,1.78,18-1.4Z"/>
              <path class="cls-37" d="m92.9,77.28c-7.13,4.29-6.88,11.13.55,15.27,7.43,4.14,19.23,4.02,26.36-.27,7.13-4.29,6.88-11.13-.55-15.27-7.43-4.14-19.23-4.02-26.36.27Z"/>
              <g class="cls-47">
                <path class="cls-25" d="m125.22,117.86l5.75-25.12c-.67,2.93-2.9,5.76-6.7,8.05-9.5,5.72-25.23,5.88-35.13.36-4.25-2.37-6.74-5.41-7.44-8.55l5.61,25.15c.54,2.42,2.45,4.75,5.73,6.58,7.62,4.25,19.73,4.13,27.04-.27,2.93-1.76,4.64-3.94,5.16-6.19Z"/>
              </g>
              <path class="cls-33" d="m122.31,76.61c-9.71-5.27-23.45-5.11-32.68.37.82-.5,1.97-.46,3.27.26,7.13-4.29,18.93-4.41,26.36-.27,7.43,4.14,7.67,10.98.55,15.27-7.13,4.29-18.93,4.41-26.36.27-7.43-4.14-7.67-10.98-.55-15.27-1.29-.72-2.44-.76-3.27-.26-1.93,1.25-4.85,3.14-6.89,7.11-1.9,3.71-1.32,7.03-1.07,8.45.72,3.23,3.21,6.26,7.46,8.62,9.9,5.52,25.63,5.36,35.13-.36,3.8-2.29,6.03-5.12,6.7-8.04.24-1.28.46-2.48.23-4.37-.28-2.37-1.23-4.15-1.27-4.23-.71-1.32-2.59-4.83-7.62-7.56Z"/>
            </g>
            <g>
              <path class="cls-4" d="m96,46.28c-5.47,3.29-5.28,8.53.42,11.71,5.7,3.18,14.75,3.09,20.22-.2,5.47-3.29,5.28-8.53-.42-11.71-5.7-3.18-14.75-3.09-20.22.2Z"/>
              <g class="cls-47">
                <path class="cls-25" d="m123.86,85.51c8.8-5.45,10.73-12.65,10.8-17.74-.01,4.09-2.64,8.17-7.9,11.34-10.85,6.53-28.82,6.71-40.14.41-5.82-3.25-8.75-7.58-8.73-11.91.1,2.66.24,4.04,1.31,7.02.84,2.34,2.34,4.32,3.14,5.39.38.5,3.87,4.95,10.61,7.57,11.69,4.55,23.95,2.24,30.91-2.07Z"/>
              </g>
              <path class="cls-37" d="m123.05,45.25c-5.15-2.81-10.94-4.19-17.2-4.11-6.43.08-12.2,1.61-17.15,4.55,1.85-1.12,4.44-1.01,7.3.59,5.47-3.29,14.52-3.38,20.22-.2,5.7,3.18,5.89,8.42.42,11.71-5.47,3.29-14.52,3.38-20.22.2-5.7-3.18-5.89-8.42-.42-11.71-2.86-1.59-5.45-1.7-7.3-.59-2.61,1.68-10.55,6.81-10.8,17.74-.01,4.33,2.91,8.66,8.73,11.91,11.31,6.31,29.28,6.13,40.14-.41,5.27-3.17,7.89-7.25,7.9-11.34-.06-1.59-.12-3.39-.82-5.59-.82-2.61-1.53-3.72-2.71-5.58-.93-1.46-3.81-4.85-8.1-7.18Z"/>
              <path class="cls-6" d="m100.7,79.62c9.19,1.08,19.1-.5,26.07-4.69,5.24-3.15,7.86-7.21,7.9-11.27,0-2.64-1.08-5.07-2.91-7.02-.04,3.64-2.39,7.28-7.09,10.11-6.25,3.76-15.14,5.18-23.38,4.21-.37,2.98-.59,6.03-.6,8.67Z"/>
              <g class="cls-47">
                <path class="cls-33" d="m134.67,67.77v-4.18c0,4.09-2.62,8.17-7.89,11.34-10.85,6.53-28.82,6.71-40.14.41-5.82-3.25-8.75-7.58-8.73-11.91v4.18c-.02,4.33,2.9,8.66,8.72,11.91,11.31,6.31,29.28,6.13,40.14-.41,5.27-3.17,7.89-7.25,7.9-11.34Z"/>
              </g>
              <g>
                <path class="cls-22" d="m130.06,67.89c.56,1.58,1.51,1.68,2.18.24,1.11-2.41-.02-5.32-1.45-4.9-.26.08-.4.23-.54.38-.92,1.31-.42,3.58-.18,4.28Z"/>
                <path class="cls-22" d="m113.97,75.03c.42,2.37,3.39,2.77,4.9.66,1.57-2.2-.15-4.74-2.35-4.47-.08.01-.19.03-.27.05-1.94.56-2.5,2.54-2.28,3.77Z"/>
              </g>
            </g>
            <path class="cls-23" d="m87.46,64.85c0-1.4.98-1.97,2.2-1.27s2.2,2.41,2.2,3.81c0,1.4-.98,1.97-2.2,1.27-1.21-.7-2.2-2.41-2.2-3.81Z"/>
            <g>
              <path class="cls-23" d="m89.37,66.15l-16.02-12.03,16.02,12.03Z"/>
              <path class="cls-38" d="m89.37,66.84c.21,0,.42-.1.55-.28.23-.31.17-.74-.14-.97l-16.02-12.03c-.3-.23-.74-.17-.97.14-.23.3-.17.74.14.97l16.02,12.03c.12.09.27.14.41.14Z"/>
            </g>
            <path class="cls-23" d="m69.28,53.26c0-2.06,1.67-3.73,3.73-3.73s3.73,1.67,3.73,3.73-1.67,3.73-3.73,3.73-3.73-1.67-3.73-3.73Z"/>
            <path class="cls-23" d="m128.7,34.51c0-2.06,1.67-3.73,3.73-3.73s3.73,1.67,3.73,3.73c0,2.06-1.67,3.73-3.73,3.73s-3.73-1.67-3.73-3.73Z"/>
            <g class="cls-47">
              <g class="cls-47">
                <path class="cls-44" d="m84.16,91.4l-2.71,1.58c1.15-.67,2.75-.58,4.51.44l2.71-1.58c-1.76-1.02-3.35-1.11-4.51-.44Z"/>
                <g class="cls-54">
                  <g class="cls-47">
                    <path class="cls-22" d="m85.96,93.42l2.71-1.58c-1.76-1.02-3.35-1.11-4.51-.44l-2.71,1.58c1.15-.67,2.75-.58,4.51.44Z"/>
                  </g>
                </g>
              </g>
              <path class="cls-22" d="m85.33,96.07c-2.4-1.38-4.35-.27-4.36,2.48,0,2.75,1.93,6.11,4.33,7.5,2.4,1.39,4.35.27,4.36-2.48,0-2.75-1.93-6.12-4.33-7.5Z"/>
              <g class="cls-47">
                <path class="cls-44" d="m90.42,108.42l2.71-1.58c1.14-.66,1.84-2.07,1.85-4.06.01-4.02-2.82-8.92-6.31-10.94l-2.71,1.58c3.5,2.02,6.33,6.92,6.31,10.94,0,2-.71,3.4-1.85,4.06Z"/>
                <g class="cls-61">
                  <g class="cls-47">
                    <path class="cls-22" d="m90.42,108.42l2.71-1.58c1.01-.59,1.68-1.76,1.82-3.41l-2.71,1.58c-.14,1.65-.81,2.83-1.82,3.41Z"/>
                    <path class="cls-22" d="m92.24,105.01l2.71-1.58c.02-.21.03-.42.03-.65,0-3.47-2.09-7.59-4.91-9.95l-2.71,1.58c2.82,2.36,4.92,6.48,4.91,9.95,0,.22-.01.44-.03.65Z"/>
                    <path class="cls-22" d="m87.36,94.41l2.71-1.58c-.45-.38-.92-.71-1.4-.99l-2.71,1.58c.48.28.95.61,1.4.99Z"/>
                  </g>
                </g>
              </g>
              <g class="cls-47">
                <path class="cls-44" d="m85.33,96.07l.63-2.65c-3.5-2.02-6.34-.4-6.35,3.62-.01,4.02,2.81,8.91,6.31,10.93,3.5,2.02,6.34.4,6.36-3.62.01-4.02-2.82-8.92-6.31-10.94l-.63,2.65c2.4,1.38,4.34,4.75,4.33,7.5,0,2.75-1.96,3.87-4.36,2.48-2.4-1.38-4.34-4.74-4.33-7.5,0-2.75,1.96-3.87,4.36-2.48Z"/>
                <g class="cls-40">
                  <g class="cls-47">
                    <path class="cls-20" d="m85.33,96.07l.63-2.65c-3.5-2.02-6.34-.4-6.35,3.62-.01,4.02,2.81,8.91,6.31,10.93,3.5,2.02,6.34.4,6.36-3.62.01-4.02-2.82-8.92-6.31-10.94l-.63,2.65c2.4,1.38,4.34,4.75,4.33,7.5,0,2.75-1.96,3.87-4.36,2.48-2.4-1.38-4.34-4.74-4.33-7.5,0-2.75,1.96-3.87,4.36-2.48Z"/>
                  </g>
                </g>
              </g>
            </g>
            <g class="cls-47">
              <g class="cls-47">
                <path class="cls-58" d="m84.13,133.25l3.89-2.26c.43-.25.74-.74.87-1.51l-3.89,2.26c-.12.78-.44,1.26-.87,1.51Z"/>
                <g class="cls-53">
                  <g class="cls-47">
                    <path class="cls-33" d="m84.13,133.25l3.89-2.26c.43-.25.74-.73.86-1.5l-3.89,2.26c-.12.77-.44,1.25-.86,1.5Z"/>
                    <path class="cls-33" d="m85,131.75l3.89-2.26s0,0,0-.01l-3.89,2.26s0,0,0,.01Z"/>
                  </g>
                </g>
              </g>
              <g>
                <path class="cls-58" d="m80.78,92.62l-3.89,2.26c1.14-.66,2.71-.58,4.48.44l3.89-2.26c-1.76-1.02-3.34-1.1-4.48-.44Z"/>
                <g class="cls-46">
                  <g class="cls-47">
                    <path class="cls-33" d="m81.36,95.33l3.89-2.26c-1.76-1.02-3.34-1.1-4.48-.44l-3.89,2.26c1.14-.66,2.71-.58,4.48.44Z"/>
                  </g>
                </g>
              </g>
              <polygon class="cls-33" points="85 131.74 88.89 129.48 92.64 105.73 88.74 108 85 131.74"/>
              <polygon class="cls-4" points="82.55 96.01 86.44 93.75 85.26 93.06 81.36 95.33 82.55 96.01"/>
              <g class="cls-47">
                <path class="cls-41" d="m88.74,108l3.89-2.26c.64-4.04-2.31-9.75-6.19-11.99l-3.89,2.26c3.88,2.24,6.83,7.95,6.19,11.99Z"/>
                <g class="cls-59">
                  <g class="cls-47">
                    <path class="cls-4" d="m88.74,108l3.89-2.26c.19-1.23.06-2.61-.34-4l-3.89,2.26c.39,1.39.53,2.77.34,4Z"/>
                    <path class="cls-4" d="m88.4,103.99l3.89-2.26c-.44-1.57-1.21-3.15-2.2-4.53l-3.89,2.26c.99,1.39,1.76,2.96,2.2,4.53Z"/>
                    <path class="cls-4" d="m86.2,99.46l3.89-2.26c-.76-1.06-1.64-2.01-2.6-2.75l-3.89,2.26c.96.74,1.85,1.69,2.6,2.75Z"/>
                    <path class="cls-4" d="m83.6,96.72l3.89-2.26c-.34-.26-.69-.5-1.05-.7l-3.89,2.26c.36.21.71.44,1.05.7Z"/>
                  </g>
                </g>
              </g>
              <path class="cls-10" d="m81.36,95.33c-3.88-2.24-6.85.05-6.24,4.81l3.59,27.98c.28,2.21,1.71,4.06,3.13,4.88,1.42.82,2.85.62,3.15-1.25l3.74-23.74c.64-4.04-2.31-9.75-6.19-11.99l-1.19-.69Z"/>
            </g>
          </g>
        </g>
      </g>
    </g>
  </g>
</svg>