<svg width="93" height="93" viewBox="0 0 93 93" fill="none" xmlns="http://www.w3.org/2000/svg">
<g clip-path="url(#clip0_3563_47)">
<g opacity="0.07">
<path d="M46.39 92.78C72.0105 92.78 92.78 72.0105 92.78 46.39C92.78 20.7695 72.0105 0 46.39 0C20.7695 0 0 20.7695 0 46.39C0 72.0105 20.7695 92.78 46.39 92.78Z" fill="#0C9FFA"/>
</g>
<path d="M30.6091 73.2525L30.0991 62.8725H29.6691C24.0791 62.8725 19.5391 58.3325 19.5391 52.7425V38.0125C19.5391 32.3825 24.0891 27.8125 29.6691 27.8125H56.7191C62.3091 27.8125 66.8491 32.3925 66.8491 38.0125V52.7425C66.8491 55.6725 65.9591 58.0225 64.2091 59.7225C60.4491 63.3525 53.6591 63.1225 48.1991 62.9425C47.3691 62.9125 46.5791 62.8925 45.8391 62.8725L30.6091 73.2525ZM29.6691 30.8525C25.7691 30.8525 22.5891 34.0625 22.5891 38.0025V52.7325C22.5891 56.6325 25.7691 59.8125 29.6691 59.8125H32.2291L33.0591 61.0625L33.3791 67.6625L43.7591 60.5825L44.0191 59.8125H45.1091C46.0891 59.8125 47.1591 59.8525 48.2791 59.8825C53.1591 60.0425 59.2391 60.2525 62.0691 57.5125C63.2191 56.4025 63.7791 54.8325 63.7791 52.7225V37.9925C63.7791 34.0525 60.5991 30.8425 56.6991 30.8425H29.6491L29.6691 30.8525Z" fill="#0C9FFA"/>
<path opacity="0.5" fill-rule="evenodd" clip-rule="evenodd" d="M64.6997 19.5312H37.5697C33.4897 19.5312 29.9897 22.5212 29.1797 26.4612C30.0497 26.1712 30.9997 26.0212 31.9497 26.0212H58.9997C64.3297 26.0212 68.6997 30.4013 68.6997 35.7213V50.3813C71.3997 49.2113 73.2197 46.9512 73.2197 42.9412V28.1412C73.2197 23.4012 69.4297 19.5413 64.6897 19.5413L64.6997 19.5312Z" fill="#0C9FFA"/>
</g>
<defs>
<clipPath id="clip0_3563_47">
<rect width="92.78" height="92.78" fill="white"/>
</clipPath>
</defs>
</svg>
