<svg width="130" height="19" viewBox="0 0 130 19" fill="none" xmlns="http://www.w3.org/2000/svg">
<g clip-path="url(#clip0_3566_104)">
<path d="M9.78 0L12.8 6.12L19.56 7.1L14.67 11.87L15.82 18.6L9.78 15.42L3.74 18.6L4.89 11.87L0 7.1L6.76 6.12L9.78 0Z" fill="#FABB05"/>
<path d="M37.3894 0L40.4094 6.12L47.1594 7.1L42.2694 11.87L43.4294 18.6L37.3894 15.42L31.3394 18.6L32.4994 11.87L27.6094 7.1L34.3594 6.12L37.3894 0Z" fill="#FABB05"/>
<path d="M64.9909 0L68.0109 6.12L74.7709 7.1L69.8809 11.87L71.0409 18.6L64.9909 15.42L58.9509 18.6L60.1009 11.87L55.2109 7.1L61.9709 6.12L64.9909 0Z" fill="#FABB05"/>
<path d="M92.6003 0L95.6203 6.12L102.38 7.1L97.4903 11.87L98.6403 18.6L92.6003 15.42L86.5603 18.6L87.7103 11.87L82.8203 7.1L89.5803 6.12L92.6003 0Z" fill="#FABB05"/>
<path d="M120.21 0L123.23 6.12L129.98 7.1L125.09 11.87L126.25 18.6L120.21 15.42L114.16 18.6L115.32 11.87L110.43 7.1L117.18 6.12L120.21 0Z" fill="#F7F7F7"/>
</g>
<defs>
<clipPath id="clip0_3566_104">
<rect width="129.98" height="18.6" fill="white"/>
</clipPath>
</defs>
</svg>
