<svg width="93" height="93" viewBox="0 0 93 93" fill="none" xmlns="http://www.w3.org/2000/svg">
<g clip-path="url(#clip0_3563_60)">
<g opacity="0.07">
<path d="M46.39 92.78C72.0105 92.78 92.78 72.0105 92.78 46.39C92.78 20.7695 72.0105 0 46.39 0C20.7695 0 0 20.7695 0 46.39C0 72.0105 20.7695 92.78 46.39 92.78Z" fill="#0C9FFA"/>
</g>
<path d="M50.2734 26.6195V29.8095C50.2734 31.5895 48.8334 33.0295 47.0534 33.0295H33.2434C31.4634 33.0295 30.0234 31.5895 30.0234 29.8095V26.6195C30.0234 26.0195 30.5134 25.5195 31.1234 25.5195H34.9034L35.0034 25.1595C35.6534 22.8695 37.7634 21.2695 40.1434 21.2695C42.5234 21.2695 44.6334 22.8695 45.2834 25.1595L45.3834 25.5195H49.1634C49.7634 25.5195 50.2634 26.0095 50.2634 26.6195H50.2734Z" fill="#0C9FFA"/>
<path d="M58.7712 32.0002V39.6302C58.0712 39.5202 57.3513 39.4702 56.6113 39.4702C55.6213 39.4702 54.6913 39.5502 53.7913 39.7202C53.4613 38.6502 52.4612 37.8802 51.3012 37.8802H29.0012C27.5512 37.8802 26.3812 39.0602 26.3812 40.5002V47.9302C26.3812 49.3802 27.5612 50.5502 29.0012 50.5502H41.4812C41.2412 51.2702 41.0613 52.0002 40.9513 52.7402H29.0012C27.5512 52.7402 26.3812 53.9202 26.3812 55.3602C26.3812 56.8002 27.5612 57.9802 29.0012 57.9802H40.9513C41.0613 58.7202 41.2412 59.4502 41.4812 60.1702H29.0012C27.5512 60.1702 26.3812 61.3502 26.3812 62.7902C26.3812 64.2302 27.5612 65.4102 29.0012 65.4102H44.3113C46.1213 67.6402 48.4412 69.2902 51.0613 70.2602H26.8713C23.9213 70.2602 21.5312 67.8602 21.5312 64.9202V32.0002C21.5312 29.0502 23.9313 26.6602 26.8713 26.6602H26.9012V28.8202C26.9012 32.3102 29.7413 35.1602 33.2413 35.1602H47.0512C50.5512 35.1602 53.3912 32.3202 53.3912 28.8202V26.6602H53.4212C56.3712 26.6602 58.7612 29.0602 58.7612 32.0002H58.7712Z" fill="#0C9FFA"/>
<path d="M69.1619 71.4997C68.6319 71.4997 68.1019 71.2997 67.6919 70.8897L61.8419 65.0397C61.0319 64.2297 61.0319 62.9097 61.8419 62.0997C62.6519 61.2897 63.9719 61.2897 64.7819 62.0997L70.6319 67.9497C71.4419 68.7597 71.4419 70.0797 70.6319 70.8897C70.2219 71.2997 69.6919 71.4997 69.1619 71.4997Z" fill="#0C9FFA"/>
<path d="M55.3331 66.4905C48.6431 66.4905 43.2031 61.0505 43.2031 54.3605C43.2031 47.6705 48.6431 42.2305 55.3331 42.2305C62.0231 42.2305 67.4631 47.6705 67.4631 54.3605C67.4631 61.0505 62.0231 66.4905 55.3331 66.4905ZM55.3331 44.6805C49.9931 44.6805 45.6431 49.0305 45.6431 54.3705C45.6431 59.7105 49.9931 64.0605 55.3331 64.0605C60.6731 64.0605 65.0231 59.7105 65.0231 54.3705C65.0231 49.0305 60.6731 44.6805 55.3331 44.6805Z" fill="#0C9FFA"/>
</g>
<defs>
<clipPath id="clip0_3563_60">
<rect width="92.78" height="92.78" fill="white"/>
</clipPath>
</defs>
</svg>
