<svg width="93" height="93" viewBox="0 0 93 93" fill="none" xmlns="http://www.w3.org/2000/svg">
<g clip-path="url(#clip0_3563_54)">
<path opacity="0.07" d="M46.15 92.3C71.6379 92.3 92.3 71.6379 92.3 46.15C92.3 20.6621 71.6379 0 46.15 0C20.6621 0 0 20.6621 0 46.15C0 71.6379 20.6621 92.3 46.15 92.3Z" fill="#0C9FFA"/>
<path d="M46.2238 81.0431C40.9038 81.0431 36.5737 76.7131 36.5737 71.3931C36.5737 67.2331 39.1538 63.6631 43.0638 62.2931V59.4131H30.0938C28.7237 63.3231 25.1537 65.9031 20.9937 65.9031C15.6737 65.9031 11.3438 61.5731 11.3438 56.2531C11.3438 50.9331 15.6737 46.6031 20.9937 46.6031C25.1537 46.6031 28.7237 49.1831 30.0938 53.0931H43.2137V48.6031H31.9538C31.1438 48.6031 30.3037 48.2331 29.6637 47.5931C29.0938 47.0231 28.7938 46.2331 28.7938 45.3031C29.5738 36.2231 37.1337 29.4531 46.3737 29.4531C55.6137 29.4531 63.3438 36.3831 63.9538 45.2431C63.9538 46.2431 63.6538 47.0331 63.0838 47.6031C62.4438 48.2431 61.6038 48.6131 60.7938 48.6131H49.5337V52.9631H62.9237C64.1637 49.2731 67.6838 46.7631 71.7537 46.7631C76.8337 46.7631 80.9738 51.0331 80.9738 56.2731C80.9738 61.5131 76.7738 65.6331 71.6138 65.6331C67.6237 65.6331 64.1738 63.1731 62.8138 59.4331H49.4038V62.3131C53.3138 63.6831 55.8937 67.2531 55.8937 71.4131C55.8937 76.7331 51.5638 81.0631 46.2438 81.0631L46.2238 81.0431ZM28.5837 57.4131H45.0638V63.7931L44.3237 63.9931C40.8837 64.9231 38.5737 67.8931 38.5737 71.3931C38.5737 75.6131 42.0038 79.0431 46.2238 79.0431C50.4438 79.0431 53.8737 75.6131 53.8737 71.3931C53.8737 67.8931 51.5637 64.9231 48.1237 63.9931L47.3838 63.7931V57.4131H64.2837L64.4838 58.1431C65.4038 61.4131 68.2537 63.6131 71.5937 63.6131C75.6537 63.6131 78.9538 60.3131 78.9538 56.2531C78.9538 52.1931 75.7138 48.7431 71.7338 48.7431C68.3238 48.7431 65.3937 50.9731 64.6337 54.1731L64.4537 54.9431H47.5238V46.5931H60.7837C61.0637 46.5931 61.4038 46.4331 61.6637 46.1631C61.7337 46.0931 61.9437 45.8831 61.9437 45.2831C61.4037 37.5431 54.5638 31.4331 46.3638 31.4331C38.1637 31.4331 31.4638 37.4231 30.7738 45.3731C30.7738 45.8831 30.9937 46.0931 31.0637 46.1631C31.3337 46.4331 31.6637 46.5931 31.9438 46.5931H45.2038V55.0831H28.5837L28.3837 54.3431C27.4537 50.9031 24.4837 48.5931 20.9837 48.5931C16.7637 48.5931 13.3337 52.0231 13.3337 56.2431C13.3337 60.4631 16.7637 63.8931 20.9837 63.8931C24.4837 63.8931 27.4537 61.5831 28.3837 58.1431L28.5837 57.4031V57.4131Z" fill="#0C9FFA"/>
<path d="M46.3741 27.6817C41.8441 27.6817 38.1641 24.0017 38.1641 19.4717C38.1641 14.9417 41.8441 11.2617 46.3741 11.2617C50.9041 11.2617 54.5841 14.9417 54.5841 19.4717C54.5841 24.0017 50.9041 27.6817 46.3741 27.6817ZM46.3741 13.2617C42.9541 13.2617 40.1641 16.0517 40.1641 19.4717C40.1641 22.8917 42.9541 25.6817 46.3741 25.6817C49.7941 25.6817 52.5841 22.8917 52.5841 19.4717C52.5841 16.0517 49.7941 13.2617 46.3741 13.2617Z" fill="#0C9FFA"/>
</g>
<defs>
<clipPath id="clip0_3563_54">
<rect width="92.3" height="92.3" fill="white"/>
</clipPath>
</defs>
</svg>
