<?xml version="1.0" encoding="UTF-8"?>
<svg id="Layer_2" data-name="Layer 2" xmlns="http://www.w3.org/2000/svg" xmlns:xlink="http://www.w3.org/1999/xlink" viewBox="0 0 265.45 30.67">
  <defs>
    <style>
      .cls-1 {
        fill: #606060;
      }

      .cls-1, .cls-2 {
        stroke-width: 0px;
      }

      .cls-2 {
        fill: url(#linear-gradient-2);
        fill-rule: evenodd;
      }

      .cls-3 {
        fill: none;
        stroke: url(#linear-gradient);
        stroke-miterlimit: 10;
        stroke-width: 2px;
      }
    </style>
    <linearGradient id="linear-gradient" x1="15.28" y1="30.67" x2="15.28" y2="0" gradientUnits="userSpaceOnUse">
      <stop offset="0" stop-color="#20b038"/>
      <stop offset="1" stop-color="#60d66a"/>
    </linearGradient>
    <linearGradient id="linear-gradient-2" x1="15.55" y1="21.97" x2="15.55" y2="8.3" xlink:href="#linear-gradient"/>
  </defs>
  <g id="Layer_1-2" data-name="Layer 1">
    <g>
      <g>
        <path class="cls-3" d="m1.42,29.27l1.99-7.26c-1.54-2.67-2.16-5.78-1.75-8.83.4-3.06,1.8-5.9,3.98-8.08,2.18-2.18,5.02-3.58,8.08-3.98,3.06-.4,6.16.21,8.83,1.76,2.67,1.54,4.76,3.92,5.94,6.77,1.18,2.85,1.39,6.01.59,8.99-.8,2.98-2.55,5.61-5,7.49-2.45,1.88-5.44,2.9-8.52,2.9-2.34,0-4.64-.59-6.7-1.7l-7.44,1.95Z"/>
        <path class="cls-2" d="m11.92,8.94c-.27-.61-.56-.62-.82-.63-.21,0-.45,0-.7,0-.18,0-.36.05-.53.13-.17.08-.31.19-.44.33-.33.36-1.27,1.24-1.27,3.02s1.3,3.51,1.48,3.75,2.51,4.02,6.2,5.47c3.06,1.21,3.69.97,4.35.91.66-.06,2.15-.89,2.45-1.72.3-.84.3-1.57.21-1.72-.09-.15-.33-.24-.7-.42-.36-.18-2.14-1.06-2.48-1.18-.33-.12-.57-.18-.82.18s-.94,1.18-1.15,1.42c-.21.24-.42.27-.79.09-.36-.18-1.53-.56-2.92-1.8-.79-.73-1.47-1.58-2.02-2.51-.21-.36-.02-.56.16-.74.18-.18.36-.42.54-.63.15-.18.27-.39.36-.61.05-.1.07-.21.07-.32,0-.11-.04-.22-.09-.31-.09-.19-.79-1.98-1.12-2.7Z"/>
      </g>
      <g>
        <path class="cls-1" d="m57.89,18.61h-.05l-3.16-12.76h-3.81l-3.21,12.6h-.05l-2.93-12.6h-4.07l4.9,18.51h4.12l3.09-12.6h.05l3.13,12.6h4.04l4.98-18.51h-3.99l-3.03,12.76Zm19.44-6.5c-.39-.5-.9-.88-1.49-1.11-.77-.29-1.6-.43-2.42-.4-.74.01-1.47.19-2.12.53-.75.38-1.37.97-1.79,1.7h-.08v-6.98h-3.68v18.51h3.68v-7.03c0-1.37.22-2.35.67-2.94s1.18-.89,2.18-.89c.88,0,1.49.27,1.84.82.35.54.52,1.37.52,2.47v7.57h3.68v-8.25c0-.76-.07-1.52-.22-2.27-.12-.63-.39-1.22-.77-1.74Zm15.17,9.27v-6.97c0-.82-.18-1.47-.54-1.96-.36-.5-.84-.89-1.4-1.16-.6-.29-1.24-.47-1.89-.56-.68-.09-1.36-.14-2.05-.14-.74,0-1.49.07-2.22.22-.7.13-1.37.38-1.98.74-.58.34-1.08.81-1.45,1.37-.41.65-.63,1.4-.65,2.17h3.67c.07-.73.31-1.25.73-1.56.42-.31.98-.47,1.71-.47.31,0,.61.02.92.06.26.04.52.12.75.26.22.13.4.32.53.54.14.29.21.62.19.95.02.16,0,.32-.06.48-.06.15-.15.29-.28.39-.29.22-.63.38-.99.45-.47.11-.95.19-1.43.23-.53.05-1.08.12-1.63.21-.55.09-1.1.2-1.65.35-.52.14-1.01.36-1.45.66-.43.31-.79.71-1.04,1.18-.29.58-.43,1.23-.4,1.88-.01.61.1,1.22.35,1.79.22.49.55.91.97,1.24.43.34.92.58,1.45.73.58.16,1.18.24,1.79.23.83,0,1.65-.12,2.44-.36.79-.24,1.5-.68,2.08-1.27.02.22.05.44.09.66.04.21.1.43.17.63h3.73c-.21-.38-.33-.81-.36-1.24-.07-.58-.1-1.16-.1-1.74h0Zm-3.68-2.21c0,.28-.03.56-.07.83-.05.36-.17.71-.35,1.02-.21.36-.52.66-.88.87-.4.24-.97.36-1.69.36-.29,0-.57-.03-.85-.08-.26-.04-.5-.13-.73-.27-.21-.13-.38-.31-.49-.53-.13-.26-.19-.54-.18-.83-.01-.3.05-.59.18-.86.12-.22.28-.41.48-.56.21-.15.45-.27.7-.35.27-.09.54-.16.82-.21.29-.05.59-.1.88-.13.29-.03.58-.08.84-.13.25-.05.51-.11.75-.19.21-.07.41-.18.58-.32v1.37Zm10.55-12.24h-3.68v4.02h-2.23v2.46h2.23v7.91c-.02.56.09,1.12.34,1.63.21.4.53.74.92.97.42.24.88.39,1.35.45.54.08,1.08.12,1.62.12.36,0,.73,0,1.11-.02.35-.01.69-.05,1.04-.11v-2.86c-.18.04-.36.06-.54.08-.19.02-.39.03-.6.03-.62,0-1.04-.11-1.24-.31-.21-.21-.31-.62-.31-1.24v-6.64h2.7v-2.46h-2.7v-4.02Zm15.22,11.55c-.24-.42-.57-.78-.97-1.06-.41-.29-.87-.53-1.35-.69-.52-.17-1.04-.32-1.57-.44-.52-.12-1.03-.23-1.53-.34-.45-.09-.9-.21-1.34-.35-.34-.11-.67-.28-.94-.51-.12-.1-.21-.22-.27-.36-.06-.14-.09-.29-.09-.44-.01-.24.06-.47.21-.66.14-.17.31-.3.51-.39.21-.09.43-.14.66-.17.22-.02.45-.04.67-.04.59-.01,1.18.11,1.71.37.48.25.75.73.8,1.44h3.5c-.04-.73-.26-1.44-.64-2.06-.34-.53-.8-.98-1.33-1.31-.56-.34-1.18-.58-1.83-.7-.7-.14-1.4-.21-2.11-.21-.71,0-1.42.06-2.12.19-.66.12-1.29.35-1.87.68-.55.32-1.01.77-1.34,1.31-.34.55-.51,1.26-.51,2.12-.02.52.11,1.04.37,1.49.24.41.57.75.97,1.01.42.28.87.5,1.35.65.51.17,1.03.31,1.57.43,1.04.2,2.07.48,3.07.83.73.28,1.1.69,1.1,1.24.01.29-.07.58-.23.82-.15.21-.35.39-.58.52-.24.13-.5.23-.77.29-.27.06-.54.09-.82.09-.35,0-.71-.04-1.05-.13-.32-.08-.62-.21-.89-.4-.26-.18-.48-.42-.64-.7-.17-.31-.25-.67-.25-1.02h-3.51c0,.74.18,1.46.53,2.11.36.65.87,1.19,1.5,1.57.61.37,1.28.63,1.98.77.75.16,1.51.23,2.28.23.75,0,1.5-.07,2.24-.22.7-.13,1.36-.4,1.96-.77.62-.38,1.12-.92,1.46-1.57.34-.64.5-1.37.46-2.09.01-.54-.11-1.07-.36-1.55Zm7.31-12.64l-7,18.51h4.1l1.45-4.12h6.92l1.4,4.12h4.23l-6.92-18.51h-4.18Zm-.39,11.36l2.41-6.79h.05l2.33,6.8h-4.79Zm24.21-4.44c-.5-.66-1.15-1.2-1.89-1.58-.85-.42-1.78-.62-2.72-.6-.79,0-1.57.16-2.28.49-.71.35-1.31.9-1.71,1.58h-.05v-1.7h-3.5v18.1h3.68v-6.35h.06c.43.64,1.03,1.16,1.73,1.49.72.34,1.5.51,2.29.51.89.02,1.78-.18,2.58-.58.72-.37,1.35-.89,1.84-1.53.5-.66.87-1.41,1.1-2.2.24-.84.36-1.72.35-2.59,0-.92-.12-1.84-.36-2.74-.22-.83-.6-1.6-1.12-2.29h0Zm-2.36,6.51c-.09.48-.27.94-.53,1.35-.25.39-.59.71-.99.95-.66.39-1.45.5-2.2.33-.75-.18-1.4-.63-1.82-1.27-.26-.41-.45-.87-.55-1.35-.11-.52-.17-1.05-.17-1.58,0-.54.05-1.08.15-1.61.09-.49.27-.95.53-1.38.25-.39.59-.72.99-.97.46-.26.99-.39,1.52-.38.52-.02,1.04.11,1.49.38.4.25.75.58,1,.99.27.43.45.9.56,1.39.11.52.17,1.05.17,1.58,0,.53-.05,1.06-.16,1.58h0Zm18.15-4.21c-.22-.83-.6-1.61-1.11-2.29-.51-.66-1.15-1.2-1.89-1.58-.85-.42-1.78-.62-2.72-.6-.79,0-1.57.16-2.28.49-.71.35-1.31.9-1.71,1.58h-.05v-1.7h-3.5v18.1h3.67v-6.35h.05c.43.64,1.03,1.16,1.73,1.49.72.34,1.5.51,2.29.51.89.02,1.78-.18,2.58-.58.72-.37,1.35-.89,1.84-1.53.5-.66.88-1.41,1.1-2.2.24-.84.37-1.72.36-2.59,0-.92-.11-1.84-.35-2.73h0Zm-3.48,4.21c-.09.48-.27.94-.53,1.35-.25.39-.59.71-.99.95-.66.39-1.45.5-2.2.33-.75-.18-1.4-.63-1.82-1.27-.26-.42-.44-.87-.55-1.35-.11-.52-.17-1.05-.17-1.58s.05-1.08.16-1.61c.09-.49.27-.95.53-1.38.25-.39.59-.72.99-.97.46-.26.99-.39,1.52-.38.52-.02,1.04.11,1.49.38.4.25.75.58,1,.99.27.43.45.9.56,1.39.11.52.17,1.05.17,1.58s-.05,1.06-.15,1.58h0Z"/>
        <path class="cls-1" d="m169.6,5.85h7.41c.94-.03,1.88.11,2.77.41.67.23,1.28.6,1.79,1.09.44.43.77.96.97,1.55.2.56.29,1.15.3,1.74,0,.49-.09.97-.26,1.43-.17.44-.42.85-.74,1.19-.68.73-1.61,1.2-2.6,1.32l.05.05c.29.01.58.06.85.16.5.15.98.38,1.41.69.53.38.98.85,1.32,1.4.39.59.58,1.36.58,2.29.02.77-.14,1.53-.47,2.23-.31.63-.75,1.19-1.31,1.62-.61.46-1.3.8-2.03,1-.86.23-1.75.35-2.64.34h-7.41V5.85Zm7.41,8.39c1.57,0,2.75-.35,3.52-1.05.78-.7,1.16-1.62,1.16-2.76.02-.59-.11-1.17-.39-1.7-.25-.45-.61-.83-1.04-1.11-.45-.29-.96-.5-1.49-.61-.58-.12-1.18-.18-1.78-.18h-6.27v7.41h6.27Zm0,9.12c1.66,0,2.96-.35,3.9-1.05.94-.7,1.41-1.75,1.41-3.15.03-.69-.14-1.37-.49-1.96-.32-.5-.75-.91-1.26-1.21-.53-.3-1.11-.51-1.71-.61-.61-.11-1.23-.17-1.85-.17h-6.27v8.13h6.27Z"/>
        <path class="cls-1" d="m196.28,24.35h-.99v-2.85h-.05c-.16.49-.41.94-.74,1.33-.32.39-.69.73-1.11,1-.43.28-.89.49-1.38.62-.5.14-1.01.21-1.53.21-.67.01-1.34-.09-1.98-.29-.49-.16-.94-.41-1.34-.75-.34-.3-.61-.65-.82-1.05-.19-.37-.34-.77-.43-1.18-.09-.38-.14-.77-.16-1.16-.01-.37-.02-.7-.02-.97v-8.23h.99v8.42c0,.42.03.84.08,1.26.06.5.21.98.45,1.42.27.48.66.89,1.13,1.18.5.33,1.21.49,2.13.49.69.01,1.38-.13,2.01-.41.59-.27,1.1-.66,1.52-1.16.43-.52.75-1.12.95-1.76.22-.73.33-1.48.32-2.24v-7.2h.99v13.31Z"/>
        <path class="cls-1" d="m199.65,19.92c.02.57.16,1.13.41,1.64.23.47.56.88.95,1.22.4.34.86.6,1.35.76.54.18,1.11.26,1.68.26.47,0,.93-.04,1.39-.12.48-.07.94-.22,1.37-.43.41-.2.78-.5,1.05-.87.29-.41.43-.91.41-1.41,0-.74-.22-1.3-.67-1.68-.5-.41-1.08-.71-1.7-.88-.72-.22-1.46-.39-2.2-.51-.75-.12-1.49-.31-2.2-.58-.64-.23-1.22-.61-1.7-1.1-.45-.48-.67-1.17-.67-2.08-.02-.58.13-1.15.44-1.65.29-.43.67-.79,1.13-1.05.48-.27,1-.46,1.55-.56.56-.11,1.14-.17,1.71-.17.66,0,1.31.07,1.94.23.57.14,1.1.39,1.57.75.45.35.8.8,1.04,1.32.27.61.39,1.28.37,1.94h-.99c.01-.53-.09-1.06-.3-1.55-.18-.41-.47-.77-.83-1.05-.38-.28-.8-.48-1.26-.6-.5-.13-1.02-.2-1.55-.19-.45,0-.91.04-1.35.13-.43.08-.85.23-1.23.44-.35.2-.66.47-.89.8-.24.35-.36.77-.35,1.19-.02.46.11.92.39,1.29.27.34.62.61,1.02.79.46.21.93.37,1.42.48.53.12,1.06.24,1.59.36.66.12,1.27.26,1.85.43.53.14,1.04.37,1.5.67.42.28.76.66,1,1.1.26.53.38,1.12.36,1.71.03.63-.15,1.26-.49,1.79-.32.46-.75.85-1.24,1.13-.52.29-1.08.49-1.67.6-.59.11-1.2.17-1.8.17-.71,0-1.43-.09-2.11-.3-.62-.18-1.2-.49-1.7-.91-.49-.41-.87-.92-1.14-1.49-.29-.64-.44-1.34-.44-2.05h.96Z"/>
        <path class="cls-1" d="m211.88,8.52v-2.68h.98v2.68h-.98Zm0,15.83v-13.32h.98v13.32h-.98Z"/>
        <path class="cls-1" d="m215.99,11.03h.99v2.85h.05c.16-.49.41-.94.74-1.33.32-.39.69-.72,1.11-1,.43-.28.89-.49,1.38-.62.5-.14,1.01-.21,1.53-.21.67-.02,1.34.08,1.98.29.49.16.94.41,1.33.75.34.3.61.65.82,1.05.19.37.34.77.43,1.18.08.38.14.77.16,1.16.01.37.03.7.03.97v8.24h-.99v-8.43c0-.42-.03-.83-.08-1.24-.05-.5-.21-.99-.45-1.44-.27-.48-.67-.89-1.14-1.18-.52-.33-1.22-.49-2.11-.49-.7-.01-1.38.13-2.02.41-.58.27-1.09.67-1.5,1.16-.43.52-.75,1.12-.94,1.76-.22.73-.33,1.48-.33,2.24v7.2h-.99v-13.32Z"/>
        <path class="cls-1" d="m229.8,17.82v.16c0,.75.1,1.5.31,2.23.19.67.5,1.31.92,1.87.41.54.93.97,1.53,1.27.67.32,1.4.48,2.14.47,1.33,0,2.39-.35,3.17-1.05.78-.7,1.32-1.67,1.61-2.91h.99c-.29,1.55-.93,2.75-1.9,3.58-.98.83-2.27,1.24-3.86,1.24-.89.02-1.77-.16-2.58-.53-.71-.34-1.34-.83-1.84-1.45-.51-.64-.88-1.39-1.1-2.18-.25-.88-.37-1.79-.36-2.7,0-.91.13-1.81.39-2.68.23-.82.61-1.58,1.13-2.25.5-.65,1.15-1.18,1.88-1.55.8-.37,1.67-.57,2.56-.58s1.76.17,2.57.52c.7.33,1.31.81,1.8,1.41.5.62.87,1.32,1.1,2.07.26.82.39,1.67.39,2.53,0,.09,0,.19-.01.3s-.01.19-.01.27h-10.81Zm9.79-.85c-.03-.7-.15-1.39-.36-2.06-.2-.62-.51-1.2-.92-1.71-.41-.49-.91-.89-1.48-1.18-.62-.3-1.3-.45-1.99-.44-.73-.02-1.45.14-2.1.45-.59.29-1.11.69-1.53,1.19-.43.51-.75,1.09-.96,1.72-.23.65-.37,1.33-.42,2.02h9.77Z"/>
        <path class="cls-1" d="m243.35,19.92c.02.57.16,1.13.42,1.64.23.47.56.88.95,1.22.4.34.86.6,1.35.76.54.18,1.11.26,1.68.26.46,0,.93-.04,1.38-.12.48-.07.94-.22,1.37-.43.41-.2.77-.5,1.05-.87.29-.41.43-.91.42-1.41,0-.74-.22-1.3-.67-1.68-.5-.41-1.08-.71-1.7-.88-.72-.22-1.46-.39-2.2-.51-.75-.12-1.49-.31-2.2-.58-.64-.23-1.22-.61-1.7-1.1-.45-.48-.67-1.17-.67-2.08-.02-.58.13-1.15.44-1.65.29-.43.67-.79,1.13-1.05.48-.27,1-.46,1.55-.56.56-.11,1.14-.17,1.71-.17.66,0,1.31.07,1.94.23.57.14,1.1.39,1.57.75.45.35.8.8,1.04,1.32.27.61.39,1.28.38,1.94h-.98c.01-.53-.09-1.06-.3-1.55-.18-.41-.47-.77-.83-1.05-.38-.28-.8-.48-1.26-.6-.5-.13-1.02-.2-1.55-.19-.45,0-.91.04-1.35.13-.43.08-.85.23-1.23.44-.35.2-.66.47-.89.8-.24.35-.36.77-.35,1.19-.02.46.11.92.39,1.29.27.34.63.61,1.02.79.46.21.93.37,1.42.48.53.12,1.06.24,1.59.36.66.12,1.27.26,1.85.43.53.14,1.04.37,1.5.67.42.28.76.66,1,1.1.26.53.38,1.12.36,1.71.03.63-.15,1.26-.49,1.79-.33.46-.75.85-1.24,1.13-.52.29-1.08.49-1.67.6-.59.11-1.2.17-1.8.17-.71,0-1.43-.09-2.11-.3-.62-.18-1.2-.49-1.7-.91-.48-.41-.87-.92-1.14-1.49-.29-.64-.44-1.34-.44-2.05h.96Z"/>
        <path class="cls-1" d="m255.82,19.92c.02.57.16,1.13.41,1.64.23.47.56.88.95,1.22.4.34.86.6,1.35.76.54.18,1.11.26,1.69.26.46,0,.93-.04,1.38-.12.48-.07.94-.22,1.37-.43.42-.2.78-.5,1.05-.87.29-.41.43-.91.41-1.41,0-.74-.22-1.3-.67-1.68-.5-.41-1.08-.71-1.7-.88-.72-.22-1.46-.39-2.2-.51-.75-.12-1.49-.31-2.2-.58-.64-.23-1.22-.61-1.7-1.1-.45-.48-.67-1.17-.67-2.08-.02-.58.13-1.15.44-1.65.29-.43.67-.79,1.13-1.05.48-.27,1-.46,1.55-.56.56-.11,1.14-.17,1.71-.17.66,0,1.31.07,1.94.23.57.14,1.1.39,1.57.75.45.35.8.8,1.04,1.32.27.61.39,1.28.37,1.94h-.98c.01-.53-.09-1.06-.3-1.55-.18-.41-.47-.77-.83-1.05-.38-.28-.8-.48-1.26-.6-.5-.13-1.02-.2-1.55-.19-.45,0-.91.04-1.35.13-.43.08-.85.23-1.23.44-.35.2-.66.47-.89.8-.24.35-.36.77-.35,1.19-.02.46.11.92.39,1.29.27.34.62.61,1.02.79.46.21.93.37,1.43.48.53.12,1.06.24,1.59.36.66.12,1.27.26,1.85.43.53.14,1.04.37,1.5.67.42.28.76.66,1,1.1.26.53.38,1.12.36,1.71.03.63-.15,1.26-.49,1.79-.33.46-.75.85-1.24,1.13-.52.29-1.08.49-1.67.6-.59.11-1.2.17-1.8.17-.71,0-1.43-.09-2.11-.3-.62-.18-1.2-.49-1.7-.91-.48-.41-.87-.92-1.14-1.49-.29-.64-.44-1.34-.44-2.05h.96Z"/>
      </g>
    </g>
  </g>
</svg>