<svg width="93" height="93" viewBox="0 0 93 93" fill="none" xmlns="http://www.w3.org/2000/svg">
<g clip-path="url(#clip0_3563_42)">
<g opacity="0.07">
<path d="M46.39 92.78C72.0105 92.78 92.78 72.0105 92.78 46.39C92.78 20.7695 72.0105 0 46.39 0C20.7695 0 0 20.7695 0 46.39C0 72.0105 20.7695 92.78 46.39 92.78Z" fill="#0C9FFA"/>
</g>
<path fill-rule="evenodd" clip-rule="evenodd" d="M59.58 51.1491C58.93 50.7891 55.73 49.0691 55.13 48.8291C54.53 48.5891 54.09 48.4591 53.63 49.1091C53.17 49.7491 51.84 51.1991 51.44 51.6291C51.04 52.0591 50.65 52.0991 50 51.7391C49.35 51.3791 47.24 50.5991 44.8 48.2491C42.9 46.4191 41.65 44.1991 41.29 43.5191C40.93 42.8391 41.29 42.4991 41.63 42.1791C41.94 41.8891 42.32 41.4291 42.67 41.0591C43.01 40.6891 43.13 40.4091 43.37 39.9791C43.61 39.5491 43.51 39.1591 43.36 38.8191C43.21 38.4791 42 35.1691 41.5 33.8291C41 32.4791 40.44 32.6791 40.05 32.6691C39.66 32.6591 39.22 32.5791 38.78 32.5691C38.34 32.5491 37.61 32.6891 36.98 33.3291C36.35 33.9691 34.57 35.5091 34.45 38.7691C34.33 42.0291 36.58 45.2691 36.9 45.7191C37.21 46.1791 41.21 53.2391 47.84 56.1491C54.48 59.0591 54.51 58.1691 55.73 58.1091C56.95 58.0491 59.71 56.6491 60.32 55.1291C60.93 53.5991 60.98 52.2791 60.82 51.9991C60.66 51.7191 60.23 51.5291 59.58 51.1791V51.1491ZM47.41 66.8591C43.02 66.8591 38.94 65.5391 35.52 63.2891L27.22 65.9491L29.92 57.9291C27.33 54.3691 25.81 49.9891 25.81 45.2591C25.81 33.3391 35.5 23.6491 47.41 23.6491C59.32 23.6491 69.02 33.3391 69.02 45.2591C69.02 57.1791 59.33 66.8691 47.41 66.8691V66.8591ZM47.41 19.2991C33.08 19.2991 21.46 30.9191 21.46 45.2491C21.46 50.1491 22.82 54.7391 25.19 58.6491L20.5 72.5691L34.87 67.9691C38.59 70.0291 42.86 71.1991 47.41 71.1991C61.75 71.1991 73.37 59.5791 73.37 45.2391C73.37 30.8991 61.75 19.2891 47.41 19.2891V19.2991Z" fill="#0C9FFA"/>
</g>
<defs>
<clipPath id="clip0_3563_42">
<rect width="92.78" height="92.78" fill="white"/>
</clipPath>
</defs>
</svg>
