<svg width="99" height="99" viewBox="0 0 99 99" fill="none" xmlns="http://www.w3.org/2000/svg">
<circle cx="49.5" cy="49.5" r="49.5" fill="#F9F9F9"/>
<g clip-path="url(#clip0_2154_44)">
<path d="M61.5015 52.955L59.861 52.0075C60.0071 51.2996 60.0745 50.6479 60.0745 50C60.0745 49.352 60.0071 48.7003 59.861 47.9925L61.5015 47.0449C61.7824 46.8801 61.9921 46.6142 62.0745 46.2996C62.1607 45.985 62.1157 45.6479 61.9509 45.367L59.4902 41.1048C59.1494 40.5168 58.3966 40.3146 57.8086 40.6554L56.1831 41.5955C55.1644 40.7303 53.9809 40.0524 52.6925 39.5992V37.7003C52.6925 37.0224 52.1419 36.4681 51.4603 36.4681H46.5389C45.861 36.4681 45.3067 37.0187 45.3067 37.7003V39.5992C44.0183 40.0524 42.8348 40.7303 41.8161 41.5955L40.1906 40.6554C39.6026 40.3146 38.8498 40.5168 38.509 41.1048L36.0483 45.367C35.8835 45.6479 35.8423 45.985 35.9247 46.2996C36.0108 46.6142 36.2168 46.8839 36.4977 47.0449L38.1382 47.9925C37.9921 48.7003 37.9247 49.352 37.9247 50C37.9247 50.6479 37.9921 51.2996 38.1382 52.0075L36.4977 52.955C36.2168 53.1198 36.0071 53.3857 35.9247 53.7003C35.8386 54.015 35.8835 54.352 36.0483 54.6329L38.509 58.8951C38.8498 59.4831 39.6026 59.6854 40.1906 59.3445L41.8161 58.4045C42.8348 59.2696 44.0183 59.9475 45.3067 60.4007V62.2996C45.3067 62.9775 45.8573 63.5318 46.5389 63.5318H51.4603C52.1382 63.5318 52.6925 62.9812 52.6925 62.2996V60.4007C53.9809 59.9475 55.1644 59.2696 56.1831 58.4045L57.8086 59.3445C58.3966 59.6854 59.1494 59.4831 59.4902 58.8951L61.9509 54.6329C62.1157 54.352 62.1569 54.015 62.0745 53.7003C61.9884 53.3857 61.7824 53.1161 61.5015 52.955ZM48.9996 53.6929C46.9659 53.6929 45.3067 52.0374 45.3067 50C45.3067 47.9625 46.9622 46.3071 48.9996 46.3071C51.0371 46.3071 52.6925 47.9625 52.6925 50C52.6925 52.0374 51.0371 53.6929 48.9996 53.6929Z" fill="#696969"/>
<path d="M65.8277 37.4307L64.0861 32.2097C63.8727 31.5655 63.176 31.2172 62.5281 31.4307C61.8839 31.6442 61.5356 32.3408 61.7491 32.9888L61.8951 33.4307C60.7903 32.5918 59.5993 31.8502 58.3483 31.2285C55.4082 29.7715 52.1723 29 48.9925 29C43.412 29 38.1498 31.191 34.1685 35.176C30.191 39.1573 28 44.4195 28 50C28 52.5768 28.5431 55.2172 29.6105 57.8464C29.8052 58.3258 30.2659 58.6142 30.7528 58.6142C30.9064 58.6142 31.0637 58.5843 31.2135 58.5243C31.8427 58.2697 32.1461 57.5506 31.8914 56.9213C30.9438 54.588 30.4644 52.2584 30.4644 50C30.4607 39.779 38.779 31.4607 49 31.4607C52.7528 31.4607 56.5393 32.7079 59.6854 34.8727C59.0824 34.7491 58.4719 35.0899 58.2734 35.6891C58.0599 36.3333 58.4082 37.03 59.0524 37.2472L64.2734 38.9888C64.7154 39.1348 65.2022 39.0225 65.5318 38.6929C65.8614 38.3633 65.9775 37.8764 65.8277 37.4345V37.4307Z" fill="#696969"/>
<path d="M68.3929 42.1535C68.1382 41.5243 67.4191 41.221 66.7899 41.4756C66.1607 41.7303 65.8573 42.4494 66.112 43.0786C67.0596 45.412 67.539 47.7416 67.539 50C67.539 60.221 59.2206 68.5393 48.9997 68.5393C45.2469 68.5393 41.4603 67.2921 38.3143 65.1273C38.9173 65.2509 39.5278 64.9101 39.7263 64.3109C39.9397 63.6667 39.5914 62.97 38.9472 62.7528L33.7263 61.0112C33.2843 60.8652 32.7974 60.9775 32.4678 61.3071C32.1382 61.6367 32.0221 62.1236 32.1719 62.5655L33.9135 67.7865C34.0858 68.3034 34.5652 68.6292 35.0821 68.6292C35.2094 68.6292 35.3405 68.6105 35.4716 68.5655C36.1158 68.352 36.4641 67.6554 36.2506 67.0075L36.1045 66.5655C37.2094 67.4045 38.4004 68.1461 39.6513 68.7678C42.5914 70.2247 45.8274 70.9962 49.0072 70.9962C54.5877 70.9962 59.8498 68.8052 63.8311 64.8202C67.8124 60.8389 70.0072 55.573 70.0072 49.9962C70.0072 47.4195 69.4641 44.779 68.3967 42.1498L68.3929 42.1535Z" fill="#696969"/>
</g>
<defs>
<clipPath id="clip0_2154_44">
<rect width="42" height="42" fill="white" transform="translate(28 29)"/>
</clipPath>
</defs>
</svg>
