<svg width="99" height="99" viewBox="0 0 99 99" fill="none" xmlns="http://www.w3.org/2000/svg">
<circle cx="49.5" cy="49.5" r="49.5" fill="#F9F9F9"/>
<g clip-path="url(#clip0_2154_45)">
<path d="M51.9682 62.3778C52.0571 62.0413 52.2762 61.7587 52.5778 61.5841L53.273 61.1841C53.1905 60.9238 53.1206 60.6603 53.0603 60.3936H52.2571C51.5365 60.3936 50.9492 59.8063 50.9492 59.0857V57.2921C50.9492 56.5714 51.5365 55.9841 52.2571 55.9841H53.0603C53.1206 55.7175 53.1905 55.454 53.273 55.1936L52.5778 54.7936C52.2762 54.619 52.0571 54.3365 51.9682 54C51.8794 53.6635 51.9238 53.3111 52.0984 53.0063L52.9936 51.454C53.2254 51.0508 53.6603 50.8 54.127 50.8C54.3556 50.8 54.5809 50.8603 54.7809 50.9746L55.4794 51.3778C55.6635 51.1778 55.8571 50.9841 56.0571 50.8L55.654 50.1016C55.2921 49.4762 55.5079 48.6762 56.1333 48.3143L57.6857 47.419C57.8857 47.3048 58.1111 47.2444 58.3397 47.2444C58.4095 47.2444 58.4762 47.2508 58.5429 47.2603V40.7587H49.9238V62.5048H47.8286V47.3238H39.2095V62.5048H37.1143V53.8857H28.5016V62.5048H26.1714C25.5238 62.5048 25 63.0286 25 63.6762C25 64.3238 25.5238 64.8476 26.1714 64.8476H52.946L52.0984 63.3778C51.9238 63.0762 51.8762 62.7238 51.9682 62.3841V62.3778Z" fill="#696969"/>
<path d="M73.4887 56.7778H72.0252C71.9205 56.1016 71.7458 55.4508 71.5046 54.8317L72.7712 54.1016C73.0157 53.9587 73.1014 53.6476 72.9585 53.4L72.0633 51.8476C71.9681 51.6825 71.7966 51.5905 71.6189 51.5905C71.5331 51.5905 71.4443 51.6127 71.3617 51.6603L70.0951 52.3905C69.6728 51.8667 69.1966 51.3873 68.6697 50.9651L69.3998 49.6984C69.5427 49.454 69.457 49.1397 69.2125 48.9968L67.6601 48.1016C67.5808 48.054 67.4919 48.0317 67.403 48.0317C67.2252 48.0317 67.0538 48.1238 66.9585 48.2889L66.2284 49.5555C65.6093 49.3143 64.9585 49.1365 64.2824 49.0349V47.5714C64.2824 47.2889 64.0538 47.0603 63.7712 47.0603H61.9776C61.6951 47.0603 61.4665 47.2889 61.4665 47.5714V49.0349C60.7903 49.1397 60.1395 49.3143 59.5205 49.5555L58.7903 48.2889C58.6951 48.1238 58.5236 48.0317 58.3458 48.0317C58.2601 48.0317 58.1712 48.054 58.0887 48.1016L56.5363 48.9968C56.2919 49.1397 56.2062 49.4508 56.349 49.6984L57.0792 50.9651C56.5554 51.3873 56.076 51.8635 55.6538 52.3905L54.3871 51.6603C54.3078 51.6127 54.2189 51.5905 54.13 51.5905C53.9522 51.5905 53.7808 51.6825 53.6855 51.8476L52.7903 53.4C52.6474 53.6444 52.7331 53.9587 52.9776 54.1016L54.2443 54.8317C54.003 55.4508 53.8284 56.1016 53.7236 56.7778H52.2601C51.9776 56.7778 51.749 57.0063 51.749 57.2889V59.0825C51.749 59.3651 51.9776 59.5936 52.2601 59.5936H53.7236C53.8284 60.2698 54.003 60.9206 54.2443 61.5397L52.9776 62.2698C52.7331 62.4127 52.6474 62.7238 52.7903 62.9714L53.6855 64.5238C53.7808 64.6889 53.9522 64.7809 54.13 64.7809C54.2157 64.7809 54.3046 64.7587 54.3871 64.7111L55.6538 63.9809C56.076 64.5047 56.5522 64.9841 57.0792 65.4063L56.349 66.673C56.2062 66.9174 56.2919 67.2317 56.5363 67.3746L58.0887 68.2698C58.1681 68.3174 58.257 68.3397 58.3458 68.3397C58.5236 68.3397 58.6951 68.2476 58.7903 68.0825L59.5205 66.8159C60.1395 67.0571 60.7903 67.2349 61.4665 67.3365V68.8C61.4665 69.0825 61.6951 69.3111 61.9776 69.3111H63.7712C64.0538 69.3111 64.2824 69.0825 64.2824 68.8V67.3365C64.9585 67.2317 65.6093 67.0571 66.2284 66.8159L66.9585 68.0825C67.0538 68.2476 67.2252 68.3397 67.403 68.3397C67.4887 68.3397 67.5776 68.3174 67.6601 68.2698L69.2125 67.3746C69.457 67.2317 69.5427 66.9206 69.3998 66.673L68.6697 65.4063C69.1935 64.9841 69.6728 64.5079 70.0951 63.9809L71.3617 64.7111C71.4411 64.7587 71.53 64.7809 71.6189 64.7809C71.7966 64.7809 71.9681 64.6889 72.0633 64.5238L72.9585 62.9714C73.1014 62.727 73.0157 62.4127 72.7712 62.2698L71.5046 61.5397C71.7458 60.9206 71.9236 60.2698 72.0252 59.5936H73.4887C73.7712 59.5936 73.9998 59.3651 73.9998 59.0825V57.2889C73.9998 57.0063 73.7712 56.7778 73.4887 56.7778ZM62.8728 63.1619C60.1268 63.1619 57.8982 60.9333 57.8982 58.1873C57.8982 55.4413 60.1268 53.2127 62.8728 53.2127C65.6189 53.2127 67.8474 55.4413 67.8474 58.1873C67.8474 60.9333 65.6189 63.1619 62.8728 63.1619Z" fill="#696969"/>
<path d="M28.5018 50.0571C28.232 50.0571 27.9716 49.9174 27.8288 49.6667C27.6161 49.2952 27.7462 48.8222 28.1177 48.6095L55.8605 32.7555C56.232 32.5428 56.705 32.673 56.9177 33.0444C57.1304 33.4159 57.0002 33.8889 56.6288 34.1016L28.8859 49.9555C28.7653 50.0254 28.632 50.0571 28.5018 50.0571Z" fill="#696969"/>
<path d="M57.7714 36.8476C57.4953 36.8476 57.2381 36.6984 57.0984 36.4603L54.0413 31.1619C53.9016 30.9206 53.9016 30.6254 54.0413 30.3873C54.181 30.146 54.4349 30 54.7143 30H60.8318C61.108 30 61.3651 30.1492 61.5048 30.3873C61.6445 30.6286 61.6445 30.9238 61.5048 31.1619L58.4476 36.4603C58.308 36.7016 58.054 36.8476 57.7746 36.8476H57.7714ZM56.0572 31.5524L57.7714 34.5238L59.4857 31.5524H56.0572Z" fill="#696969"/>
</g>
<defs>
<clipPath id="clip0_2154_45">
<rect width="49" height="39.3143" fill="white" transform="translate(25 30)"/>
</clipPath>
</defs>
</svg>
