<svg width="99" height="99" viewBox="0 0 99 99" fill="none" xmlns="http://www.w3.org/2000/svg">
<circle cx="49.5" cy="49.5" r="49.5" fill="#F9F9F9"/>
<g clip-path="url(#clip0_2154_46)">
<path d="M42.3483 31H56.6478C58.0836 31 59.248 32.1644 59.248 33.6002V34.8986H39.748V33.6002C39.748 32.1644 40.9125 31 42.3483 31Z" fill="#696969"/>
<path d="M37.8004 37.4988H61.1991C62.6348 37.4988 63.7993 38.6633 63.7993 40.0991V41.3975H35.2002V40.0991C35.2002 38.6633 36.3646 37.4988 37.8004 37.4988Z" fill="#696969"/>
<path fill-rule="evenodd" clip-rule="evenodd" d="M59.9627 44.0011H39.0373C36.4508 46.9277 30 54.1272 30 54.1272V58.5686C30 58.5686 36.4508 65.7682 39.0373 68.6981H59.9627C62.5492 65.7716 69 58.5686 69 58.5686V54.1272C69 54.1272 62.5492 46.9277 59.9627 43.9977V44.0011ZM42.3485 56.3496C42.3485 52.3995 45.5499 49.2016 49.4966 49.2016C53.4433 49.2016 56.6446 52.4029 56.6446 56.3496C56.6446 60.2963 53.4433 63.4977 49.4966 63.4977C45.5499 63.4977 42.3485 60.2963 42.3485 56.3496Z" fill="#696969"/>
<path d="M69.0001 50.3008V47.8998C69.0001 45.7461 67.2552 44.0012 65.1015 44.0012H63.4355L69.0035 50.3042L69.0001 50.3008Z" fill="#696969"/>
<path d="M63.4316 68.6981L68.9996 62.3951V64.7961C68.9996 66.9498 67.2547 68.6947 65.101 68.6947H63.4351L63.4316 68.6981Z" fill="#696969"/>
<path d="M33.8986 44.0012H35.5646L30 50.3008V47.8998C30 45.7461 31.7449 44.0012 33.8986 44.0012Z" fill="#696969"/>
<path d="M35.568 68.6981L30 62.3951V64.7961C30 66.9532 31.7449 68.6981 33.8986 68.6981H35.5646H35.568Z" fill="#696969"/>
</g>
<defs>
<clipPath id="clip0_2154_46">
<rect width="39" height="37.6982" fill="white" transform="translate(30 31)"/>
</clipPath>
</defs>
</svg>
