<?xml version="1.0"?>
<svg xmlns="http://www.w3.org/2000/svg" height="512px" viewBox="0 0 56 56" width="512px"><g><g id="Page-1" fill="none" fill-rule="evenodd"><g id="013---Rating" fill="rgb(0,0,0)" fill-rule="nonzero"><path id="Shape" d="m12.6484 5.8281c-.275167.01835327-.5453753-.07980862-.7446-.2705-.1623536-.15308387-.2688957-.35603109-.3027-.5766-.3085857-1.21064393-.8099604-2.36374828-1.4849-3.4151-.33864804-.48235513-.71097635-.94016322-1.1142-1.37-.40550029.42940128-.77937775.88759918-1.1187 1.371-.68368675 1.06520774-1.18933812 2.23464688-1.4971 3.4624-.1040897.48283471-.54113992.82027499-1.0346.7988-1.21637099-.072443-2.43597632.07055408-3.6026.4224-.55941918.19655997-1.10367749.43386248-1.6284.71.27508128.56578473.5922038 1.1101444.9487 1.6285.74651302.99817447 1.65394251 1.8651513 2.6851 2.5654.27272465.1862943.43577212.4953209.4356.8256.00017801.1203821-.02011104.2399185-.06.3535-.44425124 1.2058149-.69403358 2.4745742-.74 3.7588.00442592.6236635.0522078 1.2462647.143 1.8633.56479596-.1012468 1.12134305-.2440686 1.6651-.4273 1.15261008-.4396535 2.22030815-1.0757318 3.1557-1.88.37297818-.3173044.92102182-.3173044 1.294 0 .9343068.803614 2.0008227 1.4392198 3.1522 1.8786.5440551.1838074 1.1011133.3266068 1.6665.4272.0925362-.6220895.1406912-1.249975.1441-1.8789-.04743-1.2784968-.2971951-2.5413969-.74-3.7417-.0398637-.1100596-.0601697-.2262436-.06-.3433-.0001095-.3319529.1614961-.6431491.4331-.834.4879994-.339221.9477648-.7173536 1.3748-1.1307-.2084274-.3821654-.3877682-.77948969-.5365-1.1886-.2214442-.67253691.0150865-1.41119077.586-1.83.3234891-.22583611.665316-.4241954 1.0219-.593-.19-.0763-.3534-.1374-.4511-.1672-1.1629279-.34931312-2.3783037-.49101218-3.5904-.4186z" data-original="#000000" class="active-path" data-old_color="#000000" fill="#FFFFFF"/><path id="Shape" d="m13.0386 31.4326c-.104.252.0151.5508.3545.8892 1.832 1.8261 5.3642 7.8354 6.9985 11.9072 1.0313 2.5708 3.5254 5.22 4.92 6.5708 1.1424861 1.1167047 1.7862831 2.6470069 1.7857 4.2446v.3023c.0017634.3621455.2964521.6544627.6586.6533h13.2685c.3621417.0011078.6568267-.2911614.6587-.6533v-2.5391c-.0078188-.7235624.2885782-1.417151.8169-1.9116 2.4561-2.2388 2.5-6.256 2.5-6.296v-13.0834c.0220779-.811488-.5722395-1.5086133-1.377-1.6152-.4124442-.0260534-.8178447.1161238-1.1236703.3940802-.3058255.2779564-.4859749.6679694-.4993297 1.0810198v1.6535c0 .5522847-.4477153 1-1 1s-1-.4477153-1-1v-5.7859c.0065161-.3915994-.1450286-.7693067-.4204033-1.0478051s-.6513487-.4342937-1.0429967-.4321949c-.8285763-.0044382-1.5099532.6518404-1.5366 1.48v4.7559c0 .5522847-.4477153 1-1 1s-1-.4477153-1-1v-7.2358c.009549-.38822-.1376722-.7639234-.4084316-1.0423032s-.6422329-.4359696-1.0305684-.4371968c-.8350648-.0107629-1.5270121.6450578-1.561 1.4795v7.2358c0 .5522847-.4477153 1-1 1s-1-.4477153-1-1v-17.52c.0173893-.3862415-.1238801-.7628023-.3910256-1.0422985s-.6369417-.4376287-1.0235744-.4377015c-.8379883-.0068556-1.5346811.6435199-1.5854 1.48v19.3764c.0557848 1.1693698-.0769448 2.3400983-.3931 3.4673-.290061.8641987-1.0007859 1.5208237-1.8852 1.7417-.8703106.218513-1.7920072-.0206239-2.4463-.6347-.7491036-.7105542-1.4148589-1.5040994-1.9844-2.3653-1.7729-2.65-4.9536-5.3418-5.9453-5.3418-.5321091-.0185062-1.0324371.2528828-1.3071.709z" data-original="#000000" class="active-path" data-old_color="#000000" fill="#FFFFFF"/><path id="Shape" d="m34.4072 13.7534c1.2585696-.853063 2.365919-1.9102227 3.2764-3.1279.2133492-.2971765.4116648-.6048627.5942-.9219.2358334-.39923352.4494905-.81115783.64-1.2339-.6905086-.38299069-1.4129523-.70533336-2.1592-.9634-.022-.0068-.0444-.0141-.0659-.0224-1.4036152-.41057543-2.8671207-.57802357-4.3272-.4951-.5130487.02870097-.9641733-.3365158-1.0429-.8443-.3823227-1.4767965-.9955117-2.8839352-1.8169-4.1694-.4484575-.65110638-.9519361-1.26254735-1.5049-1.8276-.5496374.56046714-1.0504225 1.16683559-1.4969 1.8125-.8348012 1.30418392-1.4556106 2.73350733-1.8389 4.2338-.0430644.19557734-.1431486.37399585-.2876.5127-.1976667.1930211-.4666269.29526654-.7426.2823-1.4600512-.08194947-2.9233921.08547983-4.3272.4951-.0215.0083-.0439.0156-.0659.0224-.7465408.25826047-1.469419.58042068-2.1606.9629.1921379.42442238.4071193.83812814.644 1.2393.1810116.3143922.377727.6194779.5894.9141.910797 1.2188774 2.0188129 2.2770405 3.2783 3.1308.2734708.1862941.4370804.4958046.437.8267-.0000326.1211113-.020834.2413201-.0615.3554-.5425252 1.4639787-.8462314 3.005638-.8995 4.566.0000513.8281353.0688206 1.6548384.2056 2.4716.7576001-.1187842 1.5033-.3038958 2.2285-.5532.5110354-.2012473 1.0108002-.4300154 1.4971-.6853v-6.2546c.0547326-1.9398895 1.6447411-3.4831565 3.5854-3.48.917369-.0011834 1.796543.3672103 2.4390393 1.0220124s.9941461 1.5408061.9755607 2.4579876v7.1727c.4858944-.2388378 1.0195873-.364483 1.561-.3675.4225785.001857.8412468.0810627 1.2353.2337.0892451-.6686045.1343096-1.3423658.1349-2.0169-.0532686-1.560362-.3569748-3.1020213-.8995-4.566-.0407544-.1108074-.0616412-.2279356-.0617-.346-.0001943-.3336685.163156-.646246.4372-.8366z" data-original="#000000" class="active-path" data-old_color="#000000" fill="#FFFFFF"/><path id="Shape" d="m52.2456 11.1548c1.0321023-.7009514 1.9402024-1.56896943 2.687-2.5684.3558603-.5171848.6723514-1.06038097.9468-1.625-.5286419-.27844352-1.0771747-.51736331-1.6411-.7148-1.1627776-.34937207-2.3780386-.49103968-3.59-.4185-.2751457.01820328-.5452953-.07993731-.7446-.2705-.162371-.15327496-.2689057-.35638411-.3027-.5771-.3086824-1.21045444-.8100523-2.36337912-1.4849-3.4146-.338648-.48235513-.7109763-.94016322-1.1142-1.37-.405485.42927307-.7793621.88733687-1.1187 1.3706-.6838032 1.06552956-1.1894274 2.2353554-1.497 3.4635-.1043732.48258823-.5413195.8197371-1.0346.7983-1.2163718-.07247036-2.4359819.07052728-3.6026.4224-.0937.0285-.2537.0882-.44.1633.3618068.17172651.7086447.37336015 1.0369.6028.5578405.41275401.7912406 1.13470223.5806 1.7959-.150667.41743089-.3327206.82285612-.5446 1.2128.4271625.4133843.8870251.7915812 1.3751 1.1309.2711429.1865907.4331044.4946579.4331.8238.0000174.1204109-.0204409.239948-.0605.3535-.4442512 1.2058149-.6940336 2.4745742-.74 3.7588.0044259.6236635.0522078 1.2462647.143 1.8633.564796-.1012468 1.121343-.2440686 1.6651-.4273 1.1526101-.4396535 2.2203081-1.0757318 3.1557-1.88.3729782-.3173044.9210218-.3173044 1.294 0 .9344424.8035824 2.0010958 1.4391219 3.1526 1.8784.5440551.1838074 1.1011133.3266068 1.6665.4272.0925362-.6220895.1406912-1.249975.1441-1.8789-.04743-1.2784968-.2971951-2.5413969-.74-3.7417-.0400911-.1100861-.0606007-.2263409-.0606-.3435-.0001344-.3328867.1625429-.6447968.4356-.8352z" data-original="#000000" class="active-path" data-old_color="#000000" fill="#FFFFFF"/></g></g></g> </svg>
