<svg width="99" height="99" viewBox="0 0 99 99" fill="none" xmlns="http://www.w3.org/2000/svg">
<circle cx="49.5" cy="49.5" r="49.5" fill="#F9F9F9"/>
<g clip-path="url(#clip0_2334_42)">
<path d="M62.3221 67.976C62.2804 67.976 62.2457 68 62.2005 68H44.0614C41.27 68 39 65.7579 39 63.0009V61.3356C39 60.4155 39.7543 59.6704 40.686 59.6704C41.6176 59.6704 42.372 60.4155 42.372 61.3356V63.0009C42.372 63.9176 43.1298 64.6661 44.0579 64.6661H51.9212L51.4067 64.4944C50.0406 64.0275 49.1228 62.7571 49.1228 61.3322V36.333H44.0614C43.1333 36.333 42.3754 37.0815 42.3754 37.9983V41.3322C42.3754 42.2524 41.6211 42.9974 40.6895 42.9974C39.7578 42.9974 39.0035 42.2524 39.0035 41.3322V37.9983C39.0035 35.2412 41.2735 32.9991 44.0649 32.9991H49.1263V31.3339C49.1263 29.497 50.6385 28 52.5017 28C52.8633 28 53.2039 28.0515 53.5759 28.1648L63.7126 31.5021C65.0823 31.9691 66 33.2395 66 34.6644V64.6661C66 66.6094 64.3036 68.1339 62.3256 67.976H62.3221Z" fill="#696969"/>
<path d="M43.5196 52.7001L36.9729 59.5011C36.5044 59.9879 35.7998 60.135 35.1896 59.8689C34.5795 59.6062 34.1817 58.9863 34.1817 58.2964V53.1974H27.635C26.7315 53.1974 26 52.4374 26 51.4988C26 50.5603 26.7315 49.8003 27.635 49.8003H34.1817V44.7013C34.1817 44.0148 34.5795 43.395 35.1896 43.1288C35.8032 42.8662 36.5044 43.0132 36.9729 43.4965L43.5196 50.2976C44.1601 50.963 44.1601 52.0382 43.5196 52.7001Z" fill="#696969"/>
</g>
<defs>
<clipPath id="clip0_2334_42">
<rect width="45" height="45" fill="white" transform="matrix(1 0 0 -1 27 72)"/>
</clipPath>
</defs>
</svg>
