<?xml version="1.0"?>
<svg xmlns="http://www.w3.org/2000/svg" id="Capa_1" enable-background="new 0 0 512.444 512.444" height="512px" viewBox="0 0 512.444 512.444" width="512px" class=""><g><g><path d="m434.366 194.925c-14.583 0-26.721 10.64-29.076 24.563-3.391-1.643-7.193-2.566-11.207-2.566-14.218 0-25.785 11.567-25.785 25.785v8.006l-68.56-37.049c-12.416-6.711-25.941-10.403-39.583-11.095v-48.501c0-7.377 1.019-14.739 2.992-21.836l3.388 3.835c11.742 13.293 28.885 20.943 46.53 20.943 1.402 0 2.809-.048 4.214-.146 16.631-1.156 31.336-10.577 39.337-25.202 2.608-4.769 5.033-9.776 7.207-14.882 1.623-3.812-.151-8.216-3.962-9.839-3.813-1.624-8.217.152-9.839 3.962-1.983 4.658-4.192 9.221-6.566 13.561-5.535 10.118-15.71 16.637-27.216 17.436-14.478 1.017-28.855-4.887-38.463-15.763l-8.463-9.581c.067-.129.13-.261.197-.39l11.957-22.745c13.456-24.081 34.959-43.008 60.556-53.297 3.844-1.545 5.707-5.913 4.162-9.756-1.546-3.845-5.918-5.706-9.756-4.162-28.799 11.577-52.986 32.88-68.105 59.986-.03.054-.06.108-.089.163l-11.524 21.922-1.012-.306c-12.131-3.662-21.094-13.679-23.39-26.142-1.786-9.693.748-19.645 6.952-27.304 20.348-25.118 50.559-39.525 82.887-39.525h39.271c.49 0 .889.398.889.888v34.837c0 10.349-1.073 20.797-3.19 31.053-.838 4.057 1.771 8.024 5.828 8.861 4.058.846 8.024-1.771 8.861-5.828 2.323-11.252 3.501-22.72 3.501-34.086v-34.837c-.001-8.761-7.129-15.888-15.89-15.888h-39.271c-36.874 0-71.333 16.434-94.543 45.086-8.966 11.07-12.628 25.453-10.047 39.462 3.271 17.757 15.916 32.061 33.071 37.534-3.598 10.254-5.474 21.106-5.474 31.986v6.343c-6.163-8.135-14.036-15.043-23.292-20.13l-14.424-7.928c1.759-5.027 2.726-10.422 2.726-16.042 0-26.863-21.855-48.719-48.719-48.719h-49.464c-5.593 0-10.144 4.551-10.144 10.145v38.575c0 26.863 21.855 48.719 48.719 48.719h10.889c15.887 0 30.02-7.646 38.919-19.45l14.273 7.845c18.238 10.024 29.783 28.896 30.482 49.598-11.43 1.28-22.687 4.685-33.179 10.229l-4.01 2.118c-3.663 1.935-5.063 6.473-3.128 10.135 1.935 3.663 6.473 5.063 10.134 3.129l4.011-2.119c23.118-12.215 50.654-12.087 73.658.346l110.679 59.812-33.094 33.094c-1.281-6.503-4.453-12.482-9.244-17.274-13.16-13.158-34.572-13.158-47.732 0l-53.283 53.283c-1.352 1.353-2.591 2.788-3.711 4.296-1.12-1.508-2.359-2.944-3.712-4.297l-15.17-15.17c-2.929-2.928-7.678-2.929-10.606.001-2.929 2.929-2.929 7.677 0 10.606l15.17 15.169c4.397 4.397 6.818 10.243 6.818 16.461v76.428 44.955c0 4.143 3.358 7.5 7.5 7.5 4.143 0 7.5-3.357 7.5-7.5v-44.956-76.428c0-6.218 2.421-12.063 6.818-16.459l53.283-53.283c3.541-3.542 8.25-5.492 13.259-5.492s9.718 1.95 13.259 5.492c7.312 7.311 7.312 19.207 0 26.518l-30.052 30.052c-2.929 2.93-2.929 7.678 0 10.607 2.93 2.928 7.678 2.928 10.607 0l24.253-24.253 5.799-5.799 56.725-56.725c1.406-1.407 2.196-3.314 2.196-5.304v-30.888-14.602-18.285c0-7.994 6.503-14.497 14.497-14.497s14.497 6.503 14.497 14.497v85.112c0 9.14-3.163 18.089-8.906 25.199l-73.072 90.474c-3.959 4.899-6.139 11.068-6.139 17.369v62.368c0 4.143 3.357 7.5 7.5 7.5s7.5-3.357 7.5-7.5v-62.368c0-2.882.997-5.703 2.808-7.943l73.073-90.475c7.891-9.77 12.236-22.066 12.236-34.624v-85.112c.002-16.264-13.231-29.496-29.496-29.496zm-272.918-44.894h-10.889c-18.593 0-33.719-15.126-33.719-33.719v-33.72h44.608c18.593 0 33.719 15.127 33.719 33.72 0 2.998-.398 5.903-1.136 8.671l-41.308-22.703c-3.629-1.996-8.19-.67-10.185 2.96s-.67 8.189 2.96 10.185l41.526 22.823c-6.189 7.206-15.355 11.783-25.576 11.783zm221.85 92.676c0-5.947 4.838-10.785 10.785-10.785s10.786 4.838 10.786 10.785v14.602 13.168l-21.571-11.657z" data-original="#000000" class="active-path" data-old_color="#000000" fill="#FFD4D0"/><path d="m199.228 302.492c-6.375-6.374-14.851-9.886-23.866-9.886-9.016 0-17.491 3.512-23.866 9.886-4.903 4.903-7.976 10.952-9.226 17.293l-34.517-34.517 78.393-41.421c3.662-1.935 5.063-6.473 3.127-10.135-1.935-3.662-6.473-5.064-10.135-3.127l-34.993 18.49v-6.369c0-14.218-11.567-25.785-25.785-25.785-4.014 0-7.816.923-11.206 2.565-2.356-13.922-14.494-24.563-29.076-24.563-16.265 0-29.497 13.232-29.497 29.497v85.112c0 12.559 4.346 24.855 12.237 34.625l73.073 90.474c1.81 2.241 2.807 5.062 2.807 7.943v62.368c0 4.143 3.358 7.5 7.5 7.5s7.5-3.357 7.5-7.5v-62.368c0-6.3-2.18-12.469-6.138-17.369l-73.073-90.474c-5.743-7.11-8.906-16.06-8.906-25.199v-85.112c0-7.994 6.503-14.497 14.497-14.497s14.497 6.503 14.497 14.497v18.285 13.602 24.438.045 7.404c0 1.989.79 3.896 2.197 5.304l56.725 56.725 5.799 5.799 24.253 24.253c1.464 1.464 3.384 2.196 5.303 2.196s3.839-.732 5.303-2.196c2.929-2.93 2.929-7.678 0-10.607l-30.052-30.052c-7.311-7.311-7.311-19.207 0-26.519 3.542-3.541 8.25-5.492 13.259-5.492 5.008 0 9.717 1.951 13.259 5.492l15.382 15.383c2.928 2.929 7.677 2.93 10.606.001 2.929-2.93 2.929-7.678 0-10.606zm-80.867-70.57c5.947 0 10.785 4.838 10.785 10.785v14.294l-21.571 11.397v-12.09-13.602c0-5.946 4.838-10.784 10.786-10.784z" data-original="#000000" class="active-path" data-old_color="#000000" fill="#FFD4D0"/></g></g> </svg>
