<?xml version="1.0"?>
<svg xmlns="http://www.w3.org/2000/svg" id="Layer_35" enable-background="new 0 0 64 64" height="512px" viewBox="0 0 64 64" width="512px" class=""><g><path d="m21 12c0-4.963-4.038-9-9-9s-9 4.037-9 9 4.038 9 9 9 9-4.037 9-9zm-9-1c1.654 0 3 1.346 3 3v3h-2v2h-2v-2.184c-1.161-.414-2-1.514-2-2.816h2c0 .552.449 1 1 1h1v-1c0-.552-.449-1-1-1-1.654 0-3-1.346-3-3v-3h2v-2h2v2.184c1.161.414 2 1.514 2 2.816h-2c0-.552-.449-1-1-1h-1v1c0 .552.449 1 1 1z" data-original="#000000" class="active-path" data-old_color="#000000" fill="#FFFFFF"/><path d="m58.645 15.361.162-.524 2.193-.601v-2.473l-2.193-.601-.162-.524c-.142-.459-.334-.921-.572-1.371l-.256-.485 1.129-1.979-1.75-1.749-1.979 1.13-.487-.257c-.445-.236-.906-.429-1.369-.572l-.525-.161-.599-2.194h-2.474l-.6 2.193-.525.161c-.463.144-.924.336-1.369.572l-.486.258-1.979-1.13-1.75 1.749 1.129 1.979-.256.485c-.238.45-.43.912-.572 1.371l-.162.524-2.193.602v2.473l2.193.601.162.524c.142.459.334.921.572 1.371l.256.485-1.129 1.979 1.75 1.749 1.979-1.13.486.258c.445.236.906.429 1.369.572l.525.161.6 2.193h2.474l.6-2.193.525-.161c.463-.144.924-.336 1.369-.572l.486-.258 1.979 1.13 1.75-1.749-1.129-1.979.256-.485c.238-.451.43-.913.572-1.372zm-7.645 3.639c-3.309 0-6-2.691-6-6s2.691-6 6-6 6 2.691 6 6-2.691 6-6 6z" data-original="#000000" class="active-path" data-old_color="#000000" fill="#FFFFFF"/><circle cx="51" cy="13" r="4" data-original="#000000" class="active-path" data-old_color="#000000" fill="#FFFFFF"/><path d="m32 43c-.009 0-.018-.001-.028-.001l-1.551.001 1.579 2.256 1.581-2.258-1.552.001c-.01 0-.019.001-.029.001z" data-original="#000000" class="active-path" data-old_color="#000000" fill="#FFFFFF"/><path d="m22.051 32c.2 2.008.998 3.843 2.211 5.324l1.374-1.374 1.414 1.414-1.374 1.374c1.482 1.213 3.316 2.011 5.324 2.211v-1.949h2v1.949c2.008-.2 3.842-.998 5.324-2.211l-1.374-1.374 1.414-1.414 1.374 1.374c1.213-1.482 2.011-3.316 2.211-5.324h-1.949v-2h1.949c-.2-2.008-.998-3.843-2.211-5.324l-1.374 1.374-1.414-1.414 1.374-1.374c-1.482-1.213-3.316-2.011-5.324-2.211v1.949h-2v-1.949c-2.008.2-3.842.998-5.324 2.211l1.374 1.374-1.414 1.414-1.374-1.374c-1.213 1.482-2.011 3.316-2.211 5.324h1.949v2zm6.656-5.707 4.293 4.293v4.414h-2v-3.586l-3.707-3.707z" data-original="#000000" class="active-path" data-old_color="#000000" fill="#FFFFFF"/><path d="m49.5 29c-.827 0-1.5.673-1.5 1.5v9.574c0 1.039-.811 1.915-1.847 1.994l-5.436.418c-1.701 1.325-2.717 3.362-2.717 5.514v13h3v-14.82l7.588-1.517c1.398-.279 2.412-1.517 2.412-2.942v-11.221c0-.827-.673-1.5-1.5-1.5z" data-original="#000000" class="active-path" data-old_color="#000000" fill="#FFFFFF"/><path d="m32 48.744-4.135-5.908-1.609-.123c1.11 1.523 1.744 3.368 1.744 5.287v13h8v-13c0-1.918.633-3.762 1.743-5.285l-1.609.124z" data-original="#000000" class="active-path" data-old_color="#000000" fill="#FFFFFF"/><path d="m23.281 42.485-5.434-.417c-1.036-.079-1.847-.955-1.847-1.994v-9.574c0-.827-.673-1.5-1.5-1.5s-1.5.673-1.5 1.5v11.221c0 1.426 1.014 2.663 2.412 2.942l7.588 1.517v14.82h3v-13c0-2.153-1.017-4.191-2.719-5.515z" data-original="#000000" class="active-path" data-old_color="#000000" fill="#FFFFFF"/></g> </svg>
