<svg width="99" height="99" viewBox="0 0 99 99" fill="none" xmlns="http://www.w3.org/2000/svg">
<circle cx="49.5" cy="49.5" r="49.5" fill="#F9F9F9"/>
<g clip-path="url(#clip0_2154_43)">
<path d="M56.4998 53.4575H52.6562C52.4622 53.4575 52.2807 53.5467 52.1668 53.7082L49.3949 57.5503L46.6188 53.7082C46.5091 53.5467 46.3234 53.4575 46.1294 53.4575H42.29C39.7248 53.4575 37.6406 55.5527 37.6406 58.1326C37.6406 64.1252 42.4757 68.9958 48.4245 68.9958H50.3526C56.3057 68.9958 61.1407 64.1252 61.1407 58.1283C61.1407 55.5528 59.0608 53.4575 56.4998 53.4575ZM50.3526 67.776H48.4245C43.1507 67.776 38.8515 63.4537 38.8515 58.1326C38.8515 56.2285 40.3914 54.6772 42.29 54.6772H45.8256L48.9055 58.9401C49.1291 59.2588 49.6565 59.2588 49.8885 58.9401L52.9684 54.6772H56.504C58.3941 54.6772 59.9341 56.22 59.9341 58.1283C59.9341 63.4537 55.6349 67.776 50.3569 67.776H50.3526Z" fill="#696969"/>
<path d="M49.3899 38.8882C45.8079 38.8882 42.8926 41.825 42.8926 45.4333C42.8926 49.0416 45.8079 51.9784 49.3899 51.9784C52.9719 51.9784 55.8957 49.0416 55.8957 45.4333C55.8957 41.825 52.9803 38.8882 49.3899 38.8882ZM49.3899 50.7587C46.4788 50.7587 44.1034 48.3701 44.1034 45.4333C44.1034 42.4965 46.4788 40.108 49.3899 40.108C52.3011 40.108 54.6806 42.4965 54.6806 45.4333C54.6806 48.3701 52.3095 50.7587 49.3899 50.7587Z" fill="#696969"/>
<path d="M27.4551 35.3053C27.4551 32.9295 29.3705 31 31.7248 31C34.079 31 36.0029 32.9295 36.0029 35.3053C36.0029 37.6811 34.0874 39.6149 31.7248 39.6149C29.3621 39.6149 27.4551 37.6854 27.4551 35.3053Z" fill="#696969"/>
<path d="M39.4502 43.6568C39.4502 47.3331 36.6825 50.3719 33.13 50.7587H30.3159C26.7677 50.3677 24 47.3331 24 43.661C24 41.961 25.3712 40.5797 27.0588 40.5797H29.586C29.7084 40.5797 29.835 40.6392 29.9067 40.7455L31.7335 43.27L33.5562 40.7455C33.6321 40.6435 33.7502 40.5797 33.881 40.5797H36.4125C38.0959 40.5797 39.4628 41.961 39.4628 43.6568H39.4502Z" fill="#696969"/>
<path d="M42.8926 45.4333C42.8926 41.825 45.8079 38.8882 49.3899 38.8882C52.9719 38.8882 55.8957 41.825 55.8957 45.4333C55.8957 49.0416 52.9803 51.9784 49.3899 51.9784C45.7995 51.9784 42.8926 49.0416 42.8926 45.4333Z" fill="#696969"/>
<path d="M50.3526 69H48.4245C42.4757 69 37.6406 64.1294 37.6406 58.1368C37.6406 55.5527 39.7248 53.4617 42.29 53.4617H46.1294C46.3234 53.4617 46.5133 53.5509 46.6188 53.7124L49.3949 57.5545L52.1668 53.7124C52.2807 53.5509 52.4622 53.4617 52.6562 53.4617H56.4998C59.065 53.4617 61.1407 55.557 61.1407 58.1325C61.1407 64.1294 56.3057 69 50.3526 69Z" fill="#696969"/>
<path d="M61.9971 35.3053C61.9971 32.9338 63.9125 31 66.271 31C68.6294 31 70.5491 32.9295 70.5491 35.3053C70.5491 37.6811 68.6336 39.6149 66.271 39.6149C63.9083 39.6149 61.9971 37.6854 61.9971 35.3053Z" fill="#696969"/>
<path d="M74 43.6567C74 45.565 73.2616 47.3586 71.9242 48.7058C70.7682 49.8704 69.2873 50.5844 67.6841 50.7586H64.8657C61.3175 50.3676 58.5498 47.3331 58.5498 43.6567C58.5498 41.9567 59.921 40.5754 61.6044 40.5754H64.1274C64.254 40.5754 64.3763 40.6349 64.4523 40.7412L66.2791 43.2657L68.1017 40.7412C68.1777 40.6392 68.2958 40.5754 68.4266 40.5754H70.9538C72.6414 40.5754 74.0084 41.9567 74.0084 43.6525L74 43.6567Z" fill="#696969"/>
</g>
<defs>
<clipPath id="clip0_2154_43">
<rect width="50" height="38" fill="white" transform="translate(24 31)"/>
</clipPath>
</defs>
</svg>
