<?xml version="1.0" encoding="UTF-8"?>
<svg id="Layer_2" data-name="Layer 2" xmlns="http://www.w3.org/2000/svg" xmlns:xlink="http://www.w3.org/1999/xlink" viewBox="0 0 338.26 412.6">
  <defs>
    <style>
      .cls-1 {
        fill: url(#linear-gradient-2);
      }

      .cls-2 {
        fill: url(#linear-gradient-3);
      }

      .cls-3 {
        fill: url(#linear-gradient);
      }
    </style>
    <linearGradient id="linear-gradient" x1="0" y1="1287.57" x2="261.28" y2="1287.57" gradientTransform="translate(0 1387.57) scale(1 -1)" gradientUnits="userSpaceOnUse">
      <stop offset="0" stop-color="#4978b9"/>
      <stop offset="1" stop-color="#4ac3ed"/>
    </linearGradient>
    <linearGradient id="linear-gradient-2" x1="0" y1="1155.75" x2="338.26" y2="1155.75" xlink:href="#linear-gradient"/>
    <linearGradient id="linear-gradient-3" x1="129.55" y1="1051.13" x2="337.89" y2="1051.13" xlink:href="#linear-gradient"/>
  </defs>
  <g id="Layer_1-2" data-name="Layer 1">
    <g>
      <path class="cls-3" d="M261.27,52.6c0,.29,0,.56,0,.85-.12,4.88-2.61,9.7-7.45,12.46L22.11,198.04C12.26,203.66,0,196.55,0,185.2v-70.85C0,109.12,2.76,104.28,7.26,101.61L175.68,2.06c2.12-1.25,4.47-1.93,6.83-2.04.42-.02.84-.03,1.26,0h.08c2.43.1,4.84.81,7,2.12l63.29,38.27c4.62,2.79,6.99,7.47,7.13,12.19h0Z"/>
      <path class="cls-1" d="M338.25,156.84v.85c-.12,4.82-2.56,9.59-7.31,12.37l-233.79,136.99c-4.53,2.65-7.31,7.51-7.31,12.76v22.56c0,11.33-12.23,18.46-22.09,12.86l-60.27-34.22c-4.63-2.63-7.48-7.54-7.48-12.86v-42.05c0-5.26,2.79-10.12,7.33-12.77L255.23,108.5c2.92-1.7,6.26-2.33,9.49-1.88h.06c1.9.28,3.76.91,5.46,1.92l60.78,36.04c4.69,2.77,7.09,7.48,7.24,12.25h0Z"/>
      <path class="cls-2" d="M337.88,309.61c0,.29,0,.57,0,.86-.12,4.82-2.56,9.6-7.32,12.38l-150.13,87.73c-4.4,2.57-9.82,2.7-14.34.32l-28.63-15.05c-4.86-2.56-7.91-7.6-7.91-13.09v-40.7c0-5.31,2.85-10.23,7.48-12.86l117.9-66.97c2.58-1.46,5.49-2.1,8.35-1.89.13,0,.26.02.38.03,2.05.2,4.09.84,5.94,1.91l60.86,34.99c4.79,2.75,7.25,7.52,7.41,12.35h.02Z"/>
    </g>
  </g>
</svg>