<?xml version="1.0" encoding="UTF-8"?>
<svg id="Layer_2" data-name="Layer 2" xmlns="http://www.w3.org/2000/svg" viewBox="0 0 728.36 378.9">
  <defs>
    <style>
      .cls-1 {
        fill: #42b862;
      }

      .cls-2 {
        fill: #2b2b2b;
      }
    </style>
  </defs>
  <g id="Layer_1-2" data-name="Layer 1">
    <g>
      <path class="cls-1" d="M347.4,378.89h150.13l62.81-140.43s2.55-13.28-17.87-9.19l-100.6-.78s-17.36,1.29-3.57-31.9L509.28,0s-121.53,6.13-157.79,154.21c0,0-16.34,72,25.53,133.79,0,0,24.51,32.17-29.62,90.89Z"/>
      <path class="cls-1" d="M523.06,378.89s165.45,2.55,201.19-152.17c0,0,27.57-92.43-60.26-182.81l-81.12,95.87c-3.46,4.08-.55,10.34,4.8,10.34h63.31c7.63,0,12.25,8.42,8.16,14.86l-136.08,213.91Z"/>
      <g>
        <rect class="cls-2" x="122.21" y="30.64" width="238.47" height="28.09" rx="14.04" ry="14.04"/>
        <rect class="cls-2" x="98.04" y="209.7" width="209.02" height="28.09" rx="14.04" ry="14.04"/>
        <rect class="cls-2" x="93.96" y="120.17" width="126.64" height="28.09" rx="14.04" ry="14.04"/>
        <rect class="cls-2" x="254.3" y="120.17" width="54.47" height="28.09" rx="14.04" ry="14.04"/>
        <rect class="cls-2" x="106.72" y="299.23" width="126.64" height="28.09" rx="14.04" ry="14.04"/>
        <rect class="cls-2" x="277.45" y="299.23" width="54.47" height="28.09" rx="14.04" ry="14.04"/>
        <rect class="cls-2" x="27.23" y="30.64" width="54.47" height="28.09" rx="14.04" ry="14.04"/>
        <rect class="cls-2" x="0" y="209.7" width="54.47" height="28.09" rx="14.04" ry="14.04"/>
      </g>
    </g>
  </g>
</svg>