<svg width="99" height="99" viewBox="0 0 99 99" fill="none" xmlns="http://www.w3.org/2000/svg">
<circle cx="49.5" cy="49.5" r="49.5" fill="#F9F9F9"/>
<path fill-rule="evenodd" clip-rule="evenodd" d="M60 27H39C35.8174 27 32.7652 28.2643 30.5147 30.5147C28.2643 32.7652 27 35.8174 27 39V60C27 63.1826 28.2643 66.2348 30.5147 68.4853C32.7652 70.7357 35.8174 72 39 72H60C63.1826 72 66.2348 70.7357 68.4853 68.4853C70.7357 66.2348 72 63.1826 72 60V39C72 35.8174 70.7357 32.7652 68.4853 30.5147C66.2348 28.2643 63.1826 27 60 27ZM69 60C69 62.3869 68.0518 64.6761 66.364 66.364C64.6761 68.0518 62.3869 69 60 69H39C36.6131 69 34.3239 68.0518 32.636 66.364C30.9482 64.6761 30 62.3869 30 60V39C30 36.6131 30.9482 34.3239 32.636 32.636C34.3239 30.9482 36.6131 30 39 30H60C62.3869 30 64.6761 30.9482 66.364 32.636C68.0518 34.3239 69 36.6131 69 39V60Z" fill="#0C9FFA"/>
<path d="M33.5957 56L40.2773 41.5625H41.459L48.1406 56H45.3477L40.9004 45.4727L36.3887 56H33.5957ZM36.9473 52.8203V50.7578H44.9609V52.8203H36.9473ZM56.0684 56.2363C55.4095 56.2363 54.7721 56.2148 54.1562 56.1719C53.5404 56.1289 52.9388 56.0645 52.3516 55.9785C51.7786 55.8926 51.1986 55.7923 50.6113 55.6777V41.8203C51.4993 41.6628 52.373 41.5339 53.2324 41.4336C54.1061 41.319 55.0299 41.2617 56.0039 41.2617C57.5938 41.2617 58.9544 41.584 60.0859 42.2285C61.2174 42.873 62.084 43.7539 62.6855 44.8711C63.3014 45.9883 63.6094 47.263 63.6094 48.6953C63.6094 49.7552 63.4375 50.7435 63.0938 51.6602C62.7643 52.5768 62.2773 53.3789 61.6328 54.0664C60.9883 54.7396 60.1934 55.2695 59.248 55.6562C58.3171 56.043 57.2572 56.2363 56.0684 56.2363ZM56.0469 54.0234C57.1211 54.0234 58.0378 53.7943 58.7969 53.3359C59.5703 52.8633 60.1647 52.2331 60.5801 51.4453C60.9954 50.6432 61.2031 49.7409 61.2031 48.7383C61.2031 47.7357 60.9954 46.8405 60.5801 46.0527C60.1647 45.2507 59.5703 44.6204 58.7969 44.1621C58.0378 43.7038 57.1211 43.4746 56.0469 43.4746C55.5599 43.4746 55.0443 43.4961 54.5 43.5391C53.9701 43.5677 53.4544 43.6178 52.9531 43.6895V53.8086C53.4544 53.8659 53.9772 53.916 54.5215 53.959C55.0658 54.002 55.5742 54.0234 56.0469 54.0234Z" fill="#0C9FFA"/>
</svg>
