<svg width="99" height="99" viewBox="0 0 99 99" fill="none" xmlns="http://www.w3.org/2000/svg">
<circle cx="49.5" cy="49.5" r="49.5" fill="#F9F9F9"/>
<path d="M41.0781 34.1875C41.0781 35.0332 40.3926 35.7188 39.5469 35.7188H36.4844C35.6387 35.7188 34.9531 35.0332 34.9531 34.1875C34.9531 33.3418 35.6387 32.6562 36.4844 32.6562H39.5469C40.3926 32.6562 41.0781 33.3418 41.0781 34.1875Z" fill="#0C9FFA"/>
<path fill-rule="evenodd" clip-rule="evenodd" d="M27.2969 37.25C27.2969 31.3302 32.0958 26.5312 38.0156 26.5312H59.4531C65.3729 26.5312 70.1719 31.3302 70.1719 37.25V51.4524C69.2726 50.5137 68.242 49.702 67.1094 49.0468V41.0781H30.3594V58.6875C30.3594 62.9159 33.7872 66.3438 38.0156 66.3438H47.5184C47.9837 67.445 48.5881 68.4732 49.3094 69.4062H38.0156C32.0958 69.4062 27.2969 64.6073 27.2969 58.6875V37.25ZM67.1094 38.0156V37.25C67.1094 33.0216 63.6816 29.5938 59.4531 29.5938H38.0156C33.7872 29.5938 30.3594 33.0216 30.3594 37.25V38.0156H67.1094Z" fill="#0C9FFA"/>
<path d="M60.2188 49.5C59.373 49.5 58.6875 50.1855 58.6875 51.0312V54.586C58.6875 55.4316 59.373 56.1172 60.2188 56.1172C61.0645 56.1172 61.75 55.4316 61.75 54.586V52.7014C65.6702 53.4215 68.6406 56.856 68.6406 60.9844C68.6406 65.6356 64.87 69.4062 60.2188 69.4062C55.5675 69.4062 51.7969 65.6356 51.7969 60.9844C51.7969 58.7036 52.7015 56.6372 54.1749 55.1192C54.7639 54.5124 54.7494 53.543 54.1426 52.954C53.5358 52.365 52.5664 52.3794 51.9773 52.9862C49.9717 55.0525 48.7344 57.8756 48.7344 60.9844C48.7344 67.327 53.8761 72.4688 60.2188 72.4688C66.5614 72.4688 71.7031 67.327 71.7031 60.9844C71.7031 54.6417 66.5614 49.5 60.2188 49.5Z" fill="#0C9FFA"/>
<path d="M56.4446 56.1141C55.8162 55.5482 54.848 55.5989 54.2821 56.2273C53.7162 56.8557 53.7668 57.8239 54.3952 58.3898L58.4831 62.0712C59.1115 62.6371 60.0798 62.5865 60.6457 61.9581C61.2116 61.3296 61.161 60.3614 60.5325 59.7955L56.4446 56.1141Z" fill="#0C9FFA"/>
</svg>
