<svg width="69" height="69" viewBox="0 0 69 69" fill="none" xmlns="http://www.w3.org/2000/svg">
<g clip-path="url(#clip0_2381_43)">
<path d="M34.5 69C53.5538 69 69 53.5538 69 34.5C69 15.4462 53.5538 0 34.5 0C15.4462 0 0 15.4462 0 34.5C0 53.5538 15.4462 69 34.5 69Z" fill="#9DC6FB"/>
<path d="M54.2937 46.5744L51.4095 43.6902C50.5557 42.841 49.4447 42.2985 48.2499 42.1473C47.0552 41.9961 45.8441 42.2449 44.8056 42.8546L41.3288 39.3774C43.8339 36.3701 45.0832 32.5128 44.8167 28.6078C44.5502 24.7029 42.7885 21.051 39.8981 18.4119C37.0076 15.7728 33.211 14.3496 29.298 14.4385C25.385 14.5274 21.6569 16.1214 18.8892 18.889C16.1215 21.6566 14.5274 25.3847 14.4385 29.2977C14.3496 33.2107 15.7727 37.0074 18.4117 39.8979C21.0508 42.7884 24.7026 44.5501 28.6076 44.8167C32.5125 45.0832 36.3699 43.834 39.3772 41.329L42.8542 44.8061C42.2445 45.8446 41.9957 47.0557 42.1469 48.2505C42.298 49.4452 42.8405 50.5562 43.6897 51.4101L46.5739 54.2943C47.0808 54.8012 47.6826 55.2033 48.3448 55.4776C49.0071 55.7519 49.717 55.8931 50.4338 55.8931C51.1507 55.8931 51.8605 55.7519 52.5228 55.4776C53.1851 55.2033 53.7869 54.8012 54.2938 54.2943C54.8007 53.7874 55.2027 53.1856 55.4771 52.5233C55.7514 51.861 55.8926 51.1512 55.8926 50.4343C55.8926 49.7175 55.7514 49.0076 55.4771 48.3454C55.2027 47.6831 54.8006 47.0813 54.2937 46.5744ZM29.6705 42.0918C27.2139 42.0918 24.8124 41.3633 22.7698 39.9985C20.7272 38.6337 19.1352 36.6938 18.1951 34.4242C17.255 32.1546 17.009 29.6572 17.4883 27.2478C17.9676 24.8384 19.1505 22.6252 20.8876 20.8881C22.6247 19.151 24.8379 17.9681 27.2473 17.4888C29.6567 17.0096 32.1541 17.2555 34.4237 18.1957C36.6934 19.1358 38.6332 20.7278 39.998 22.7704C41.3628 24.813 42.0913 27.2144 42.0913 29.671C42.0877 32.9641 40.7779 36.1213 38.4493 38.4499C36.1208 40.7785 32.9636 42.0882 29.6705 42.0918ZM52.3422 52.3428C51.8354 52.8477 51.1492 53.1312 50.4338 53.1312C49.7184 53.1312 49.0322 52.8477 48.5254 52.3428L45.6412 49.4586C45.1355 48.9523 44.8515 48.266 44.8516 47.5504C44.8518 46.8349 45.1361 46.1486 45.6421 45.6427C46.1481 45.1367 46.8343 44.8523 47.5499 44.8522C48.2654 44.852 48.9518 45.136 49.458 45.6417L52.3422 48.5259C52.8472 49.0327 53.1307 49.719 53.1307 50.4343C53.1307 51.1497 52.8472 51.836 52.3422 52.3428Z" fill="#80B4FB"/>
<path d="M34.215 25.0157L27.8294 31.3985L25.1258 28.695C24.8662 28.4402 24.5165 28.2983 24.1528 28.3C23.789 28.3017 23.4407 28.447 23.1835 28.7042C22.9263 28.9614 22.781 29.3097 22.7793 29.6735C22.7776 30.0372 22.9195 30.3869 23.1743 30.6465L26.8536 34.3258C26.9817 34.454 27.1338 34.5557 27.3013 34.6251C27.4687 34.6945 27.6481 34.7302 27.8294 34.7302C28.0106 34.7302 28.19 34.6945 28.3575 34.6251C28.5249 34.5557 28.677 34.454 28.8051 34.3258L36.1665 26.967C36.4193 26.707 36.5596 26.3579 36.5571 25.9952C36.5545 25.6326 36.4093 25.2855 36.1528 25.0291C35.8964 24.7727 35.5493 24.6275 35.1867 24.625C34.824 24.6225 34.475 24.7629 34.215 25.0157Z" fill="#80B4FB"/>
<path d="M52.9139 45.1945L50.0297 42.3103C49.1758 41.4611 48.0648 40.9186 46.8701 40.7674C45.6753 40.6163 44.4642 40.865 43.4257 41.4747L39.9489 37.9975C42.454 34.9902 43.7033 31.1329 43.4368 27.2279C43.1703 23.323 41.4086 19.6711 38.5182 17.032C35.6277 14.3929 31.8311 12.9697 27.9181 13.0586C24.0051 13.1475 20.277 14.7415 17.5093 17.5091C14.7417 20.2767 13.1476 24.0048 13.0586 27.9178C12.9697 31.8308 14.3928 35.6275 17.0318 38.518C19.6709 41.4085 23.3227 43.1702 27.2277 43.4368C31.1326 43.7033 34.99 42.4541 37.9973 39.9491L41.4744 43.4263C40.8646 44.4647 40.6158 45.6758 40.767 46.8706C40.9181 48.0653 41.4606 49.1763 42.3098 50.0302L45.194 52.9144C46.2177 53.9381 47.6062 54.5132 49.0539 54.5132C49.7708 54.5132 50.4806 54.372 51.1429 54.0977C51.8052 53.8234 52.407 53.4213 52.9139 52.9144C53.4208 52.4075 53.8229 51.8057 54.0972 51.1434C54.3715 50.4811 54.5127 49.7713 54.5127 49.0545C54.5127 48.3376 54.3715 47.6278 54.0972 46.9655C53.8229 46.3032 53.4208 45.7014 52.9139 45.1945ZM28.2906 40.7119C25.834 40.7119 23.4325 39.9835 21.3899 38.6186C19.3473 37.2538 17.7553 35.314 16.8152 33.0443C15.8751 30.7747 15.6292 28.2773 16.1084 25.8679C16.5877 23.4585 17.7707 21.2453 19.5078 19.5082C21.2448 17.7712 23.458 16.5882 25.8674 16.1089C28.2768 15.6297 30.7743 15.8757 33.0439 16.8158C35.3135 17.7559 37.2533 19.3479 38.6182 21.3905C39.983 23.4331 40.7114 25.8345 40.7114 28.2911C40.7078 31.5842 39.398 34.7414 37.0695 37.07C34.7409 39.3986 31.5837 40.7083 28.2906 40.7119ZM50.9623 50.9629C50.4556 51.4678 49.7693 51.7513 49.0539 51.7513C48.3385 51.7513 47.6523 51.4678 47.1455 50.9629L44.2613 48.0787C43.7556 47.5725 43.4716 46.8861 43.4718 46.1706C43.4719 45.455 43.7562 44.7688 44.2622 44.2628C44.7682 43.7568 45.4544 43.4725 46.17 43.4723C46.8856 43.4721 47.5719 43.7561 48.0781 44.2618L50.9623 47.146C51.4673 47.6528 51.7508 48.3391 51.7508 49.0545C51.7508 49.7699 51.4673 50.4561 50.9623 50.9629Z" fill="white"/>
<path d="M32.8351 23.6358L26.4495 30.0187L23.7459 27.3151C23.4863 27.0604 23.1366 26.9184 22.7729 26.9201C22.4091 26.9219 22.0608 27.0671 21.8036 27.3243C21.5464 27.5815 21.4012 27.9298 21.3994 28.2936C21.3977 28.6573 21.5397 29.007 21.7944 29.2666L25.4737 32.946C25.6018 33.0741 25.7539 33.1758 25.9214 33.2452C26.0888 33.3146 26.2683 33.3503 26.4495 33.3503C26.6307 33.3503 26.8102 33.3146 26.9776 33.2452C27.145 33.1758 27.2971 33.0741 27.4252 32.946L34.7867 25.5871C35.0395 25.3271 35.1797 24.978 35.1772 24.6154C35.1746 24.2527 35.0294 23.9057 34.773 23.6492C34.5165 23.3928 34.1694 23.2477 33.8068 23.2452C33.4441 23.2426 33.0951 23.383 32.8351 23.6358Z" fill="white"/>
</g>
<defs>
<clipPath id="clip0_2381_43">
<rect width="69" height="69" fill="white"/>
</clipPath>
</defs>
</svg>
