<svg width="349" height="77" viewBox="0 0 349 77" fill="none" xmlns="http://www.w3.org/2000/svg">
<g filter="url(#filter0_d_2357_43)">
<rect x="12" y="12" width="325" height="53" rx="26.5" fill="white"/>
</g>
<path d="M60.0735 37.425C60.0735 36.2874 59.8968 35.1945 59.7128 34.1387H44.9014V40.3396H53.2125C52.8445 42.3471 51.9022 44.0498 50.2164 45.1948V49.2396H55.3621C58.3583 46.4439 60.0809 42.31 60.0809 37.425H60.0735Z" fill="#4284F4"/>
<path d="M44.8491 53.1126C49.1262 53.1126 52.726 51.6924 55.3541 49.2388L50.2083 45.1941C48.7949 46.1606 46.9766 46.7257 44.8491 46.7257C40.7267 46.7257 37.2226 43.9078 35.9711 40.1084H30.6855V44.2647C33.2915 49.5139 38.6507 53.1126 44.8491 53.1126Z" fill="#34A853"/>
<path d="M35.9714 40.1088C35.6548 39.1423 35.4782 38.1162 35.4782 37.053C35.4782 35.9897 35.6548 34.9637 35.9714 33.9971V29.8408H30.6858C29.611 32.0119 29 34.4581 29 37.053C29 39.6478 29.611 42.094 30.6858 44.2651L35.9714 40.1088Z" fill="#FBBC04"/>
<path d="M44.8491 27.3868C47.1754 27.3868 49.2661 28.1973 50.915 29.7884L55.4571 25.186C52.7113 22.5911 49.1262 21 44.8491 21C38.6581 21 33.2915 24.5986 30.6855 29.8479L35.9711 34.0042C37.2226 30.2048 40.7193 27.3868 44.8491 27.3868Z" fill="#EA4335"/>
<path d="M168.608 44.932C167.068 46.472 165.191 47.242 162.976 47.242C160.761 47.242 158.884 46.472 157.344 44.932C155.804 43.3773 155.034 41.5 155.034 39.3C155.034 37.1 155.804 35.23 157.344 33.69C158.884 32.1353 160.761 31.358 162.976 31.358C165.191 31.358 167.068 32.1353 168.608 33.69C170.148 35.23 170.918 37.1 170.918 39.3C170.918 41.5 170.148 43.3773 168.608 44.932ZM158.158 44.14C159.478 45.46 161.084 46.12 162.976 46.12C164.868 46.12 166.467 45.46 167.772 44.14C169.092 42.8053 169.752 41.192 169.752 39.3C169.752 37.408 169.092 35.802 167.772 34.482C166.467 33.1473 164.868 32.48 162.976 32.48C161.084 32.48 159.478 33.1473 158.158 34.482C156.853 35.802 156.2 37.408 156.2 39.3C156.2 41.192 156.853 42.8053 158.158 44.14ZM187.427 36V47H186.327V37.078H181.509V47H180.387V37.078H175.569V47H174.447V37.078H172.555V36H174.447V35.406C174.447 34.0273 174.821 32.986 175.569 32.282C176.332 31.5633 177.424 31.2553 178.847 31.358V32.414C176.662 32.238 175.569 33.2353 175.569 35.406V36H180.387V35.186C180.387 32.4873 181.854 31.138 184.787 31.138C185.432 31.138 186.144 31.2187 186.921 31.38V32.392C186.188 32.26 185.476 32.194 184.787 32.194C183.643 32.194 182.807 32.4287 182.279 32.898C181.766 33.3673 181.509 34.13 181.509 35.186V36H187.427ZM195.859 47.242C194.202 47.242 192.823 46.692 191.723 45.592C190.623 44.492 190.073 43.128 190.073 41.5C190.073 39.872 190.623 38.508 191.723 37.408C192.823 36.308 194.202 35.758 195.859 35.758C196.93 35.758 197.898 36.0147 198.763 36.528C199.628 37.0267 200.259 37.7087 200.655 38.574L199.753 39.102C199.43 38.398 198.917 37.8407 198.213 37.43C197.524 37.0193 196.739 36.814 195.859 36.814C194.539 36.814 193.432 37.2687 192.537 38.178C191.642 39.0727 191.195 40.18 191.195 41.5C191.195 42.82 191.642 43.9347 192.537 44.844C193.432 45.7387 194.539 46.186 195.859 46.186C196.739 46.186 197.524 45.9807 198.213 45.57C198.917 45.1593 199.452 44.602 199.819 43.898L200.743 44.448C200.303 45.2987 199.643 45.9807 198.763 46.494C197.898 46.9927 196.93 47.242 195.859 47.242ZM204.319 33.096C204.143 33.2573 203.938 33.338 203.703 33.338C203.468 33.338 203.263 33.2573 203.087 33.096C202.911 32.92 202.823 32.7073 202.823 32.458C202.823 32.2233 202.911 32.0253 203.087 31.864C203.263 31.688 203.468 31.6 203.703 31.6C203.938 31.6 204.143 31.688 204.319 31.864C204.495 32.0253 204.583 32.2233 204.583 32.458C204.583 32.7073 204.495 32.92 204.319 33.096ZM203.153 47V36H204.253V47H203.153ZM217.323 36H218.445V47H217.323V44.514C216.854 45.3647 216.209 46.032 215.387 46.516C214.566 47 213.635 47.242 212.593 47.242C211.024 47.242 209.682 46.692 208.567 45.592C207.453 44.4773 206.895 43.1133 206.895 41.5C206.895 39.8867 207.453 38.53 208.567 37.43C209.682 36.3153 211.024 35.758 212.593 35.758C213.635 35.758 214.566 36 215.387 36.484C216.209 36.968 216.854 37.6353 217.323 38.486V36ZM209.359 44.822C210.269 45.7313 211.376 46.186 212.681 46.186C213.987 46.186 215.087 45.7313 215.981 44.822C216.876 43.9127 217.323 42.8053 217.323 41.5C217.323 40.1947 216.876 39.0873 215.981 38.178C215.087 37.2687 213.987 36.814 212.681 36.814C211.376 36.814 210.269 37.2687 209.359 38.178C208.465 39.0873 208.017 40.1947 208.017 41.5C208.017 42.8053 208.465 43.9127 209.359 44.822ZM221.823 47V30.94H222.923V47H221.823ZM237.634 31.6C239.013 31.6 240.157 32.0547 241.066 32.964C241.976 33.8733 242.43 35.01 242.43 36.374C242.43 37.738 241.976 38.8747 241.066 39.784C240.157 40.6787 239.013 41.126 237.634 41.126H233.564V47H232.398V31.6H237.634ZM237.634 40.026C238.69 40.026 239.556 39.6813 240.23 38.992C240.92 38.3027 241.264 37.43 241.264 36.374C241.264 35.3033 240.92 34.4233 240.23 33.734C239.556 33.0447 238.69 32.7 237.634 32.7H233.564V40.026H237.634ZM253.89 36H255.012V47H253.89V44.514C253.42 45.3647 252.775 46.032 251.954 46.516C251.132 47 250.201 47.242 249.16 47.242C247.59 47.242 246.248 46.692 245.134 45.592C244.019 44.4773 243.462 43.1133 243.462 41.5C243.462 39.8867 244.019 38.53 245.134 37.43C246.248 36.3153 247.59 35.758 249.16 35.758C250.201 35.758 251.132 36 251.954 36.484C252.775 36.968 253.42 37.6353 253.89 38.486V36ZM245.926 44.822C246.835 45.7313 247.942 46.186 249.248 46.186C250.553 46.186 251.653 45.7313 252.548 44.822C253.442 43.9127 253.89 42.8053 253.89 41.5C253.89 40.1947 253.442 39.0873 252.548 38.178C251.653 37.2687 250.553 36.814 249.248 36.814C247.942 36.814 246.835 37.2687 245.926 38.178C245.031 39.0873 244.584 40.1947 244.584 41.5C244.584 42.8053 245.031 43.9127 245.926 44.822ZM259.489 38.156C260.149 36.616 261.374 35.846 263.163 35.846V36.902C262.122 36.902 261.249 37.2393 260.545 37.914C259.841 38.574 259.489 39.564 259.489 40.884V47H258.389V36H259.489V38.156ZM271.176 37.078H267.898V44.228C267.898 44.8587 268.015 45.3133 268.25 45.592C268.484 45.8707 268.844 46.032 269.328 46.076C269.812 46.1053 270.428 46.0833 271.176 46.01V47C269.694 47.22 268.587 47.1173 267.854 46.692C267.135 46.2667 266.776 45.4453 266.776 44.228V37.078H264.356V36H266.776V33.25L267.898 32.92V36H271.176V37.078ZM278.853 35.758C280.158 35.758 281.192 36.1613 281.955 36.968C282.732 37.76 283.121 38.8233 283.121 40.158V47H281.999V40.158C281.999 39.1313 281.713 38.3173 281.141 37.716C280.584 37.1147 279.792 36.814 278.765 36.814C277.636 36.814 276.712 37.188 275.993 37.936C275.274 38.684 274.915 39.7693 274.915 41.192V47H273.815V36H274.915V38.09C275.707 36.5353 277.02 35.758 278.853 35.758ZM291.183 35.758C292.796 35.758 294.102 36.33 295.099 37.474C296.111 38.618 296.617 39.9747 296.617 41.544C296.617 41.6027 296.61 41.6907 296.595 41.808C296.595 41.9253 296.595 42.0133 296.595 42.072H286.629C286.761 43.304 287.252 44.3013 288.103 45.064C288.968 45.812 290.032 46.186 291.293 46.186C292.173 46.186 292.943 46.0027 293.603 45.636C294.263 45.2693 294.762 44.7853 295.099 44.184L296.067 44.756C295.612 45.5187 294.967 46.1273 294.131 46.582C293.295 47.022 292.342 47.242 291.271 47.242C289.584 47.242 288.198 46.7067 287.113 45.636C286.028 44.5507 285.485 43.172 285.485 41.5C285.485 39.8573 286.013 38.4933 287.069 37.408C288.14 36.308 289.511 35.758 291.183 35.758ZM291.183 36.814C289.936 36.814 288.895 37.2027 288.059 37.98C287.223 38.7573 286.746 39.762 286.629 40.994H295.473C295.356 39.6887 294.886 38.6693 294.065 37.936C293.258 37.188 292.298 36.814 291.183 36.814ZM300.288 38.156C300.948 36.616 302.173 35.846 303.962 35.846V36.902C302.921 36.902 302.048 37.2393 301.344 37.914C300.64 38.574 300.288 39.564 300.288 40.884V47H299.188V36H300.288V38.156ZM306.51 38.882C306.51 39.4247 306.738 39.85 307.192 40.158C307.647 40.466 308.204 40.7007 308.864 40.862C309.524 41.0087 310.177 41.1773 310.822 41.368C311.482 41.5587 312.04 41.8813 312.494 42.336C312.949 42.776 313.176 43.37 313.176 44.118C313.176 45.0273 312.81 45.7753 312.076 46.362C311.358 46.9487 310.412 47.242 309.238 47.242C308.182 47.242 307.288 47.022 306.554 46.582C305.836 46.1273 305.337 45.5333 305.058 44.8L306.004 44.25C306.21 44.8513 306.591 45.328 307.148 45.68C307.72 46.0173 308.417 46.186 309.238 46.186C310.06 46.186 310.734 46.01 311.262 45.658C311.805 45.2913 312.076 44.778 312.076 44.118C312.076 43.5753 311.849 43.1427 311.394 42.82C310.94 42.4973 310.382 42.2627 309.722 42.116C309.062 41.9547 308.402 41.7787 307.742 41.588C307.097 41.3973 306.547 41.082 306.092 40.642C305.638 40.202 305.41 39.6153 305.41 38.882C305.41 38.002 305.755 37.2613 306.444 36.66C307.148 36.0587 308.05 35.758 309.15 35.758C310.03 35.758 310.793 35.956 311.438 36.352C312.098 36.748 312.582 37.2833 312.89 37.958L311.966 38.486C311.746 37.9433 311.38 37.5327 310.866 37.254C310.353 36.9607 309.781 36.814 309.15 36.814C308.402 36.814 307.772 37.0047 307.258 37.386C306.76 37.7527 306.51 38.2513 306.51 38.882Z" fill="#696969"/>
<g clip-path="url(#clip0_2357_43)">
<path d="M76.1801 44.9301C74.9401 44.2301 73.9501 43.2901 73.2101 42.0701C72.4801 40.8601 72.1201 39.5101 72.1201 38.0401C72.1201 36.5701 72.4901 35.2301 73.2101 34.0101C73.9301 32.8001 74.9301 31.8501 76.1801 31.1501C77.4301 30.4701 78.8001 30.1201 80.2701 30.1201C81.4201 30.1201 82.5101 30.3101 83.5301 30.7101C84.5401 31.1101 85.3901 31.6601 86.0501 32.3801L84.7101 33.6701C84.2201 33.0801 83.5701 32.6201 82.8001 32.3101C82.0201 32.0001 81.1901 31.8401 80.2901 31.8401C79.1801 31.8401 78.1401 32.0901 77.1901 32.6101C76.2401 33.1301 75.4701 33.8501 74.8801 34.7901C74.3001 35.7201 74.0201 36.8201 74.0201 38.0501C74.0201 39.2801 74.3101 40.3601 74.8801 41.3101C75.4501 42.2601 76.2301 42.9701 77.2001 43.4901C78.1701 44.0101 79.2001 44.2601 80.3001 44.2601C81.4001 44.2601 82.2401 44.1001 82.9401 43.7901C83.6501 43.4801 84.2601 43.0501 84.7701 42.5301C85.1501 42.1301 85.4601 41.6601 85.6901 41.0901C85.9201 40.5301 86.0701 39.9201 86.1401 39.2401H80.3201V37.5701H87.8801C87.9601 37.9701 87.9901 38.3201 87.9901 38.6701C87.9901 39.6001 87.8401 40.5101 87.5301 41.3901C87.2201 42.2801 86.7301 43.0501 86.0501 43.7101C84.6101 45.2201 82.6701 45.9701 80.2701 45.9701C78.7901 45.9701 77.4301 45.6301 76.1801 44.9301ZM92.6101 45.1901C91.7301 44.6901 91.0401 43.9901 90.5501 43.1201C90.0601 42.2501 89.8101 41.2801 89.8101 40.2201C89.8101 39.1601 90.0601 38.1901 90.5501 37.3201C91.0401 36.4501 91.7301 35.7501 92.6101 35.2501C93.4901 34.7501 94.4901 34.5001 95.5801 34.5001C96.6701 34.5001 97.6701 34.7501 98.5501 35.2501C99.4301 35.7501 100.12 36.4501 100.61 37.3201C101.1 38.1901 101.35 39.1601 101.35 40.2201C101.35 41.2801 101.1 42.2501 100.61 43.1201C100.12 43.9901 99.4301 44.6901 98.5501 45.1901C97.6701 45.6901 96.6701 45.9401 95.5801 45.9401C94.4901 45.9401 93.4901 45.6901 92.6101 45.1901ZM97.5001 43.8301C98.1001 43.5001 98.5801 43.0201 98.9301 42.3901C99.2801 41.7601 99.4701 41.0401 99.4701 40.2101C99.4701 39.3801 99.2901 38.6601 98.9301 38.0301C98.5801 37.4101 98.1001 36.9301 97.5001 36.6101C96.9001 36.2801 96.2701 36.1101 95.5801 36.1101C94.8901 36.1101 94.2401 36.2701 93.6401 36.6101C93.0401 36.9401 92.5601 37.4201 92.2001 38.0301C91.8501 38.6501 91.6601 39.3801 91.6601 40.2101C91.6601 41.0401 91.8401 41.7601 92.2001 42.3901C92.5501 43.0101 93.0501 43.4901 93.6401 43.8301C94.2401 44.1601 94.8801 44.3301 95.5801 44.3301C96.2801 44.3301 96.9201 44.1701 97.5001 43.8301ZM105.69 45.1901C104.81 44.6901 104.12 43.9901 103.63 43.1201C103.14 42.2501 102.89 41.2801 102.89 40.2201C102.89 39.1601 103.14 38.1901 103.63 37.3201C104.12 36.4501 104.81 35.7501 105.69 35.2501C106.57 34.7501 107.57 34.5001 108.66 34.5001C109.75 34.5001 110.75 34.7501 111.63 35.2501C112.51 35.7501 113.2 36.4501 113.69 37.3201C114.18 38.1901 114.43 39.1601 114.43 40.2201C114.43 41.2801 114.18 42.2501 113.69 43.1201C113.2 43.9901 112.51 44.6901 111.63 45.1901C110.75 45.6901 109.75 45.9401 108.66 45.9401C107.57 45.9401 106.57 45.6901 105.69 45.1901ZM110.58 43.8301C111.18 43.5001 111.66 43.0201 112.01 42.3901C112.36 41.7701 112.55 41.0401 112.55 40.2101C112.55 39.3801 112.37 38.6601 112.01 38.0301C111.66 37.4101 111.18 36.9301 110.58 36.6101C109.98 36.2801 109.35 36.1101 108.66 36.1101C107.97 36.1101 107.32 36.2701 106.72 36.6101C106.12 36.9401 105.64 37.4201 105.28 38.0301C104.93 38.6501 104.74 39.3801 104.74 40.2101C104.74 41.0401 104.92 41.7601 105.28 42.3901C105.63 43.0101 106.13 43.4901 106.72 43.8301C107.32 44.1601 107.96 44.3301 108.66 44.3301C109.36 44.3301 110 44.1701 110.58 43.8301ZM118.22 49.6501C117.36 49.0601 116.79 48.3501 116.5 47.5201L118.19 46.8201C118.44 47.4401 118.85 47.9401 119.43 48.3301C120.01 48.7101 120.69 48.9101 121.49 48.9101C122.64 48.9101 123.55 48.6001 124.18 47.9801C124.81 47.3601 125.13 46.4701 125.13 45.3201V44.1201H125.04C124.67 44.6701 124.16 45.1101 123.49 45.4701C122.83 45.8101 122.06 45.9901 121.22 45.9901C120.25 45.9901 119.38 45.7501 118.58 45.2601C117.78 44.7701 117.15 44.0901 116.67 43.2301C116.19 42.3601 115.96 41.3601 115.96 40.2501C115.96 39.1401 116.19 38.1601 116.67 37.2901C117.15 36.4201 117.78 35.7401 118.58 35.2501C119.38 34.7601 120.26 34.5201 121.22 34.5201C122.07 34.5201 122.83 34.7001 123.49 35.0401C124.15 35.3801 124.67 35.8401 125.04 36.4001H125.13V34.8601H126.91V45.2401C126.91 46.9701 126.42 48.3001 125.42 49.2101C124.42 50.1101 123.11 50.5701 121.49 50.5701C120.17 50.5701 119.08 50.2701 118.23 49.6801L118.21 49.6501H118.22ZM123.32 43.8301C123.87 43.5001 124.3 43.0301 124.64 42.4101C124.96 41.7901 125.13 41.0601 125.13 40.2201C125.13 39.3801 124.96 38.6201 124.64 38.0001C124.32 37.3801 123.87 36.9201 123.32 36.5901C122.77 36.2601 122.15 36.1001 121.49 36.1001C120.83 36.1001 120.2 36.2601 119.65 36.5901C119.1 36.9201 118.65 37.3901 118.31 38.0101C117.99 38.6301 117.82 39.3601 117.82 40.2001C117.82 41.0401 117.99 41.7801 118.31 42.4101C118.63 43.0301 119.08 43.5101 119.65 43.8301C120.22 44.1601 120.82 44.3201 121.49 44.3201C122.16 44.3201 122.78 44.1601 123.32 43.8301ZM129.67 30.4701H131.55V45.6301H129.67V30.4701ZM136.41 45.2201C135.56 44.7301 134.9 44.0501 134.43 43.1801C133.95 42.3101 133.72 41.3301 133.72 40.2501C133.72 39.1701 133.95 38.2501 134.4 37.3601C134.85 36.4901 135.48 35.7901 136.31 35.2601C137.12 34.7401 138.08 34.4801 139.17 34.4801C140.26 34.4801 141.21 34.7201 142.03 35.1901C142.83 35.6601 143.46 36.3101 143.89 37.1401C144.32 37.9701 144.54 38.9301 144.54 40.0001C144.54 40.2101 144.52 40.4001 144.48 40.5501H135.63C135.68 41.3601 135.88 42.0601 136.24 42.6201C136.61 43.1801 137.07 43.6101 137.64 43.8901C138.21 44.1701 138.79 44.3201 139.41 44.3201C140.84 44.3201 141.95 43.6701 142.73 42.3701L144.31 43.1101C143.83 43.9801 143.17 44.6801 142.34 45.1801C141.51 45.6801 140.51 45.9301 139.34 45.9301C138.26 45.9301 137.31 45.6801 136.47 45.1901L136.42 45.2201H136.41ZM142.52 39.0801C142.49 38.6401 142.35 38.1801 142.12 37.7201C141.89 37.2801 141.52 36.8901 141.01 36.5801C140.5 36.2701 139.87 36.1201 139.1 36.1201C138.22 36.1201 137.47 36.3901 136.87 36.9301C136.26 37.4801 135.86 38.1901 135.67 39.0801H142.51H142.52Z" fill="#5F6368"/>
<path d="M76.1801 44.9301C74.9401 44.2301 73.9501 43.2901 73.2101 42.0701C72.4801 40.8601 72.1201 39.5101 72.1201 38.0401C72.1201 36.5701 72.4901 35.2301 73.2101 34.0101C73.9301 32.8001 74.9301 31.8501 76.1801 31.1501C77.4301 30.4701 78.8001 30.1201 80.2701 30.1201C81.4201 30.1201 82.5101 30.3101 83.5301 30.7101C84.5401 31.1101 85.3901 31.6601 86.0501 32.3801L84.7101 33.6701C84.2201 33.0801 83.5701 32.6201 82.8001 32.3101C82.0201 32.0001 81.1901 31.8401 80.2901 31.8401C79.1801 31.8401 78.1401 32.0901 77.1901 32.6101C76.2401 33.1301 75.4701 33.8501 74.8801 34.7901C74.3001 35.7201 74.0201 36.8201 74.0201 38.0501C74.0201 39.2801 74.3101 40.3601 74.8801 41.3101C75.4501 42.2601 76.2301 42.9701 77.2001 43.4901C78.1701 44.0101 79.2001 44.2601 80.3001 44.2601C81.4001 44.2601 82.2401 44.1001 82.9401 43.7901C83.6501 43.4801 84.2601 43.0501 84.7701 42.5301C85.1501 42.1301 85.4601 41.6601 85.6901 41.0901C85.9201 40.5301 86.0701 39.9201 86.1401 39.2401H80.3201V37.5701H87.8801C87.9601 37.9701 87.9901 38.3201 87.9901 38.6701C87.9901 39.6001 87.8401 40.5101 87.5301 41.3901C87.2201 42.2801 86.7301 43.0501 86.0501 43.7101C84.6101 45.2201 82.6701 45.9701 80.2701 45.9701C78.7901 45.9701 77.4301 45.6301 76.1801 44.9301ZM76.1801 44.9301H76.1601M92.6101 45.1901C91.7301 44.6901 91.0401 43.9901 90.5501 43.1201C90.0601 42.2501 89.8101 41.2801 89.8101 40.2201C89.8101 39.1601 90.0601 38.1901 90.5501 37.3201C91.0401 36.4501 91.7301 35.7501 92.6101 35.2501C93.4901 34.7501 94.4901 34.5001 95.5801 34.5001C96.6701 34.5001 97.6701 34.7501 98.5501 35.2501C99.4301 35.7501 100.12 36.4501 100.61 37.3201C101.1 38.1901 101.35 39.1601 101.35 40.2201C101.35 41.2801 101.1 42.2501 100.61 43.1201C100.12 43.9901 99.4301 44.6901 98.5501 45.1901C97.6701 45.6901 96.6701 45.9401 95.5801 45.9401C94.4901 45.9401 93.4901 45.6901 92.6101 45.1901ZM97.5001 43.8301C98.1001 43.5001 98.5801 43.0201 98.9301 42.3901C99.2801 41.7601 99.4701 41.0401 99.4701 40.2101C99.4701 39.3801 99.2901 38.6601 98.9301 38.0301C98.5801 37.4101 98.1001 36.9301 97.5001 36.6101C96.9001 36.2801 96.2701 36.1101 95.5801 36.1101C94.8901 36.1101 94.2401 36.2701 93.6401 36.6101C93.0401 36.9401 92.5601 37.4201 92.2001 38.0301C91.8501 38.6501 91.6601 39.3801 91.6601 40.2101C91.6601 41.0401 91.8401 41.7601 92.2001 42.3901C92.5501 43.0101 93.0501 43.4901 93.6401 43.8301C94.2401 44.1601 94.8801 44.3301 95.5801 44.3301C96.2801 44.3301 96.9201 44.1701 97.5001 43.8301ZM105.69 45.1901C104.81 44.6901 104.12 43.9901 103.63 43.1201C103.14 42.2501 102.89 41.2801 102.89 40.2201C102.89 39.1601 103.14 38.1901 103.63 37.3201C104.12 36.4501 104.81 35.7501 105.69 35.2501C106.57 34.7501 107.57 34.5001 108.66 34.5001C109.75 34.5001 110.75 34.7501 111.63 35.2501C112.51 35.7501 113.2 36.4501 113.69 37.3201C114.18 38.1901 114.43 39.1601 114.43 40.2201C114.43 41.2801 114.18 42.2501 113.69 43.1201C113.2 43.9901 112.51 44.6901 111.63 45.1901C110.75 45.6901 109.75 45.9401 108.66 45.9401C107.57 45.9401 106.57 45.6901 105.69 45.1901ZM110.58 43.8301C111.18 43.5001 111.66 43.0201 112.01 42.3901C112.36 41.7701 112.55 41.0401 112.55 40.2101C112.55 39.3801 112.37 38.6601 112.01 38.0301C111.66 37.4101 111.18 36.9301 110.58 36.6101C109.98 36.2801 109.35 36.1101 108.66 36.1101C107.97 36.1101 107.32 36.2701 106.72 36.6101C106.12 36.9401 105.64 37.4201 105.28 38.0301C104.93 38.6501 104.74 39.3801 104.74 40.2101C104.74 41.0401 104.92 41.7601 105.28 42.3901C105.63 43.0101 106.13 43.4901 106.72 43.8301C107.32 44.1601 107.96 44.3301 108.66 44.3301C109.36 44.3301 110 44.1701 110.58 43.8301ZM118.22 49.6501C117.36 49.0601 116.79 48.3501 116.5 47.5201L118.19 46.8201C118.44 47.4401 118.85 47.9401 119.43 48.3301C120.01 48.7101 120.69 48.9101 121.49 48.9101C122.64 48.9101 123.55 48.6001 124.18 47.9801C124.81 47.3601 125.13 46.4701 125.13 45.3201V44.1201H125.04C124.67 44.6701 124.16 45.1101 123.49 45.4701C122.83 45.8101 122.06 45.9901 121.22 45.9901C120.25 45.9901 119.38 45.7501 118.58 45.2601C117.78 44.7701 117.15 44.0901 116.67 43.2301C116.19 42.3601 115.96 41.3601 115.96 40.2501C115.96 39.1401 116.19 38.1601 116.67 37.2901C117.15 36.4201 117.78 35.7401 118.58 35.2501C119.38 34.7601 120.26 34.5201 121.22 34.5201C122.07 34.5201 122.83 34.7001 123.49 35.0401C124.15 35.3801 124.67 35.8401 125.04 36.4001H125.13V34.8601H126.91V45.2401C126.91 46.9701 126.42 48.3001 125.42 49.2101C124.42 50.1101 123.11 50.5701 121.49 50.5701C120.17 50.5701 119.08 50.2701 118.23 49.6801L118.21 49.6501H118.22ZM123.32 43.8301C123.87 43.5001 124.3 43.0301 124.64 42.4101C124.96 41.7901 125.13 41.0601 125.13 40.2201C125.13 39.3801 124.96 38.6201 124.64 38.0001C124.32 37.3801 123.87 36.9201 123.32 36.5901C122.77 36.2601 122.15 36.1001 121.49 36.1001C120.83 36.1001 120.2 36.2601 119.65 36.5901C119.1 36.9201 118.65 37.3901 118.31 38.0101C117.99 38.6301 117.82 39.3601 117.82 40.2001C117.82 41.0401 117.99 41.7801 118.31 42.4101C118.63 43.0301 119.08 43.5101 119.65 43.8301C120.22 44.1601 120.82 44.3201 121.49 44.3201C122.16 44.3201 122.78 44.1601 123.32 43.8301ZM129.67 30.4701H131.55V45.6301H129.67V30.4701ZM136.41 45.2201C135.56 44.7301 134.9 44.0501 134.43 43.1801C133.95 42.3101 133.72 41.3301 133.72 40.2501C133.72 39.1701 133.95 38.2501 134.4 37.3601C134.85 36.4901 135.48 35.7901 136.31 35.2601C137.12 34.7401 138.08 34.4801 139.17 34.4801C140.26 34.4801 141.21 34.7201 142.03 35.1901C142.83 35.6601 143.46 36.3101 143.89 37.1401C144.32 37.9701 144.54 38.9301 144.54 40.0001C144.54 40.2101 144.52 40.4001 144.48 40.5501H135.63C135.68 41.3601 135.88 42.0601 136.24 42.6201C136.61 43.1801 137.07 43.6101 137.64 43.8901C138.21 44.1701 138.79 44.3201 139.41 44.3201C140.84 44.3201 141.95 43.6701 142.73 42.3701L144.31 43.1101C143.83 43.9801 143.17 44.6801 142.34 45.1801C141.51 45.6801 140.51 45.9301 139.34 45.9301C138.26 45.9301 137.31 45.6801 136.47 45.1901L136.42 45.2201H136.41ZM142.52 39.0801C142.49 38.6401 142.35 38.1801 142.12 37.7201C141.89 37.2801 141.52 36.8901 141.01 36.5801C140.5 36.2701 139.87 36.1201 139.1 36.1201C138.22 36.1201 137.47 36.3901 136.87 36.9301C136.26 37.4801 135.86 38.1901 135.67 39.0801H142.51H142.52Z" stroke="#5F6368" stroke-width="0.25" stroke-miterlimit="10"/>
</g>
<defs>
<filter id="filter0_d_2357_43" x="0" y="0" width="349" height="77" filterUnits="userSpaceOnUse" color-interpolation-filters="sRGB">
<feFlood flood-opacity="0" result="BackgroundImageFix"/>
<feColorMatrix in="SourceAlpha" type="matrix" values="0 0 0 0 0 0 0 0 0 0 0 0 0 0 0 0 0 0 127 0" result="hardAlpha"/>
<feOffset/>
<feGaussianBlur stdDeviation="6"/>
<feComposite in2="hardAlpha" operator="out"/>
<feColorMatrix type="matrix" values="0 0 0 0 0.854167 0 0 0 0 0.854167 0 0 0 0 0.854167 0 0 0 0.25 0"/>
<feBlend mode="normal" in2="BackgroundImageFix" result="effect1_dropShadow_2357_43"/>
<feBlend mode="normal" in="SourceGraphic" in2="effect1_dropShadow_2357_43" result="shape"/>
</filter>
<clipPath id="clip0_2357_43">
<rect width="72.65" height="20.69" fill="white" transform="translate(72 30)"/>
</clipPath>
</defs>
</svg>
