<svg width="68" height="69" viewBox="0 0 68 69" fill="none" xmlns="http://www.w3.org/2000/svg">
<g clip-path="url(#clip0_2381_42)">
<path d="M34 69C52.7777 69 68 53.5538 68 34.5C68 15.4462 52.7777 0 34 0C15.2223 0 0 15.4462 0 34.5C0 53.5538 15.2223 69 34 69Z" fill="#9DC6FB"/>
<path d="M53.7203 47.6104H15.6403C15.4616 47.6102 15.2848 47.6459 15.1197 47.7152C14.9547 47.7845 14.8047 47.8861 14.6784 48.0143C14.5521 48.1425 14.4519 48.2946 14.3836 48.4621C14.3153 48.6296 14.2802 48.8091 14.2803 48.9904V54.5104C14.2802 54.6916 14.3153 54.8711 14.3836 55.0386C14.4519 55.2061 14.5521 55.3582 14.6784 55.4864C14.8047 55.6146 14.9547 55.7162 15.1197 55.7855C15.2848 55.8548 15.4616 55.8905 15.6403 55.8904H53.7203C53.8989 55.8905 54.0758 55.8548 54.2408 55.7855C54.4059 55.7162 54.5559 55.6146 54.6822 55.4864C54.8085 55.3582 54.9086 55.2061 54.977 55.0386C55.0453 54.8711 55.0804 54.6916 55.0803 54.5104V48.9904C55.0804 48.8091 55.0453 48.6296 54.977 48.4621C54.9086 48.2946 54.8085 48.1425 54.6822 48.0143C54.5559 47.8861 54.4059 47.7845 54.2408 47.7152C54.0758 47.6459 53.8989 47.6102 53.7203 47.6104ZM52.3603 53.1304H17.0003V50.3704H52.3603V53.1304Z" fill="#80B4FB"/>
<path d="M51.0003 14.4903C50.2179 14.4861 49.451 14.7115 48.7919 15.1394C48.1329 15.5672 47.6097 16.1791 47.2854 16.9016C46.9611 17.6241 46.8495 18.4263 46.964 19.2116C47.0786 19.997 47.4144 20.732 47.931 21.3282L40.828 33.8831C39.9937 33.7165 39.1286 33.8374 38.3698 34.2267C38.3664 34.2227 38.3655 34.2179 38.362 34.2146L32.922 28.6946C32.9186 28.6911 32.9137 28.6906 32.9102 28.6865C33.1769 28.1333 33.3171 27.5261 33.3203 26.9103C33.3203 25.8123 32.8904 24.7593 32.1253 23.9829C31.3601 23.2065 30.3224 22.7703 29.2403 22.7703C28.1582 22.7703 27.1204 23.2065 26.3553 23.9829C25.5901 24.7593 25.1603 25.8123 25.1603 26.9103C25.1635 27.5261 25.3038 28.1333 25.5705 28.6865C25.5671 28.6906 25.5622 28.6912 25.5587 28.6946L20.1187 34.2146C20.1153 34.218 20.1144 34.2227 20.1109 34.2267C19.5657 33.9558 18.9673 33.8135 18.3603 33.8103C17.5533 33.8103 16.7645 34.0531 16.0935 34.508C15.4226 34.9629 14.8997 35.6095 14.5908 36.366C14.282 37.1225 14.2012 37.9549 14.3587 38.758C14.5161 39.561 14.9047 40.2987 15.4753 40.8777C16.0459 41.4567 16.7729 41.851 17.5643 42.0107C18.3558 42.1705 19.1761 42.0885 19.9216 41.7752C20.6671 41.4618 21.3044 40.9312 21.7527 40.2503C22.201 39.5695 22.4403 38.7691 22.4403 37.9503C22.437 37.3344 22.2968 36.7273 22.0301 36.1741C22.0335 36.17 22.0384 36.1694 22.0418 36.166L27.4818 30.646C27.4852 30.6425 27.4861 30.6379 27.4896 30.6339C28.0337 30.9078 28.6329 31.0503 29.2403 31.0503C29.8477 31.0503 30.4468 30.9078 30.9909 30.6339C30.9943 30.6379 30.9952 30.6426 30.9987 30.646L36.4387 36.166C36.4421 36.1694 36.447 36.17 36.4505 36.1741C36.1838 36.7273 36.0435 37.3344 36.0403 37.9503C36.0355 38.6208 36.1914 39.2824 36.4944 39.8782C36.7974 40.4741 37.2384 40.9864 37.7797 41.371C38.3209 41.7556 38.9462 42.0011 39.6016 42.0863C40.257 42.1716 40.923 42.094 41.5423 41.8603C42.1617 41.6265 42.7158 41.2437 43.1571 40.7446C43.5984 40.2455 43.9136 39.6452 44.0756 38.9951C44.2376 38.3451 44.2417 37.6649 44.0873 37.0129C43.933 36.361 43.6249 35.7568 43.1896 35.2524L50.2926 22.6976C50.5259 22.7431 50.7627 22.7674 51.0003 22.7703C52.0824 22.7703 53.1201 22.3341 53.8853 21.5577C54.6504 20.7813 55.0803 19.7283 55.0803 18.6303C55.0803 17.5323 54.6504 16.4793 53.8853 15.7029C53.1201 14.9265 52.0824 14.4903 51.0003 14.4903ZM18.3603 39.3303C18.0913 39.3303 17.8284 39.2494 17.6047 39.0977C17.381 38.9461 17.2067 38.7306 17.1038 38.4784C17.0009 38.2262 16.9739 37.9488 17.0264 37.6811C17.0789 37.4134 17.2084 37.1675 17.3986 36.9745C17.5888 36.7815 17.8311 36.6501 18.095 36.5968C18.3588 36.5436 18.6322 36.5709 18.8807 36.6753C19.1292 36.7798 19.3416 36.9567 19.4911 37.1836C19.6405 37.4105 19.7203 37.6774 19.7203 37.9503C19.7198 38.3161 19.5764 38.6669 19.3214 38.9256C19.0665 39.1843 18.7208 39.3298 18.3603 39.3303ZM29.2403 28.2903C28.9713 28.2903 28.7084 28.2094 28.4847 28.0577C28.261 27.9061 28.0867 27.6906 27.9838 27.4384C27.8809 27.1862 27.8539 26.9088 27.9064 26.6411C27.9589 26.3734 28.0884 26.1275 28.2786 25.9345C28.4688 25.7415 28.7111 25.6101 28.975 25.5568C29.2388 25.5036 29.5122 25.5309 29.7607 25.6353C30.0092 25.7398 30.2216 25.9167 30.3711 26.1436C30.5205 26.3705 30.6003 26.6374 30.6003 26.9103C30.5998 27.2761 30.4564 27.6269 30.2014 27.8856C29.9465 28.1443 29.6008 28.2898 29.2403 28.2903ZM40.1203 39.3303C39.8513 39.3303 39.5884 39.2494 39.3647 39.0977C39.1411 38.9461 38.9667 38.7306 38.8638 38.4784C38.7609 38.2262 38.7339 37.9488 38.7864 37.6811C38.8389 37.4134 38.9684 37.1675 39.1586 36.9745C39.3488 36.7815 39.5911 36.6501 39.855 36.5968C40.1188 36.5436 40.3922 36.5709 40.6407 36.6753C40.8892 36.7798 41.1016 36.9567 41.2511 37.1836C41.4005 37.4105 41.4803 37.6774 41.4803 37.9503C41.4798 38.3161 41.3364 38.6669 41.0814 38.9256C40.8265 39.1843 40.4808 39.3298 40.1203 39.3303ZM51.0003 20.0103C50.7313 20.0103 50.4684 19.9294 50.2447 19.7777C50.0211 19.6261 49.8467 19.4106 49.7438 19.1584C49.6409 18.9062 49.6139 18.6288 49.6664 18.3611C49.7189 18.0934 49.8484 17.8475 50.0386 17.6545C50.2288 17.4615 50.4711 17.3301 50.735 17.2768C50.9988 17.2236 51.2722 17.2509 51.5207 17.3553C51.7692 17.4598 51.9816 17.6367 52.1311 17.8636C52.2805 18.0905 52.3603 18.3574 52.3603 18.6303C52.3598 18.9961 52.2164 19.3469 51.9614 19.6056C51.7065 19.8643 51.3608 20.0098 51.0003 20.0103Z" fill="#80B4FB"/>
<path d="M52.3599 46.2305H14.2799C14.1013 46.2304 13.9244 46.266 13.7594 46.3353C13.5943 46.4046 13.4443 46.5063 13.318 46.6344C13.1917 46.7626 13.0915 46.9148 13.0232 47.0822C12.9549 47.2497 12.9198 47.4292 12.9199 47.6105V53.1305C12.9198 53.3117 12.9549 53.4912 13.0232 53.6587C13.0915 53.8262 13.1917 53.9783 13.318 54.1065C13.4443 54.2347 13.5943 54.3363 13.7594 54.4056C13.9244 54.475 14.1013 54.5106 14.2799 54.5105H52.3599C52.5385 54.5106 52.7154 54.475 52.8805 54.4056C53.0455 54.3363 53.1955 54.2347 53.3218 54.1065C53.4481 53.9783 53.5483 53.8262 53.6166 53.6587C53.6849 53.4912 53.72 53.3117 53.7199 53.1305V47.6105C53.72 47.4292 53.6849 47.2497 53.6166 47.0822C53.5483 46.9148 53.4481 46.7626 53.3218 46.6344C53.1955 46.5063 53.0455 46.4046 52.8805 46.3353C52.7154 46.266 52.5385 46.2304 52.3599 46.2305ZM50.9999 51.7505H15.6399V48.9905H50.9999V51.7505Z" fill="white"/>
<path d="M49.6399 13.1104C48.8575 13.1063 48.0907 13.3317 47.4316 13.7595C46.7725 14.1873 46.2493 14.7993 45.925 15.5217C45.6007 16.2442 45.4892 17.0464 45.6037 17.8318C45.7182 18.6171 46.054 19.3521 46.5706 19.9483L39.4676 32.5032C38.6334 32.3366 37.7682 32.4575 37.0094 32.8468C37.006 32.8428 37.0051 32.8381 37.0016 32.8347L31.5616 27.3147C31.5582 27.3113 31.5533 27.3107 31.5499 27.3066C31.8165 26.7534 31.9567 26.1462 31.9599 25.5304C31.9599 24.4324 31.5301 23.3794 30.7649 22.603C29.9998 21.8266 28.962 21.3904 27.8799 21.3904C26.7978 21.3904 25.7601 21.8266 24.9949 22.603C24.2298 23.3794 23.7999 24.4324 23.7999 25.5304C23.8032 26.1463 23.9434 26.7534 24.2101 27.3066C24.2067 27.3107 24.2018 27.3113 24.1984 27.3147L18.7584 32.8347C18.755 32.8382 18.7541 32.8428 18.7505 32.8468C18.2054 32.5759 17.6069 32.4336 16.9999 32.4304C16.193 32.4304 15.4042 32.6732 14.7332 33.1281C14.0622 33.583 13.5393 34.2296 13.2305 34.9861C12.9217 35.7426 12.8409 36.575 12.9983 37.3781C13.1557 38.1812 13.5443 38.9188 14.1149 39.4978C14.6855 40.0768 15.4125 40.4711 16.204 40.6309C16.9954 40.7906 17.8157 40.7086 18.5613 40.3953C19.3068 40.0819 19.944 39.5513 20.3923 38.8705C20.8406 38.1896 21.0799 37.3892 21.0799 36.5704C21.0767 35.9546 20.9364 35.3474 20.6697 34.7942C20.6731 34.7901 20.678 34.7895 20.6815 34.7861L26.1215 29.2661C26.1249 29.2627 26.1258 29.258 26.1293 29.254C26.6734 29.5279 27.2725 29.6704 27.8799 29.6704C28.4873 29.6704 29.0865 29.5279 29.6306 29.254C29.634 29.258 29.6349 29.2628 29.6384 29.2661L35.0784 34.7861C35.0818 34.7896 35.0867 34.7901 35.0901 34.7942C34.8234 35.3474 34.6832 35.9546 34.6799 36.5704C34.6752 37.2409 34.831 37.9025 35.134 38.4984C35.437 39.0942 35.8781 39.6065 36.4193 39.9911C36.9606 40.3757 37.5858 40.6212 38.2412 40.7064C38.8966 40.7917 39.5627 40.7141 40.182 40.4804C40.8013 40.2467 41.3555 39.8638 41.7967 39.3647C42.238 38.8656 42.5532 38.2653 42.7152 37.6152C42.8773 36.9652 42.8813 36.285 42.727 35.633C42.5726 34.9811 42.2645 34.3769 41.8292 33.8725L48.9322 21.3177C49.1655 21.3632 49.4024 21.3875 49.6399 21.3904C50.722 21.3904 51.7598 20.9542 52.5249 20.1778C53.2901 19.4014 53.7199 18.3484 53.7199 17.2504C53.7199 16.1524 53.2901 15.0994 52.5249 14.323C51.7598 13.5466 50.722 13.1104 49.6399 13.1104ZM16.9999 37.9504C16.7309 37.9504 16.468 37.8695 16.2443 37.7178C16.0207 37.5662 15.8464 37.3507 15.7434 37.0985C15.6405 36.8463 15.6136 36.5689 15.6661 36.3012C15.7185 36.0335 15.8481 35.7876 16.0383 35.5946C16.2285 35.4016 16.4708 35.2702 16.7346 35.2169C16.9984 35.1637 17.2719 35.191 17.5204 35.2955C17.7689 35.3999 17.9813 35.5768 18.1307 35.8037C18.2802 36.0307 18.3599 36.2975 18.3599 36.5704C18.3595 36.9363 18.216 37.287 17.9611 37.5457C17.7061 37.8044 17.3605 37.9499 16.9999 37.9504ZM27.8799 26.9104C27.6109 26.9104 27.348 26.8295 27.1243 26.6778C26.9007 26.5262 26.7264 26.3107 26.6234 26.0585C26.5205 25.8063 26.4936 25.5289 26.5461 25.2612C26.5985 24.9935 26.7281 24.7476 26.9183 24.5546C27.1085 24.3616 27.3508 24.2302 27.6146 24.1769C27.8784 24.1237 28.1519 24.151 28.4004 24.2555C28.6489 24.3599 28.8613 24.5368 29.0107 24.7637C29.1602 24.9907 29.2399 25.2575 29.2399 25.5304C29.2395 25.8963 29.096 26.247 28.8411 26.5057C28.5861 26.7644 28.2405 26.9099 27.8799 26.9104ZM38.7599 37.9504C38.4909 37.9504 38.228 37.8695 38.0043 37.7178C37.7807 37.5662 37.6064 37.3507 37.5034 37.0985C37.4005 36.8463 37.3736 36.5689 37.4261 36.3012C37.4785 36.0335 37.6081 35.7876 37.7983 35.5946C37.9885 35.4016 38.2308 35.2702 38.4946 35.2169C38.7584 35.1637 39.0319 35.191 39.2804 35.2955C39.5289 35.3999 39.7413 35.5768 39.8907 35.8037C40.0402 36.0307 40.1199 36.2975 40.1199 36.5704C40.1195 36.9363 39.976 37.287 39.7211 37.5457C39.4661 37.8044 39.1205 37.9499 38.7599 37.9504ZM49.6399 18.6304C49.3709 18.6304 49.108 18.5495 48.8843 18.3978C48.6607 18.2462 48.4864 18.0307 48.3834 17.7785C48.2805 17.5263 48.2536 17.2489 48.3061 16.9812C48.3585 16.7135 48.4881 16.4676 48.6783 16.2746C48.8685 16.0816 49.1108 15.9502 49.3746 15.8969C49.6384 15.8437 49.9119 15.871 50.1604 15.9755C50.4089 16.0799 50.6213 16.2568 50.7707 16.4837C50.9202 16.7107 50.9999 16.9775 50.9999 17.2504C50.9995 17.6163 50.856 17.967 50.6011 18.2257C50.3461 18.4844 50.0005 18.6299 49.6399 18.6304Z" fill="white"/>
</g>
<defs>
<clipPath id="clip0_2381_42">
<rect width="68" height="69" fill="white"/>
</clipPath>
</defs>
</svg>
