<svg width="99" height="99" viewBox="0 0 99 99" fill="none" xmlns="http://www.w3.org/2000/svg">
<circle cx="49.5" cy="49.5" r="49.5" fill="#F9F9F9"/>
<path fill-rule="evenodd" clip-rule="evenodd" d="M49 30.3125C38.6792 30.3125 30.3125 38.6792 30.3125 49C30.3125 52.9232 31.5215 56.5641 33.5871 59.5704C33.6022 59.5748 33.6172 59.5794 33.6323 59.5842C42.4123 62.439 51.7754 58.4433 55.9369 50.543L54.5336 51.0659C53.7896 51.3431 52.9618 50.9648 52.6846 50.2208C52.4074 49.4769 52.7858 48.6491 53.5297 48.3719L58.0475 46.6884C58.415 46.5515 58.8224 46.5706 59.1755 46.7414C59.5285 46.9122 59.7964 47.2198 59.9171 47.5929L61.5085 52.5107C61.7529 53.2661 61.3386 54.0765 60.5833 54.321C59.828 54.5654 59.0175 54.1512 58.7731 53.3958L58.3581 52.1133C54.1626 59.8516 45.6103 64.2682 36.8875 63.2311C40.1495 66.0102 44.3789 67.6875 49 67.6875C59.3208 67.6875 67.6875 59.3208 67.6875 49C67.6875 38.6792 59.3208 30.3125 49 30.3125ZM27.4375 49C27.4375 37.0914 37.0914 27.4375 49 27.4375C60.9086 27.4375 70.5625 37.0914 70.5625 49C70.5625 60.9086 60.9086 70.5625 49 70.5625C37.0914 70.5625 27.4375 60.9086 27.4375 49Z" fill="#0C9FFA"/>
</svg>
