<svg width="99" height="99" viewBox="0 0 99 99" fill="none" xmlns="http://www.w3.org/2000/svg">
<circle cx="49.5" cy="49.5" r="49.5" fill="#F9F9F9"/>
<path fill-rule="evenodd" clip-rule="evenodd" d="M59.7812 27.4688H39.2188C36.1025 27.4688 33.1138 28.7067 30.9102 30.9102C28.7067 33.1138 27.4688 36.1025 27.4688 39.2188V59.7812C27.4688 62.8975 28.7067 65.8862 30.9102 68.0898C33.1138 70.2933 36.1025 71.5312 39.2188 71.5312H59.7812C60.1708 71.5312 60.5444 71.3765 60.8198 71.1011C61.0953 70.8256 61.25 70.452 61.25 70.0625C61.25 69.673 61.0953 69.2994 60.8198 69.0239C60.5444 68.7485 60.1708 68.5938 59.7812 68.5938H39.2188C36.8815 68.5938 34.64 67.6653 32.9874 66.0126C31.3347 64.36 30.4062 62.1185 30.4062 59.7812V39.2188C30.4062 36.8815 31.3347 34.64 32.9874 32.9874C34.64 31.3347 36.8815 30.4062 39.2188 30.4062H59.7812C62.1185 30.4062 64.36 31.3347 66.0126 32.9874C67.6653 34.64 68.5938 36.8815 68.5938 39.2188V59.7812C68.5938 60.1708 68.7485 60.5444 69.0239 60.8198C69.2994 61.0953 69.673 61.25 70.0625 61.25C70.452 61.25 70.8256 61.0953 71.1011 60.8198C71.3765 60.5444 71.5312 60.1708 71.5312 59.7812V39.2188C71.5312 36.1025 70.2933 33.1138 68.0898 30.9102C65.8862 28.7067 62.8975 27.4688 59.7812 27.4688Z" fill="#0C9FFA"/>
<path fill-rule="evenodd" clip-rule="evenodd" d="M58.2878 56.2095C60.4433 53.5226 61.4872 50.1119 61.2051 46.6788C60.923 43.2457 59.3362 40.0512 56.771 37.7522C54.2058 35.4532 50.8572 34.2244 47.4138 34.3185C43.9705 34.4127 40.694 35.8226 38.2583 38.2583C35.8226 40.694 34.4127 43.9705 34.3185 47.4138C34.2244 50.8572 35.4532 54.2058 37.7522 56.771C40.0512 59.3362 43.2457 60.923 46.6788 61.2051C50.1119 61.4872 53.5226 60.4433 56.2095 58.2878L69.0244 71.1012C69.1599 71.2415 69.3219 71.3534 69.5011 71.4303C69.6803 71.5073 69.8731 71.5478 70.0681 71.5495C70.2631 71.5512 70.4565 71.5141 70.637 71.4402C70.8175 71.3664 70.9815 71.2573 71.1194 71.1194C71.2573 70.9815 71.3664 70.8175 71.4402 70.637C71.5141 70.4565 71.5512 70.2631 71.5495 70.0681C71.5478 69.8731 71.5073 69.6803 71.4303 69.5011C71.3534 69.3219 71.2415 69.1599 71.1012 69.0244L58.2878 56.2095ZM47.7863 58.3128C45.7043 58.3128 43.6691 57.6954 41.938 56.5388C40.207 55.3821 38.8577 53.7381 38.061 51.8146C37.2643 49.8911 37.0558 47.7746 37.462 45.7326C37.8682 43.6907 38.8707 41.815 40.3429 40.3429C41.815 38.8707 43.6907 37.8682 45.7326 37.462C47.7746 37.0558 49.8911 37.2643 51.8146 38.061C53.7381 38.8577 55.3821 40.207 56.5388 41.938C57.6954 43.6691 58.3128 45.7043 58.3128 47.7863C58.3116 50.5777 57.2022 53.2545 55.2284 55.2284C53.2545 57.2022 50.5777 58.3116 47.7863 58.3128Z" fill="#0C9FFA"/>
</svg>
