<svg width="99" height="99" viewBox="0 0 99 99" fill="none" xmlns="http://www.w3.org/2000/svg">
<circle cx="49.5" cy="49.5" r="49.5" fill="#F9F9F9"/>
<path d="M49.4998 38.7627C47.3762 38.7627 45.3003 39.3924 43.5346 40.5722C41.7689 41.752 40.3927 43.4289 39.58 45.3909C38.7673 47.3529 38.5547 49.5117 38.969 51.5945C39.3833 53.6773 40.4059 55.5905 41.9075 57.0921C43.4091 58.5937 45.3223 59.6163 47.4051 60.0306C49.4879 60.4449 51.6468 60.2323 53.6087 59.4196C55.5707 58.607 57.2476 57.2308 58.4274 55.465C59.6072 53.6993 60.2369 51.6234 60.2369 49.4998C60.2357 46.6525 59.1041 43.9222 57.0908 41.9089C55.0774 39.8955 52.3471 38.7639 49.4998 38.7627ZM49.4998 57.1744C47.9819 57.1744 46.4981 56.7243 45.236 55.881C43.9739 55.0377 42.9903 53.8391 42.4094 52.4368C41.8285 51.0344 41.6765 49.4913 41.9727 48.0026C42.2688 46.5138 42.9997 45.1464 44.073 44.073C45.1464 42.9997 46.5138 42.2688 48.0026 41.9727C49.4913 41.6765 51.0344 41.8285 52.4368 42.4094C53.8391 42.9903 55.0377 43.9739 55.881 45.236C56.7243 46.4981 57.1744 47.9819 57.1744 49.4998C57.1732 51.5349 56.3643 53.4862 54.9253 54.9253C53.4863 56.3643 51.5349 57.1732 49.4998 57.1744Z" fill="#0C9FFA"/>
<path d="M72.2556 46.3759C72.213 46.0652 72.076 45.7751 71.8633 45.5448C71.6505 45.3145 71.3721 45.1551 71.0658 45.0881L67.5286 44.3133C67.1392 42.9576 66.5978 41.6503 65.9147 40.4162L67.8747 37.369C68.0437 37.105 68.1276 36.7954 68.115 36.4821C68.1024 36.1688 67.9939 35.867 67.8042 35.6173C66.5384 33.9505 65.0505 32.4647 63.382 31.2012C63.133 31.0106 62.8315 30.901 62.5182 30.8873C62.2049 30.8736 61.8949 30.9565 61.6302 31.1246L58.5815 33.0846C57.3473 32.402 56.04 31.8606 54.6845 31.4707L53.9097 27.9335C53.8427 27.6272 53.6832 27.3488 53.4529 27.136C53.2226 26.9233 52.9325 26.7863 52.6219 26.7437C50.5501 26.4604 48.4493 26.4604 46.3775 26.7437C46.0668 26.7863 45.7767 26.9233 45.5464 27.136C45.3161 27.3488 45.1567 27.6272 45.0897 27.9335L44.3149 31.4707C42.9589 31.8607 41.6512 32.4021 40.4163 33.0846L37.3691 31.1246C37.1052 30.9554 36.7957 30.8712 36.4824 30.8836C36.1691 30.8959 35.8672 31.0041 35.6174 31.1935C33.9505 32.4598 32.4647 33.9482 31.2012 35.6173C31.0107 35.8663 30.9011 36.1678 30.8874 36.4811C30.8737 36.7944 30.9565 37.1044 31.1247 37.369L33.0847 40.4178C32.4014 41.6517 31.86 42.9591 31.4707 44.3148L27.9336 45.0881C27.6273 45.1551 27.3489 45.3145 27.1361 45.5448C26.9233 45.7751 26.7864 46.0652 26.7438 46.3759C26.4604 48.4482 26.4604 50.5495 26.7438 52.6218C26.7864 52.9325 26.9233 53.2225 27.1361 53.4529C27.3489 53.6832 27.6273 53.8426 27.9336 53.9096L31.4707 54.6844C31.86 56.0406 32.4014 57.3485 33.0847 58.583L31.1247 61.6302C30.9557 61.8943 30.8718 62.2038 30.8844 62.5171C30.897 62.8304 31.0055 63.1323 31.1951 63.3819C32.461 65.0487 33.9489 66.5345 35.6174 67.798C35.8664 67.9886 36.1679 68.0982 36.4812 68.1119C36.7945 68.1256 37.1044 68.0428 37.3691 67.8746L40.4178 65.9207C41.6521 66.6034 42.9594 67.1448 44.3149 67.5347L45.0897 71.0703C45.1567 71.3766 45.3161 71.655 45.5464 71.8678C45.7767 72.0806 46.0668 72.2175 46.3775 72.2601C48.4492 72.5444 50.5501 72.5444 52.6219 72.2601C52.9325 72.2175 53.2226 72.0806 53.4529 71.8678C53.6832 71.655 53.8427 71.3766 53.9097 71.0703L54.6845 67.5331C56.0405 67.1431 57.3482 66.6018 58.5831 65.9192L61.6302 67.8746C61.8942 68.0438 62.2037 68.128 62.517 68.1157C62.8302 68.1033 63.1322 67.9951 63.382 67.8057C65.0483 66.5417 66.5341 65.0559 67.7981 63.3896C67.9904 63.1398 68.1009 62.8369 68.1146 62.522C68.1283 62.2071 68.0445 61.8957 67.8747 61.6302L65.9147 58.5815C66.5979 57.3475 67.1393 56.0401 67.5286 54.6844L71.0658 53.9111C71.3721 53.8441 71.6505 53.6847 71.8633 53.4544C72.076 53.2241 72.213 52.934 72.2556 52.6234C72.539 50.5505 72.539 48.4487 72.2556 46.3759ZM69.337 51.1534L65.956 51.8945C65.6732 51.9565 65.4137 52.0975 65.2077 52.301C65.0017 52.5046 64.8577 52.7623 64.7923 53.0445C64.4013 54.7295 63.7349 56.3385 62.82 57.8066C62.6665 58.0524 62.5859 58.3367 62.5875 58.6264C62.5892 58.9162 62.673 59.1995 62.8292 59.4435L64.6958 62.3529C63.9844 63.1973 63.2038 63.981 62.3622 64.6957L59.4528 62.8291C59.2088 62.6729 58.9254 62.5891 58.6357 62.5875C58.3459 62.5858 58.0617 62.6665 57.8159 62.82C56.3479 63.735 54.7389 64.4014 53.0537 64.7922C52.7716 64.8576 52.5138 65.0016 52.3103 65.2076C52.1067 65.4136 51.9658 65.6731 51.9037 65.956L51.1626 69.337C50.062 69.4288 48.9557 69.4288 47.8551 69.337L47.114 65.956C47.052 65.6731 46.911 65.4136 46.7075 65.2076C46.5039 65.0016 46.2461 64.8576 45.964 64.7922C44.2789 64.4014 42.6698 63.735 41.2018 62.82C40.9561 62.6665 40.6718 62.5858 40.3821 62.5875C40.0923 62.5891 39.809 62.6729 39.5649 62.8291L36.6372 64.6957C35.7959 63.9839 35.0154 63.2034 34.3036 62.3621L36.1702 59.4527C36.328 59.2076 36.4126 58.9224 36.414 58.6308C36.4153 58.3392 36.3334 58.0533 36.1778 57.8066C35.2629 56.3385 34.5965 54.7295 34.2056 53.0445C34.1402 52.7623 33.9961 52.5046 33.7901 52.301C33.5842 52.0975 33.3247 51.9565 33.0418 51.8945L29.6623 51.1534C29.5705 50.0528 29.5705 48.9464 29.6623 47.8459L33.0433 47.1047C33.3262 47.0427 33.5857 46.9017 33.7917 46.6982C33.9977 46.4947 34.1417 46.2369 34.2071 45.9548C34.5976 44.2698 35.2635 42.6608 36.1778 41.1926C36.3313 40.9468 36.4119 40.6625 36.4103 40.3728C36.4087 40.083 36.3249 39.7997 36.1686 39.5557L34.3036 36.6371C35.0154 35.7959 35.7959 35.0153 36.6372 34.3035L39.5466 36.1701C39.7906 36.3263 40.0739 36.4101 40.3637 36.4118C40.6534 36.4134 40.9377 36.3328 41.1835 36.1793C42.6515 35.2642 44.2605 34.5978 45.9457 34.207C46.2278 34.1416 46.4855 33.9976 46.6891 33.7916C46.8926 33.5856 47.0336 33.3261 47.0956 33.0433L47.8367 29.6623C48.9373 29.5704 50.0437 29.5704 51.1442 29.6623L51.8854 33.0433C51.9474 33.3261 52.0884 33.5856 52.2919 33.7916C52.4954 33.9976 52.7532 34.1416 53.0353 34.207C54.7236 34.5964 56.3358 35.2623 57.8067 36.1777C58.0525 36.3312 58.3367 36.4119 58.6265 36.4102C58.9163 36.4086 59.1996 36.3248 59.4436 36.1685L62.353 34.302C63.1975 35.0139 63.9811 35.7949 64.6958 36.6371L62.8292 39.5465C62.673 39.7905 62.5892 40.0739 62.5875 40.3636C62.5859 40.6534 62.6665 40.9376 62.82 41.1834C63.7349 42.6515 64.4013 44.2605 64.7923 45.9456C64.8577 46.2277 65.0017 46.4855 65.2077 46.689C65.4137 46.8926 65.6732 47.0335 65.956 47.0955L69.337 47.8367C69.4294 48.9403 69.4294 50.0497 69.337 51.1534Z" fill="#0C9FFA"/>
</svg>
