<svg width="99" height="99" viewBox="0 0 99 99" fill="none" xmlns="http://www.w3.org/2000/svg">
<circle cx="49.5" cy="49.5" r="49.5" fill="#F9F9F9"/>
<path fill-rule="evenodd" clip-rule="evenodd" d="M59.5 26.5H38.5C35.3174 26.5 32.2652 27.7643 30.0147 30.0147C27.7643 32.2652 26.5 35.3174 26.5 38.5V59.5C26.5 62.6826 27.7643 65.7348 30.0147 67.9853C32.2652 70.2357 35.3174 71.5 38.5 71.5H59.5C62.6826 71.5 65.7348 70.2357 67.9853 67.9853C70.2357 65.7348 71.5 62.6826 71.5 59.5V38.5C71.5 35.3174 70.2357 32.2652 67.9853 30.0147C65.7348 27.7643 62.6826 26.5 59.5 26.5ZM68.5 59.5C68.5 61.8869 67.5518 64.1761 65.864 65.864C64.1761 67.5518 61.8869 68.5 59.5 68.5H38.5C36.1131 68.5 33.8239 67.5518 32.136 65.864C30.4482 64.1761 29.5 61.8869 29.5 59.5V38.5C29.5 36.1131 30.4482 33.8239 32.136 32.136C33.8239 30.4482 36.1131 29.5 38.5 29.5H59.5C61.8869 29.5 64.1761 30.4482 65.864 32.136C67.5518 33.8239 68.5 36.1131 68.5 38.5V59.5Z" fill="#0C9FFA"/>
<path fill-rule="evenodd" clip-rule="evenodd" d="M35.0604 54.5606L39.9999 49.6211L44.9394 54.5606C45.1075 54.7282 45.313 54.8535 45.5389 54.9262C45.7648 54.9989 46.0048 55.017 46.2391 54.9789C46.4734 54.9409 46.6953 54.8477 46.8865 54.7072C47.0778 54.5667 47.233 54.3828 47.3394 54.1706L51.9999 44.8541L56.6589 54.1706C56.7884 54.4288 56.9897 54.6442 57.2387 54.7908C57.4876 54.9373 57.7736 55.0089 58.0623 54.9969C58.3509 54.9848 58.6299 54.8897 58.8658 54.7229C59.1017 54.5561 59.2844 54.3247 59.3919 54.0566L65.3919 39.0566C65.5238 38.6907 65.5085 38.2879 65.3491 37.9332C65.1897 37.5784 64.8988 37.2994 64.5377 37.155C64.1765 37.0107 63.7734 37.0122 63.4134 37.1593C63.0534 37.3064 62.7646 37.5876 62.6079 37.9436L57.8499 49.8416L53.3499 40.8296C53.2252 40.5808 53.0337 40.3716 52.7969 40.2254C52.5601 40.0791 52.2872 40.0017 52.0089 40.0017C51.7306 40.0017 51.4578 40.0791 51.2209 40.2254C50.9841 40.3716 50.7926 40.5808 50.6679 40.8296L45.5979 50.9681L41.0694 46.4396C40.7881 46.1584 40.4067 46.0004 40.0089 46.0004C39.6112 46.0004 39.2297 46.1584 38.9484 46.4396L32.9484 52.4396C32.6752 52.7225 32.524 53.1014 32.5274 53.4947C32.5308 53.888 32.6886 54.2642 32.9667 54.5423C33.2448 54.8204 33.621 54.9782 34.0143 54.9816C34.4076 54.985 34.7865 54.8338 35.0694 54.5606H35.0604Z" fill="#0C9FFA"/>
<path fill-rule="evenodd" clip-rule="evenodd" d="M64 58H34C33.6022 58 33.2206 58.158 32.9393 58.4393C32.658 58.7206 32.5 59.1022 32.5 59.5C32.5 59.8978 32.658 60.2794 32.9393 60.5607C33.2206 60.842 33.6022 61 34 61H64C64.3978 61 64.7794 60.842 65.0607 60.5607C65.342 60.2794 65.5 59.8978 65.5 59.5C65.5 59.1022 65.342 58.7206 65.0607 58.4393C64.7794 58.158 64.3978 58 64 58Z" fill="#0C9FFA"/>
</svg>
