<svg width="99" height="99" viewBox="0 0 99 99" fill="none" xmlns="http://www.w3.org/2000/svg">
<circle cx="49.5" cy="49.5" r="49.5" fill="#F9F9F9"/>
<path d="M45.9335 31.0215C47.0561 27.5666 51.9439 27.5666 53.0665 31.0215L54.7098 36.0793C55.5465 38.6544 57.9463 40.3979 60.6539 40.3979H65.972C69.6047 40.3979 71.1151 45.0465 68.1762 47.1817L63.8738 50.3076C61.6832 51.8991 60.7666 54.7202 61.6033 57.2953L63.2467 62.3531C64.3693 65.808 60.415 68.681 57.476 66.5457L53.1737 63.4198C50.9831 61.8283 48.0169 61.8283 45.8263 63.4198L41.524 66.5457C38.585 68.681 34.6307 65.808 35.7533 62.3531L37.3967 57.2953C38.2334 54.7202 37.3168 51.8991 35.1262 50.3076L30.8238 47.1817C27.8849 45.0465 29.3953 40.3979 33.028 40.3979H38.3461C41.0537 40.3979 43.4535 38.6544 44.2902 36.0793L45.9335 31.0215Z" stroke="#0C9FFA" stroke-width="2.5"/>
</svg>
