<svg width="69" height="69" viewBox="0 0 69 69" fill="none" xmlns="http://www.w3.org/2000/svg">
<g clip-path="url(#clip0_2381_44)">
<path d="M34.5 69C53.5538 69 69 53.5538 69 34.5C69 15.4462 53.5538 0 34.5 0C15.4462 0 0 15.4462 0 34.5C0 53.5538 15.4462 69 34.5 69Z" fill="#9DC6FB"/>
<path d="M54.5102 47.6104H15.8702C15.689 47.6102 15.5095 47.6459 15.342 47.7152C15.1745 47.7845 15.0224 47.8861 14.8942 48.0143C14.766 48.1425 14.6644 48.2946 14.5951 48.4621C14.5258 48.6296 14.4901 48.8091 14.4902 48.9904V54.5104C14.4901 54.6916 14.5258 54.8711 14.5951 55.0386C14.6644 55.2061 14.766 55.3582 14.8942 55.4864C15.0224 55.6146 15.1745 55.7162 15.342 55.7855C15.5095 55.8548 15.689 55.8905 15.8702 55.8904H54.5102C54.6915 55.8905 54.871 55.8548 55.0385 55.7855C55.2059 55.7162 55.3581 55.6146 55.4863 55.4864C55.6144 55.3582 55.7161 55.2061 55.7854 55.0386C55.8547 54.8711 55.8903 54.6916 55.8902 54.5104V48.9904C55.8903 48.8091 55.8547 48.6296 55.7854 48.4621C55.7161 48.2946 55.6144 48.1425 55.4863 48.0143C55.3581 47.8861 55.2059 47.7845 55.0385 47.7152C54.871 47.6459 54.6915 47.6102 54.5102 47.6104ZM53.1302 53.1304H17.2502V50.3704H53.1302V53.1304Z" fill="#80B4FB"/>
<path d="M15.8702 44.85H24.1502C24.3315 44.8501 24.511 44.8145 24.6785 44.7452C24.8459 44.6759 24.9981 44.5742 25.1263 44.4461C25.2544 44.3179 25.3561 44.1657 25.4254 43.9983C25.4947 43.8308 25.5303 43.6513 25.5302 43.47V29.67C25.5303 29.4888 25.4947 29.3093 25.4254 29.1418C25.3561 28.9743 25.2544 28.8222 25.1263 28.694C24.9981 28.5658 24.8459 28.4642 24.6785 28.3949C24.511 28.3256 24.3315 28.2899 24.1502 28.29H15.8702C15.689 28.2899 15.5095 28.3256 15.342 28.3949C15.1745 28.4642 15.0224 28.5658 14.8942 28.694C14.766 28.8222 14.6644 28.9743 14.5951 29.1418C14.5258 29.3093 14.4901 29.4888 14.4902 29.67V43.47C14.4901 43.6513 14.5258 43.8308 14.5951 43.9983C14.6644 44.1657 14.766 44.3179 14.8942 44.4461C15.0224 44.5742 15.1745 44.6759 15.342 44.7452C15.5095 44.8145 15.689 44.8501 15.8702 44.85ZM17.2502 31.05H22.7702V42.09H17.2502V31.05Z" fill="#80B4FB"/>
<path d="M39.3299 44.8498C39.5112 44.8499 39.6907 44.8142 39.8581 44.7449C40.0256 44.6756 40.1778 44.574 40.306 44.4458C40.4341 44.3176 40.5358 44.1655 40.6051 43.998C40.6744 43.8305 40.71 43.651 40.7099 43.4698V21.3898C40.71 21.2085 40.6744 21.029 40.6051 20.8615C40.5358 20.6941 40.4341 20.5419 40.306 20.4137C40.1778 20.2856 40.0256 20.1839 39.8581 20.1146C39.6907 20.0453 39.5112 20.0097 39.3299 20.0098H31.0499C30.8687 20.0097 30.6892 20.0453 30.5217 20.1146C30.3542 20.1839 30.202 20.2856 30.0739 20.4137C29.9457 20.5419 29.8441 20.6941 29.7748 20.8615C29.7054 21.029 29.6698 21.2085 29.6699 21.3898V43.4698C29.6698 43.651 29.7054 43.8305 29.7748 43.998C29.8441 44.1655 29.9457 44.3176 30.0739 44.4458C30.202 44.574 30.3542 44.6756 30.5217 44.7449C30.6892 44.8142 30.8687 44.8499 31.0499 44.8498H39.3299ZM32.4299 22.7698H37.9499V42.0898H32.4299V22.7698Z" fill="#80B4FB"/>
<path d="M54.5106 14.4902H46.2306C46.0493 14.4901 45.8698 14.5258 45.7024 14.5951C45.5349 14.6644 45.3827 14.766 45.2545 14.8942C45.1264 15.0224 45.0247 15.1745 44.9554 15.342C44.8861 15.5095 44.8505 15.689 44.8506 15.8702V43.4702C44.8505 43.6515 44.8861 43.831 44.9554 43.9985C45.0247 44.1659 45.1264 44.3181 45.2545 44.4463C45.3827 44.5744 45.5349 44.6761 45.7024 44.7454C45.8698 44.8147 46.0493 44.8503 46.2306 44.8502H54.5106C54.6918 44.8503 54.8713 44.8147 55.0388 44.7454C55.2063 44.6761 55.3585 44.5744 55.4866 44.4463C55.6148 44.3181 55.7164 44.1659 55.7858 43.9985C55.8551 43.831 55.8907 43.6515 55.8906 43.4702V15.8702C55.8907 15.689 55.8551 15.5095 55.7858 15.342C55.7164 15.1745 55.6148 15.0224 55.4866 14.8942C55.3585 14.766 55.2063 14.6644 55.0388 14.5951C54.8713 14.5258 54.6918 14.4901 54.5106 14.4902ZM53.1306 42.0902H47.6106V17.2502H53.1306V42.0902Z" fill="#80B4FB"/>
<path d="M53.1303 46.2305H14.4904C14.3091 46.2304 14.1296 46.266 13.9621 46.3353C13.7946 46.4046 13.6425 46.5063 13.5143 46.6344C13.3861 46.7626 13.2845 46.9148 13.2152 47.0822C13.1459 47.2497 13.1102 47.4292 13.1104 47.6105V53.1305C13.1102 53.3117 13.1459 53.4912 13.2152 53.6587C13.2845 53.8262 13.3861 53.9783 13.5143 54.1065C13.6425 54.2347 13.7946 54.3363 13.9621 54.4056C14.1296 54.475 14.3091 54.5106 14.4904 54.5105H53.1303C53.3116 54.5106 53.4911 54.475 53.6586 54.4056C53.8261 54.3363 53.9782 54.2347 54.1064 54.1065C54.2346 53.9783 54.3362 53.8262 54.4055 53.6587C54.4748 53.4912 54.5105 53.3117 54.5103 53.1305V47.6105C54.5105 47.4292 54.4748 47.2497 54.4055 47.0822C54.3362 46.9148 54.2346 46.7626 54.1064 46.6344C53.9782 46.5063 53.8261 46.4046 53.6586 46.3353C53.4911 46.266 53.3116 46.2304 53.1303 46.2305ZM51.7503 51.7505H15.8704V48.9905H51.7503V51.7505Z" fill="white"/>
<path d="M14.4904 43.4702H22.7704C22.9516 43.4703 23.1311 43.4346 23.2986 43.3653C23.4661 43.296 23.6182 43.1944 23.7464 43.0662C23.8746 42.938 23.9762 42.7859 24.0455 42.6184C24.1148 42.4509 24.1505 42.2714 24.1504 42.0902V28.2902C24.1505 28.1089 24.1148 27.9294 24.0455 27.7619C23.9762 27.5945 23.8746 27.4423 23.7464 27.3141C23.6182 27.186 23.4661 27.0843 23.2986 27.015C23.1311 26.9457 22.9516 26.9101 22.7704 26.9102H14.4904C14.3091 26.9101 14.1296 26.9457 13.9621 27.015C13.7946 27.0843 13.6425 27.186 13.5143 27.3141C13.3861 27.4423 13.2845 27.5945 13.2152 27.7619C13.1459 27.9294 13.1102 28.1089 13.1104 28.2902V42.0902C13.1102 42.2714 13.1459 42.4509 13.2152 42.6184C13.2845 42.7859 13.3861 42.938 13.5143 43.0662C13.6425 43.1944 13.7946 43.296 13.9621 43.3653C14.1296 43.4346 14.3091 43.4703 14.4904 43.4702ZM15.8704 29.6702H21.3904V40.7102H15.8704V29.6702Z" fill="white"/>
<path d="M37.95 43.4699C38.1313 43.47 38.3108 43.4344 38.4783 43.365C38.6457 43.2957 38.7979 43.1941 38.9261 43.0659C39.0542 42.9378 39.1559 42.7856 39.2252 42.6181C39.2945 42.4506 39.3301 42.2711 39.33 42.0899V20.0099C39.3301 19.8286 39.2945 19.6491 39.2252 19.4817C39.1559 19.3142 39.0542 19.162 38.9261 19.0338C38.7979 18.9057 38.6457 18.804 38.4783 18.7347C38.3108 18.6654 38.1313 18.6298 37.95 18.6299H29.67C29.4888 18.6298 29.3093 18.6654 29.1418 18.7347C28.9743 18.804 28.8222 18.9057 28.694 19.0338C28.5658 19.162 28.4642 19.3142 28.3949 19.4817C28.3256 19.6491 28.2899 19.8286 28.29 20.0099V42.0899C28.2899 42.2711 28.3256 42.4506 28.3949 42.6181C28.4642 42.7856 28.5658 42.9378 28.694 43.0659C28.8222 43.1941 28.9743 43.2957 29.1418 43.365C29.3093 43.4344 29.4888 43.47 29.67 43.4699H37.95ZM31.05 21.3899H36.57V40.7099H31.05V21.3899Z" fill="white"/>
<path d="M53.1307 13.1104H44.8507C44.6694 13.1102 44.49 13.1459 44.3225 13.2152C44.155 13.2845 44.0028 13.3861 43.8747 13.5143C43.7465 13.6425 43.6449 13.7946 43.5755 13.9621C43.5062 14.1296 43.4706 14.3091 43.4707 14.4904V42.0904C43.4706 42.2716 43.5062 42.4511 43.5755 42.6186C43.6449 42.7861 43.7465 42.9382 43.8747 43.0664C44.0028 43.1946 44.155 43.2962 44.3225 43.3655C44.49 43.4348 44.6694 43.4705 44.8507 43.4704H53.1307C53.312 43.4705 53.4915 43.4348 53.6589 43.3655C53.8264 43.2962 53.9786 43.1946 54.1067 43.0664C54.2349 42.9382 54.3366 42.7861 54.4059 42.6186C54.4752 42.4511 54.5108 42.2716 54.5107 42.0904V14.4904C54.5108 14.3091 54.4752 14.1296 54.4059 13.9621C54.3366 13.7946 54.2349 13.6425 54.1067 13.5143C53.9786 13.3861 53.8264 13.2845 53.6589 13.2152C53.4915 13.1459 53.312 13.1102 53.1307 13.1104ZM51.7507 40.7104H46.2307V15.8704H51.7507V40.7104Z" fill="white"/>
</g>
<defs>
<clipPath id="clip0_2381_44">
<rect width="69" height="69" fill="white"/>
</clipPath>
</defs>
</svg>
