<?xml version="1.0" encoding="UTF-8"?>
<svg id="Layer_2" data-name="Layer 2" xmlns="http://www.w3.org/2000/svg" viewBox="0 0 90.5 43.72">
  <defs>
    <style>
      .cls-1, .cls-2 {
        fill: #0c9ffa;
      }

      .cls-2 {
        opacity: .5;
      }
    </style>
  </defs>
  <g id="Layer_1-2" data-name="Layer 1">
    <g id="car_tool" data-name="car + tool">
      <path class="cls-2" d="M67.73,34.39l2.99-5.94h8.68c-1.71-2.07-4.3-3.4-7.2-3.4-3.63,0-6.78,2.08-8.32,5.12H23.88c-1.29-1.74-3.36-2.87-5.7-2.87-3.92,0-7.09,3.17-7.09,7.09s3.17,7.09,7.09,7.09c2.17,0,4.1-.97,5.4-2.5l40.49-.02c1.6,2.84,4.65,4.76,8.13,4.76,2.9,0,5.48-1.33,7.19-3.39h-8.68l-2.99-5.94ZM20.54,38.62h-4.89l-2.44-4.23,2.44-4.23h4.89l2.44,4.23-2.44,4.23Z"/>
      <path class="cls-1" d="M88.97,26.66l-1.51-12.27c-.29-2.36-2.05-3.77-4.72-3.77h-3.3l-10.26-9.24C68.18.49,66.91,0,65.58,0h-20.84c-4.68,0-9.21,1.59-12.86,4.52l-11.62,9.35-15.64,3.9c-2.01.5-3.42,2.31-3.42,4.38v4.5c-.66,0-1.2.54-1.2,1.2v5.96c0,.85.69,1.54,1.54,1.54h6.6c-.03-.32-.05-.64-.05-.97,0-5.56,4.53-10.09,10.09-10.09,2.64,0,5.18,1.05,7.05,2.87h36.98c.87-1.21,1.95-2.24,3.16-3.05,1.98-1.34,4.37-2.13,6.95-2.13,6.85,0,12.4,5.55,12.4,12.4,0,.33-.02.65-.04.97h4.28c.85,0,1.53-.69,1.53-1.54v-5.62c.01-.85-.68-1.54-1.53-1.54ZM58.04,13.06h-29.08l5.57-4.47c3.02-2.44,6.78-3.76,10.67-3.76h12.84v8.23ZM62.87,13.06V4.83h1.89c.65,0,1.29.24,1.77.68l5.93,7.55h-9.6Z"/>
    </g>
  </g>
</svg>