<?xml version="1.0" encoding="UTF-8"?>
<svg id="Layer_2" data-name="Layer 2" xmlns="http://www.w3.org/2000/svg" viewBox="0 0 56.97 56.98">
  <defs>
    <style>
      .cls-1, .cls-2 {
        fill: #0c9ffa;
      }

      .cls-2 {
        opacity: .5;
      }
    </style>
  </defs>
  <g id="Layer_1-2" data-name="Layer 1">
    <g>
      <path class="cls-2" d="M49.86,0H16.62c-3.93,0-7.13,3.19-7.13,7.13v12.2c1.51-.21,3.09-.33,4.75-.33s3.24.12,4.75.33v-9.82h28.49v14.24h-17.73c2.21,1.95,3.48,4.38,3.48,7.13h4.75v4.75h-4.75v4.75h14.25v4.74h-14.25v3.56c0,3.24-1.46,6.1-4,8.31h27.74V7.13c0-3.93-3.18-7.13-7.11-7.13ZM47.49,35.62h-4.75v-4.75h4.75v4.75Z"/>
      <rect class="cls-1" x="23.74" y="14.25" width="18.99" height="4.75"/>
      <ellipse class="cls-1" cx="14.24" cy="30.86" rx="14.24" ry="7.12"/>
      <path class="cls-1" d="M28.49,43.92v4.75c0,4.74-6.12,8.31-14.24,8.31S0,53.41,0,48.67v-4.75c0,4.68,5.94,8.31,14.24,8.31s14.24-3.63,14.24-8.31Z"/>
      <path class="cls-2" d="M28.49,34.43v4.75c0,4.74-6.12,8.31-14.24,8.31S0,43.91,0,39.17v-4.75c0,4.68,5.94,8.31,14.24,8.31s14.24-3.63,14.24-8.31Z"/>
    </g>
  </g>
</svg>