<?xml version="1.0" encoding="UTF-8"?>
<svg id="Layer_2" data-name="Layer 2" xmlns="http://www.w3.org/2000/svg" viewBox="0 0 72.32 60.87">
  <defs>
    <style>
      .cls-1, .cls-2 {
        fill: #0c9ffa;
      }

      .cls-2, .cls-3 {
        opacity: .5;
      }
    </style>
  </defs>
  <g id="Layer_1-2" data-name="Layer 1">
    <g>
      <path class="cls-1" d="M32.45,51.46c-.43-2.71-2.19-4.98-4.58-6.11-.75-.36-1.57-.61-2.42-.72-.35-.05-.7-.07-1.06-.07-4.5,0-8.16,3.66-8.16,8.16s3.66,8.15,8.16,8.15c4.07,0,7.45-3,8.06-6.9.06-.41.09-.83.09-1.25s-.03-.85-.09-1.26Z"/>
      <path class="cls-1" d="M60.99,44.56c-4.07,0-7.45,3-8.07,6.9-.06.41-.09.83-.09,1.26s.03.84.09,1.25c.61,3.9,4,6.9,8.07,6.9,4.49,0,8.15-3.66,8.15-8.15s-3.66-8.16-8.15-8.16Z"/>
      <path class="cls-2" d="M62.24,52.72c0,.69-.56,1.25-1.25,1.25H26.2c-.97,0-1.9-.47-2.48-1.25-.58-.8-.74-1.82-.44-2.75l2.17-5.34,1.89-4.63.57-1.4.04-.11c.26-.65.99-.96,1.64-.69.64.26.95.99.69,1.63l-.23.57-.06.15-2.12,5.2-2.23,5.47c-.02.08.01.27.11.41.11.15.27.23.45.23h34.79c.69,0,1.25.56,1.25,1.26Z"/>
      <g class="cls-3">
        <path class="cls-1" d="M71.72,8.27c-.58-.78-1.5-1.25-2.48-1.25l-52.39.02-.02-.04-2.44-5.61c-.2-.45-.66-.75-1.15-.75H1.59C.9.64.34,1.2.34,1.9s.56,1.25,1.25,1.25h10.82l1.68,3.85,13.69,31.36c.03.08.07.16.13.24.33.65.89,1.14,1.56,1.4.17.07.34.12.52.15.2.05.4.07.61.07h30.1c.4,0,.78-.08,1.14-.22.84-.33,1.5-1.03,1.79-1.93l8.54-27.06c.29-.93.13-1.95-.45-2.74ZM30.24,25c-.69,0-1.26-.56-1.26-1.25s.57-1.26,1.26-1.26h30.09c.69,0,1.26.56,1.26,1.26s-.57,1.25-1.26,1.25h-30.09ZM59.39,31.68c0,.7-.56,1.26-1.25,1.26h-25.71c-.69,0-1.25-.56-1.25-1.26s.56-1.25,1.25-1.25h25.71c.69,0,1.25.56,1.25,1.25ZM62.13,17.06H28.44c-.7,0-1.26-.56-1.26-1.25s.56-1.26,1.26-1.26h33.69c.69,0,1.26.56,1.26,1.26s-.57,1.25-1.26,1.25Z"/>
      </g>
      <path class="cls-1" d="M3.96,1.98c0,1.09-.89,1.98-1.98,1.98s-1.98-.89-1.98-1.98S.89,0,1.98,0s1.98.89,1.98,1.98Z"/>
    </g>
    <path class="cls-1" d="M71.72,8.27c-.58-.78-1.5-1.25-2.48-1.25l-52.39.02-.02-.04h-2.74l13.69,31.36c.03.08.07.16.13.24l-.57,1.4h34.5c.84-.33,1.5-1.03,1.79-1.93l8.54-27.06c.29-.93.13-1.95-.45-2.74ZM58.14,32.94h-25.71c-.69,0-1.25-.56-1.25-1.26s.56-1.25,1.25-1.25h25.71c.69,0,1.25.56,1.25,1.25s-.56,1.26-1.25,1.26ZM60.33,25h-30.09c-.69,0-1.26-.56-1.26-1.25s.57-1.26,1.26-1.26h30.09c.69,0,1.26.56,1.26,1.26s-.57,1.25-1.26,1.25ZM62.13,17.06H28.44c-.7,0-1.26-.56-1.26-1.25s.56-1.26,1.26-1.26h33.69c.69,0,1.26.56,1.26,1.26s-.57,1.25-1.26,1.25Z"/>
  </g>
</svg>