<?xml version="1.0" encoding="UTF-8"?>
<svg id="Layer_2" data-name="Layer 2" xmlns="http://www.w3.org/2000/svg" viewBox="0 0 84.48 54.25">
  <defs>
    <style>
      .cls-1, .cls-2 {
        fill: #0c9ffa;
      }

      .cls-2 {
        opacity: .5;
      }
    </style>
  </defs>
  <g id="Layer_1-2" data-name="Layer 1">
    <g>
      <polygon class="cls-1" points="82.9 29.83 82.9 14.58 80.57 15.37 80.57 29.83 82.9 29.83"/>
      <path class="cls-2" d="M68.9,23.65l-26.09,8.85c-.24.08-.49.12-.74.12s-.51-.04-.75-.12l-26.09-8.85v21.88h.03l-.06.3c0,2.6,12.03,8.41,26.85,8.41s26.82-5.81,26.82-8.41l-.06-.3h.09v-21.88Z"/>
      <polygon class="cls-1" points="15.23 19.33 42.06 28.43 68.9 19.33 80.57 15.37 82.9 14.58 84.12 14.17 42.06 0 0 14.17 15.23 19.33"/>
      <path class="cls-1" d="M78.98,33.4v8.9c0,1.52,1.23,2.75,2.75,2.75s2.75-1.23,2.75-2.75v-8.9c0-.75-.3-1.43-.79-1.93h-3.92c-.49.5-.79,1.18-.79,1.93Z"/>
      <polygon class="cls-1" points="79.43 29.83 79.43 31.48 79.78 31.48 83.69 31.48 84.04 31.48 84.04 29.83 82.9 29.83 80.57 29.83 79.43 29.83"/>
    </g>
  </g>
</svg>