<?xml version="1.0" encoding="UTF-8"?>
<svg id="Layer_2" data-name="Layer 2" xmlns="http://www.w3.org/2000/svg" viewBox="0 0 68.01 57.75">
  <defs>
    <style>
      .cls-1 {
        fill: #0c9ffa;
        fill-rule: evenodd;
      }

      .cls-2 {
        opacity: .5;
      }
    </style>
  </defs>
  <g id="Layer_1-2" data-name="Layer 1">
    <g>
      <polygon class="cls-1" points="44.85 32.78 44.85 38.95 37.09 38.95 37.09 46.7 30.92 46.7 30.92 38.95 23.16 38.95 23.16 32.78 30.92 32.78 30.92 25.05 37.09 25.05 37.09 32.78 44.85 32.78"/>
      <g class="cls-2">
        <path class="cls-1" d="M57.55,12.56h-10.69V0h-25.95v12.56h-10.45C4.83,12.56,0,17.11,0,22.98v24.06c0,5.88,4.83,10.71,10.46,10.71h47.09c5.65,0,10.46-4.83,10.46-10.71v-24.06c0-5.87-4.81-10.42-10.46-10.42ZM25.72,4.81h16.34v7.75h-16.34v-7.75Z"/>
      </g>
    </g>
  </g>
</svg>