<?xml version="1.0" encoding="UTF-8"?>
<svg id="Layer_2" data-name="Layer 2" xmlns="http://www.w3.org/2000/svg" viewBox="0 0 48.61 48.61">
  <defs>
    <style>
      .cls-1, .cls-2 {
        fill: #0c9ffa;
      }

      .cls-3 {
        fill: #fff;
      }

      .cls-2 {
        opacity: .5;
      }
    </style>
  </defs>
  <g id="Layer_1-2" data-name="Layer 1">
    <g>
      <path class="cls-2" d="M48.61,24.31c0,13.37-10.8,24.22-24.15,24.3-11.38-.07-20.96-7.88-23.74-18.42-.05-.18-.09-.37-.13-.55-.39-1.71-.59-3.5-.59-5.33C0,10.88,10.88,0,24.31,0s24.3,10.88,24.3,24.31Z"/>
      <circle class="cls-1" cx="24.62" cy="24.31" r="2.48"/>
      <path class="cls-3" d="M24.62,43.61c-10.64,0-19.3-8.66-19.3-19.3S13.98,5.01,24.62,5.01s19.3,8.66,19.3,19.3-8.66,19.3-19.3,19.3ZM24.62,7.83c-9.08,0-16.47,7.39-16.47,16.47s7.39,16.47,16.47,16.47,16.47-7.39,16.47-16.47S33.7,7.83,24.62,7.83Z"/>
      <path class="cls-3" d="M24.62,35.89c-6.39,0-11.59-5.2-11.59-11.59s5.2-11.59,11.59-11.59,11.59,5.2,11.59,11.59-5.2,11.59-11.59,11.59ZM24.62,15.49c-4.86,0-8.82,3.95-8.82,8.82s3.95,8.82,8.82,8.82,8.82-3.95,8.82-8.82-3.95-8.82-8.82-8.82Z"/>
      <g>
        <rect class="cls-1" x="21.56" y="15.86" width="21.92" height="1.17" transform="translate(-2.27 27.3) rotate(-44.16)"/>
        <path class="cls-1" d="M46.93,6.14c-.03.08-.07.15-.13.21l-3.71,3.64c-.07.07-.15.11-.24.14-.03,0-.06.01-.09.01l-3.36-.05c-.18,0-.32-.15-.33-.32l-.08-3.45s0-.06,0-.09c.02-.09.07-.18.14-.25l3.7-3.64c.14-.14.34-.19.52-.13.16.06.28.2.3.37l.32,2.52s0,.04,0,.06c.03,0,.05,0,.08,0l2.49.36c.17.03.31.14.37.31.03.1.03.21,0,.31Z"/>
      </g>
    </g>
  </g>
</svg>