<?xml version="1.0" encoding="UTF-8"?>
<svg id="Layer_2" data-name="Layer 2" xmlns="http://www.w3.org/2000/svg" viewBox="0 0 72.83 40.67">
  <defs>
    <style>
      .cls-1, .cls-2 {
        fill: #0c9ffa;
      }

      .cls-2 {
        opacity: .5;
      }
    </style>
  </defs>
  <g id="Layer_1-2" data-name="Layer 1">
    <g>
      <path class="cls-1" d="M36.41,0c-1.87,0-3.39,1.47-3.49,3.32,1.12-.14,2.26-.21,3.42-.21s2.4.08,3.57.23c-.09-1.86-1.62-3.34-3.5-3.34ZM69.83,35.17H3c-1.65,0-3,1.24-3,2.75s1.35,2.75,3,2.75h66.83c1.65,0,3-1.24,3-2.75s-1.35-2.75-3-2.75Z"/>
      <path class="cls-2" d="M49.03,7.03c-1.12-.51-2.28-.95-3.47-1.31-2.89-.91-5.96-1.39-9.15-1.39s-6.26.48-9.15,1.39c-11.18,3.47-19.63,13.15-21.35,25-.1.67-.18,1.34-.23,2.02h61.46c-.9-11.48-8.08-21.2-18.11-25.71ZM17.04,29.86h-6.51C15.66,10.79,32.9,7.03,32.9,7.03c-12.26,6.93-15.86,22.83-15.86,22.83Z"/>
    </g>
  </g>
</svg>