<?xml version="1.0" encoding="UTF-8"?>
<svg id="Layer_2" data-name="Layer 2" xmlns="http://www.w3.org/2000/svg" viewBox="0 0 51.29 61.56">
  <defs>
    <style>
      .cls-1, .cls-2 {
        fill: #0c9ffa;
      }

      .cls-2, .cls-3 {
        opacity: .5;
      }
    </style>
  </defs>
  <g id="Layer_1-2" data-name="Layer 1">
    <g>
      <path class="cls-2" d="M37.33,13.48c-.19.16-.38.33-.56.5-.18.18-.34.36-.51.55l-4.58-4.58c.19-.15.38-.32.56-.5.18-.18.35-.36.5-.56l4.59,4.59Z"/>
      <g class="cls-3">
        <path class="cls-1" d="M10.16,11.27c1.31,0,2.54.51,3.46,1.44,1.91,1.91,1.91,5.02,0,6.93-.93.93-2.16,1.44-3.46,1.44s-2.54-.51-3.46-1.44c-1.91-1.91-1.91-5.02,0-6.93.93-.93,2.16-1.44,3.46-1.44h0ZM10.16,9.77c-1.64,0-3.27.62-4.52,1.87-2.5,2.5-2.5,6.55,0,9.04,1.25,1.25,2.89,1.87,4.52,1.87s3.27-.62,4.52-1.87c2.5-2.5,2.5-6.55,0-9.04-1.25-1.25-2.88-1.87-4.52-1.87h0Z"/>
      </g>
      <circle class="cls-1" cx="6.02" cy="55.54" r="6.02"/>
      <g class="cls-3">
        <path class="cls-1" d="M45.64,47.5c1.11,0,2.15.43,2.94,1.22.78.78,1.22,1.83,1.22,2.94s-.43,2.15-1.22,2.94-1.83,1.22-2.94,1.22-2.15-.43-2.94-1.22c-1.62-1.62-1.62-4.26,0-5.88.78-.78,1.83-1.22,2.94-1.22h0ZM45.64,46c-1.45,0-2.89.55-4,1.65-2.21,2.21-2.21,5.78,0,7.99,1.1,1.1,2.55,1.65,4,1.65s2.89-.55,4-1.65c2.21-2.21,2.21-5.78,0-7.99-1.1-1.1-2.55-1.65-4-1.65h0Z"/>
      </g>
      <path class="cls-1" d="M31.19,1.44c1.92,1.92,1.92,5.04,0,6.96s-5.04,1.92-6.96,0c-1.92-1.92-1.92-5.04,0-6.96,1.92-1.92,5.04-1.92,6.96,0Z"/>
      <path class="cls-2" d="M21.84,26.8c-.19.16-.37.33-.55.51-.18.18-.35.36-.51.55l-5.61-5.61c.19-.16.38-.33.55-.5.18-.18.34-.36.5-.55l5.61,5.61Z"/>
      <path class="cls-2" d="M21.84,40.77l-10,10.01c-.16-.19-.32-.38-.5-.56-.18-.18-.36-.35-.56-.5l10.01-10c.16.19.33.37.51.55.18.18.36.35.55.51Z"/>
      <path class="cls-2" d="M41.15,46.1c-.19.15-.38.32-.56.5-.18.18-.34.36-.5.56l-6.39-6.39c.19-.16.37-.33.55-.51s.35-.36.51-.55l6.39,6.39Z"/>
      <path class="cls-1" d="M33.2,28.36c-1.5-1.5-3.46-2.25-5.42-2.25s-3.92.75-5.42,2.25c-3,2.99-3,7.85,0,10.85,1.5,1.5,3.46,2.25,5.42,2.25s3.93-.75,5.42-2.25c3-3,3-7.85,0-10.85ZM32.14,38.15c-1.17,1.17-2.72,1.81-4.37,1.81s-3.2-.64-4.37-1.81c-2.41-2.41-2.41-6.33,0-8.74,1.17-1.17,2.72-1.81,4.37-1.81s3.2.64,4.37,1.81c2.41,2.41,2.41,6.33,0,8.74Z"/>
      <path class="cls-1" d="M33.2,28.36c-1.5-1.5-3.46-2.25-5.42-2.25s-3.92.75-5.42,2.25c-3,2.99-3,7.85,0,10.85,1.5,1.5,3.46,2.25,5.42,2.25s3.93-.75,5.42-2.25c3-3,3-7.85,0-10.85ZM32.14,38.15c-1.17,1.17-2.72,1.81-4.37,1.81s-3.2-.64-4.37-1.81c-2.41-2.41-2.41-6.33,0-8.74,1.17-1.17,2.72-1.81,4.37-1.81s3.2.64,4.37,1.81c2.41,2.41,2.41,6.33,0,8.74Z"/>
      <path class="cls-1" d="M27.77,38.47c-1.25,0-2.43-.49-3.31-1.37-.88-.88-1.37-2.06-1.37-3.31s.49-2.43,1.37-3.31c.88-.88,2.06-1.37,3.31-1.37s2.43.49,3.31,1.37c.88.88,1.37,2.06,1.37,3.31s-.49,2.43-1.37,3.31c-.88.89-2.06,1.37-3.31,1.37Z"/>
      <path class="cls-2" d="M37.33,25.29l-2.57,2.56c-.16-.19-.33-.37-.51-.55-.18-.18-.36-.35-.55-.51l2.56-2.57c.16.19.33.38.5.56.18.18.36.34.56.5Z"/>
      <g class="cls-3">
        <path class="cls-1" d="M42.17,14.74c1.24,0,2.41.48,3.29,1.36,1.81,1.81,1.81,4.76,0,6.57-.88.88-2.05,1.36-3.29,1.36s-2.41-.48-3.29-1.36c-1.81-1.81-1.81-4.76,0-6.57.88-.88,2.05-1.36,3.29-1.36h0ZM42.17,13.24c-1.57,0-3.14.6-4.34,1.8-2.4,2.4-2.4,6.29,0,8.69,1.2,1.2,2.77,1.8,4.34,1.8s3.14-.6,4.34-1.8c2.4-2.4,2.4-6.29,0-8.69-1.2-1.2-2.77-1.8-4.34-1.8h0Z"/>
      </g>
    </g>
  </g>
</svg>