<?xml version="1.0" encoding="UTF-8"?>
<svg id="Layer_2" data-name="Layer 2" xmlns="http://www.w3.org/2000/svg" viewBox="0 0 55.39 63.44">
  <defs>
    <style>
      .cls-1, .cls-2 {
        fill: #0c9ffa;
      }

      .cls-2 {
        opacity: .5;
      }
    </style>
  </defs>
  <g id="Layer_1-2" data-name="Layer 1">
    <g>
      <path class="cls-1" d="M22.78.04C15.97,2.96,7.1,30.47,3.22,43.92c-1.19,4.13-1.67,4.69-.6,6.08.83,1.07,4.13.71,4.13.71h10.04s2.26-.08,2.83-.59c.58-.51.36-.54.57-2.48C21.4,35.96,26.08-1.38,22.78.04Z"/>
      <path class="cls-2" d="M29.26,7.14c.49.04,2.83,4.75,2.83,4.75l19.2,33.53s1.94,3.06,1.19,4.35c-.71,1.22-3.89.85-3.89.85l-20.39.08s-1.34.11-1.77-.34c-.49-.52-.63-.77-.52-2.48.29-4.21.82-12.01,1.1-15.55.43-5.39.77-14.15.97-20.27.13-4.05.13-5.02,1.27-4.92Z"/>
      <path class="cls-2" d="M55.07,56.02c.37.37.36.69.29,1.19-.49,3.53-2.63,6.24-5.19,6.24H5.2c-2.45,0-4.51-2.48-5.11-5.78-.12-.64-.18-1.04.3-1.52.4-.4,1.77-.47,1.77-.47h51.62s1,.06,1.3.35Z"/>
    </g>
  </g>
</svg>